{
.appVersion = "1342";
DisplayStrings = (
"KH¡pH¿H",
"notH/T.ss01 O/space/nbspace",
"£",
"ÁÂÄÀÅÃÆÇÐÉÊËÈÍÎÏÌÑÓÔÖÒØÕ/OE ÞÚÛÜÙÝ/G.ss01/M.ss01/O.ss01/T.ss01/W.ss01",
"!@MDB",
"a/acutecomb á",
"ßbp/Germandbls BPS",
B
);
classes = (
{
automatic = 1;
code = "A B C D E F G H I J K L M N O P Q R S T U V W X Y Z Aacute Acircumflex Adieresis Agrave Aring Atilde AE Ccedilla Eth Eacute Ecircumflex Edieresis Egrave Iacute Icircumflex Idieresis Igrave Ntilde Oacute Ocircumflex Odieresis Ograve Oslash Otilde OE Thorn Germandbls Uacute Ucircumflex Udieresis Ugrave Wacute Wcircumflex Wdieresis Wgrave Yacute Ycircumflex Ydieresis Ygrave G.ss01 M.ss01 O.ss01 T.ss01 W.ss01";
name = Uppercase;
}
);
copyright = "Copyright 2021 The Dots Project Authors (https://github.com/googlefonts/zen-dots)";
customParameters = (
{
name = glyphOrder;
value = (
NULL,
CR,
space,
exclam,
quotedbl,
numbersign,
dollar,
percent,
ampersand,
quotesingle,
parenleft,
parenright,
asterisk,
plus,
comma,
hyphen,
period,
slash,
zero,
one,
two,
three,
four,
five,
six,
seven,
eight,
nine,
colon,
semicolon,
less,
equal,
greater,
question,
at,
A,
B,
C,
D,
E,
F,
G,
H,
I,
J,
K,
L,
M,
N,
O,
P,
Q,
R,
S,
T,
U,
V,
W,
X,
Y,
Z,
bracketleft,
backslash,
bracketright,
asciicircum,
underscore,
grave,
a,
b,
c,
d,
e,
f,
g,
h,
i,
j,
k,
l,
m,
n,
o,
p,
q,
r,
s,
t,
u,
v,
w,
x,
y,
z,
braceleft,
bar,
braceright,
asciitilde,
cent,
bullet,
registered,
copyright,
trademark,
plusminus,
yen,
ellipsis,
nbspace,
endash,
emdash,
quotedblleft,
quotedblright,
quoteleft,
quoteright,
divide
);
},
{
name = license;
value = "This Font Software is licensed under the SIL Open Font License, Version 1.1. This license is available with a FAQ at: https://scripts.sil.org/OFL";
},
{
name = licenseURL;
value = "https://scripts.sil.org/OFL";
},
{
name = fsType;
value = (
);
},
{
name = "Use Typo Metrics";
value = 1;
}
);
date = "2021-02-12 05:06:22 +0000";
designer = "Yoshimichi Ohira";
designerURL = "https://www.zenfont.jp/";
disablesNiceNames = 1;

glyphs = (
{
glyphname = exclam;
lastChange = "2021-02-12 00:00:12 +0000";
layers = (
{
background = {
components = (
{
name = period;
transform = "{1, 0, 0, 1, 10, 0}";
}
);
paths = (
{
closed = 1;
nodes = (
"230 211 LINE",
"230 713 LINE",
"70 713 LINE",
"70 211 LINE"
);
}
);
};
components = (
{
name = period;
transform = "{1, 0, 0, 1, 10, 0}";
}
);
layerId = master01;
paths = (
{
closed = 1;
nodes = (
"230 211 LINE",
"230 713 LINE",
"70 713 LINE",
"70 211 LINE"
);
}
);
width = 300;
},
{
associatedMasterId = master01;
layerId = "FD4E6981-539F-40C2-9746-9DC0EFA336FF";
name = "Aug 23 20, 09:21";
paths = (
{
closed = 1;
nodes = (
"60 211 LINE",
"60 713 LINE",
"222 713 LINE",
"222 211 LINE"
);
},
{
closed = 1;
nodes = (
"60 0 LINE",
"60 143 LINE",
"222 143 LINE",
"222 0 LINE"
);
}
);
width = 281.775;
}
);
leftKerningGroup = H;
leftMetricsKey = H;
rightKerningGroup = H;
rightMetricsKey = H;
unicode = 0021;
},
{
glyphname = numbersign;
lastChange = "2021-02-11 22:46:17 +0000";
layers = (
{
background = {
paths = (
{
closed = 1;
nodes = (
"557 0 LINE",
"666 713 LINE",
"540 713 LINE",
"431 0 LINE"
);
},
{
closed = 1;
nodes = (
"286 0 LINE",
"395 713 LINE",
"269 713 LINE",
"160 0 LINE"
);
},
{
closed = 1;
nodes = (
"737 195 LINE",
"754 310 LINE",
"58 310 LINE",
"40 195 LINE"
);
},
{
closed = 1;
nodes = (
"768 400 LINE",
"786 515 LINE",
"89 515 LINE",
"71 400 LINE"
);
}
);
};
layerId = master01;
paths = (
{
closed = 1;
nodes = (
"557 0 LINE",
"666 713 LINE",
"540 713 LINE",
"431 0 LINE"
);
},
{
closed = 1;
nodes = (
"286 0 LINE",
"395 713 LINE",
"269 713 LINE",
"160 0 LINE"
);
},
{
closed = 1;
nodes = (
"737 195 LINE",
"754 310 LINE",
"58 310 LINE",
"40 195 LINE"
);
},
{
closed = 1;
nodes = (
"768 400 LINE",
"786 515 LINE",
"89 515 LINE",
"71 400 LINE"
);
}
);
width = 826;
},
{
associatedMasterId = master01;
background = {
paths = (
{
closed = 1;
nodes = (
"768 399 LINE",
"618 399 LINE",
"604 311 LINE",
"754 311 LINE",
"737 195 LINE",
"587 195 LINE",
"557 0 LINE",
"433 0 LINE",
"462 195 LINE",
"314 195 LINE",
"284 0 LINE",
"160 0 LINE",
"190 195 LINE",
"40 195 LINE",
"58 311 LINE",
"207 311 LINE",
"221 399 LINE",
"71 399 LINE",
"89 515 LINE",
"238 515 LINE",
"269 713 LINE",
"393 713 LINE",
"363 515 LINE",
"511 515 LINE",
"542 713 LINE",
"666 713 LINE",
"635 515 LINE",
"786 515 LINE"
);
},
{
closed = 1;
nodes = (
"345 399 LINE",
"331 311 LINE",
"480 311 LINE",
"494 399 LINE"
);
}
);
};
layerId = "EF3E316B-CCF3-47F6-AAA8-815DD699F8BA";
name = "Aug 23 20, 09:22";
paths = (
{
closed = 1;
nodes = (
"768 399 LINE",
"618 399 LINE",
"604 311 LINE",
"754 311 LINE",
"737 195 LINE",
"587 195 LINE",
"557 0 LINE",
"433 0 LINE",
"462 195 LINE",
"314 195 LINE",
"284 0 LINE",
"160 0 LINE",
"190 195 LINE",
"40 195 LINE",
"58 311 LINE",
"207 311 LINE",
"221 399 LINE",
"71 399 LINE",
"89 515 LINE",
"238 515 LINE",
"269 713 LINE",
"393 713 LINE",
"363 515 LINE",
"511 515 LINE",
"542 713 LINE",
"666 713 LINE",
"635 515 LINE",
"786 515 LINE"
);
},
{
closed = 1;
nodes = (
"345 399 LINE",
"331 311 LINE",
"480 311 LINE",
"494 399 LINE"
);
}
);
width = 835.544;
}
);
rightMetricsKey = "=|";
unicode = 0023;
},
{
glyphname = dollar;
lastChange = "2021-02-11 22:46:17 +0000";
layers = (
{
background = {
components = (
{
alignment = -1;
name = s;
transform = "{1, 0, 0, 1, 0, 100}";
}
);
paths = (
{
closed = 1;
nodes = (
"432 -91 LINE",
"432 805 LINE",
"312 805 LINE",
"312 -91 LINE"
);
}
);
};
components = (
{
alignment = -1;
name = s;
transform = "{1, 0, 0, 1, 0, 100}";
}
);
layerId = master01;
paths = (
{
closed = 1;
nodes = (
"432 -91 LINE",
"432 805 LINE",
"312 805 LINE",
"312 -91 LINE"
);
}
);
width = 745;
},
{
associatedMasterId = master01;
layerId = "0C7016E6-1A2B-4392-8A57-918B064C7622";
name = "Aug 23 20, 09:23";
paths = (
{
closed = 1;
nodes = (
"752 152 OFFCURVE",
"692 93 OFFCURVE",
"587 93 CURVE SMOOTH",
"450 93 LINE",
"450 -131 LINE",
"332 -131 LINE",
"332 93 LINE",
"59 93 LINE",
"59 212 LINE",
"555 212 LINE SMOOTH",
"581 212 OFFCURVE",
"596 229 OFFCURVE",
"596 255 CURVE SMOOTH",
"596 281 OFFCURVE",
"581 297 OFFCURVE",
"555 297 CURVE SMOOTH",
"195 297 LINE SMOOTH",
"91 297 OFFCURVE",
"30 356 OFFCURVE",
"30 459 CURVE SMOOTH",
"30 562 OFFCURVE",
"91 620 OFFCURVE",
"195 620 CURVE SMOOTH",
"332 620 LINE",
"332 845 LINE",
"451 845 LINE",
"451 620 LINE",
"723 620 LINE",
"723 502 LINE",
"227 502 LINE SMOOTH",
"201 502 OFFCURVE",
"187 485 OFFCURVE",
"187 459 CURVE SMOOTH",
"187 433 OFFCURVE",
"201 416 OFFCURVE",
"227 416 CURVE SMOOTH",
"587 416 LINE SMOOTH",
"692 416 OFFCURVE",
"752 357 OFFCURVE",
"752 255 CURVE SMOOTH"
);
}
);
width = 792.443;
}
);
leftKerningGroup = S;
rightKerningGroup = S;
rightMetricsKey = "=|";
unicode = 0024;
},
{
glyphname = percent;
lastChange = "2021-02-11 22:46:17 +0000";
layers = (
{
background = {
paths = (
{
closed = 1;
nodes = (
"333 0 LINE",
"883 713 LINE",
"731 713 LINE",
"181 0 LINE"
);
},
{
closed = 1;
nodes = (
"278 357 LINE SMOOTH",
"395 357 OFFCURVE",
"463 427 OFFCURVE",
"463 535 CURVE SMOOTH",
"463 643 OFFCURVE",
"395 713 OFFCURVE",
"278 713 CURVE SMOOTH",
"215 713 LINE SMOOTH",
"98 713 OFFCURVE",
"30 643 OFFCURVE",
"30 535 CURVE SMOOTH",
"30 427 OFFCURVE",
"98 357 OFFCURVE",
"215 357 CURVE SMOOTH"
);
},
{
closed = 1;
nodes = (
"183 453 OFFCURVE",
"157 483 OFFCURVE",
"157 535 CURVE SMOOTH",
"157 587 OFFCURVE",
"183 617 OFFCURVE",
"235 617 CURVE SMOOTH",
"258 617 LINE SMOOTH",
"310 617 OFFCURVE",
"336 587 OFFCURVE",
"336 535 CURVE SMOOTH",
"336 483 OFFCURVE",
"310 453 OFFCURVE",
"258 453 CURVE SMOOTH",
"235 453 LINE SMOOTH"
);
},
{
closed = 1;
nodes = (
"840 0 LINE SMOOTH",
"957 0 OFFCURVE",
"1025 70 OFFCURVE",
"1025 178 CURVE SMOOTH",
"1025 286 OFFCURVE",
"957 356 OFFCURVE",
"840 356 CURVE SMOOTH",
"777 356 LINE SMOOTH",
"660 356 OFFCURVE",
"592 286 OFFCURVE",
"592 178 CURVE SMOOTH",
"592 70 OFFCURVE",
"660 0 OFFCURVE",
"777 0 CURVE SMOOTH"
);
},
{
closed = 1;
nodes = (
"745 96 OFFCURVE",
"719 126 OFFCURVE",
"719 178 CURVE SMOOTH",
"719 230 OFFCURVE",
"745 260 OFFCURVE",
"797 260 CURVE SMOOTH",
"820 260 LINE SMOOTH",
"872 260 OFFCURVE",
"898 230 OFFCURVE",
"898 178 CURVE SMOOTH",
"898 126 OFFCURVE",
"872 96 OFFCURVE",
"820 96 CURVE SMOOTH",
"797 96 LINE SMOOTH"
);
}
);
};
layerId = master01;
paths = (
{
closed = 1;
nodes = (
"333 0 LINE",
"883 713 LINE",
"731 713 LINE",
"181 0 LINE"
);
},
{
closed = 1;
nodes = (
"278 357 LINE SMOOTH",
"395 357 OFFCURVE",
"463 427 OFFCURVE",
"463 535 CURVE SMOOTH",
"463 643 OFFCURVE",
"395 713 OFFCURVE",
"278 713 CURVE SMOOTH",
"215 713 LINE SMOOTH",
"98 713 OFFCURVE",
"30 643 OFFCURVE",
"30 535 CURVE SMOOTH",
"30 427 OFFCURVE",
"98 357 OFFCURVE",
"215 357 CURVE SMOOTH"
);
},
{
closed = 1;
nodes = (
"183 453 OFFCURVE",
"157 483 OFFCURVE",
"157 535 CURVE SMOOTH",
"157 587 OFFCURVE",
"183 617 OFFCURVE",
"235 617 CURVE SMOOTH",
"258 617 LINE SMOOTH",
"310 617 OFFCURVE",
"336 587 OFFCURVE",
"336 535 CURVE SMOOTH",
"336 483 OFFCURVE",
"310 453 OFFCURVE",
"258 453 CURVE SMOOTH",
"235 453 LINE SMOOTH"
);
},
{
closed = 1;
nodes = (
"840 0 LINE SMOOTH",
"957 0 OFFCURVE",
"1025 70 OFFCURVE",
"1025 178 CURVE SMOOTH",
"1025 286 OFFCURVE",
"957 356 OFFCURVE",
"840 356 CURVE SMOOTH",
"777 356 LINE SMOOTH",
"660 356 OFFCURVE",
"592 286 OFFCURVE",
"592 178 CURVE SMOOTH",
"592 70 OFFCURVE",
"660 0 OFFCURVE",
"777 0 CURVE SMOOTH"
);
},
{
closed = 1;
nodes = (
"745 96 OFFCURVE",
"719 126 OFFCURVE",
"719 178 CURVE SMOOTH",
"719 230 OFFCURVE",
"745 260 OFFCURVE",
"797 260 CURVE SMOOTH",
"820 260 LINE SMOOTH",
"872 260 OFFCURVE",
"898 230 OFFCURVE",
"898 178 CURVE SMOOTH",
"898 126 OFFCURVE",
"872 96 OFFCURVE",
"820 96 CURVE SMOOTH",
"797 96 LINE SMOOTH"
);
}
);
width = 1065;
},
{
associatedMasterId = master01;
layerId = "F75D68BB-0D1A-4A56-B7E9-B2C50B600649";
name = "Aug 23 20, 09:28";
paths = (
{
closed = 1;
nodes = (
"1025 71 OFFCURVE",
"957 0 OFFCURVE",
"840 0 CURVE SMOOTH",
"778 0 LINE SMOOTH",
"661 0 OFFCURVE",
"592 71 OFFCURVE",
"592 178 CURVE SMOOTH",
"592 286 OFFCURVE",
"661 357 OFFCURVE",
"778 357 CURVE SMOOTH",
"840 357 LINE SMOOTH",
"957 357 OFFCURVE",
"1025 286 OFFCURVE",
"1025 178 CURVE SMOOTH"
);
},
{
closed = 1;
nodes = (
"414 0 LINE",
"292 0 LINE",
"642 713 LINE",
"764 713 LINE"
);
},
{
closed = 1;
nodes = (
"463 427 OFFCURVE",
"395 357 OFFCURVE",
"278 357 CURVE SMOOTH",
"215 357 LINE SMOOTH",
"98 357 OFFCURVE",
"30 427 OFFCURVE",
"30 535 CURVE SMOOTH",
"30 643 OFFCURVE",
"98 713 OFFCURVE",
"215 713 CURVE SMOOTH",
"278 713 LINE SMOOTH",
"395 713 OFFCURVE",
"463 643 OFFCURVE",
"463 535 CURVE SMOOTH"
);
},
{
closed = 1;
nodes = (
"898 230 OFFCURVE",
"873 261 OFFCURVE",
"820 261 CURVE SMOOTH",
"797 261 LINE SMOOTH",
"745 261 OFFCURVE",
"719 230 OFFCURVE",
"719 178 CURVE SMOOTH",
"719 126 OFFCURVE",
"745 96 OFFCURVE",
"797 96 CURVE SMOOTH",
"820 96 LINE SMOOTH",
"873 96 OFFCURVE",
"898 126 OFFCURVE",
"898 178 CURVE SMOOTH"
);
},
{
closed = 1;
nodes = (
"336 587 OFFCURVE",
"310 617 OFFCURVE",
"258 617 CURVE SMOOTH",
"235 617 LINE SMOOTH",
"183 617 OFFCURVE",
"157 587 OFFCURVE",
"157 535 CURVE SMOOTH",
"157 483 OFFCURVE",
"183 453 OFFCURVE",
"235 453 CURVE SMOOTH",
"258 453 LINE SMOOTH",
"310 453 OFFCURVE",
"336 483 OFFCURVE",
"336 535 CURVE SMOOTH"
);
}
);
width = 1065.4;
}
);
leftKerningGroup = percent;
rightKerningGroup = percent;
unicode = 0025;
},
{
glyphname = ampersand;
lastChange = "2021-02-12 00:53:57 +0000";
layers = (
{
background = {
paths = (
{
closed = 1;
nodes = (
"1008 0 LINE",
"438 482 LINE SMOOTH",
"421 497 OFFCURVE",
"412 514 OFFCURVE",
"412 530 CURVE SMOOTH",
"412 558 OFFCURVE",
"434 584 OFFCURVE",
"483 584 CURVE SMOOTH",
"567 584 LINE SMOOTH",
"620 584 OFFCURVE",
"649 558 OFFCURVE",
"649 505 CURVE",
"814 505 LINE",
"814 632 OFFCURVE",
"736 714 OFFCURVE",
"598 714 CURVE SMOOTH",
"449 714 LINE SMOOTH",
"308 714 OFFCURVE",
"233 624 OFFCURVE",
"233 538 CURVE SMOOTH",
"233 501 OFFCURVE",
"244 463 OFFCURVE",
"282 431 CURVE SMOOTH",
"782 0 LINE"
);
},
{
closed = 1;
nodes = (
"582 0 LINE",
"1008 424 LINE",
"802 424 LINE",
"508 130 LINE",
"254 130 LINE SMOOTH",
"221 130 OFFCURVE",
"202 150 OFFCURVE",
"202 173 CURVE SMOOTH",
"202 186 OFFCURVE",
"207 200 OFFCURVE",
"220 212 CURVE SMOOTH",
"398 389 LINE",
"292 488 LINE",
"93 289 LINE SMOOTH",
"51 247 OFFCURVE",
"30 197 OFFCURVE",
"30 150 CURVE SMOOTH",
"30 70 OFFCURVE",
"92 0 OFFCURVE",
"214 0 CURVE SMOOTH"
);
}
);
};
layerId = master01;
paths = (
{
closed = 1;
nodes = (
"1008 0 LINE",
"438 482 LINE SMOOTH",
"420 497 OFFCURVE",
"412 515 OFFCURVE",
"412 531 CURVE SMOOTH",
"412 559 OFFCURVE",
"434 585 OFFCURVE",
"483 585 CURVE SMOOTH",
"567 585 LINE SMOOTH",
"620 585 OFFCURVE",
"649 559 OFFCURVE",
"649 506 CURVE",
"814 506 LINE",
"814 633 OFFCURVE",
"736 715 OFFCURVE",
"598 715 CURVE SMOOTH",
"449 715 LINE SMOOTH",
"308 715 OFFCURVE",
"233 625 OFFCURVE",
"233 537 CURVE SMOOTH",
"233 487 OFFCURVE",
"253 456 OFFCURVE",
"282 431 CURVE SMOOTH",
"782 0 LINE"
);
},
{
closed = 1;
nodes = (
"582 0 LINE",
"1008 424 LINE",
"802 424 LINE",
"508 130 LINE",
"254 130 LINE SMOOTH",
"221 130 OFFCURVE",
"202 150 OFFCURVE",
"202 173 CURVE SMOOTH",
"202 186 OFFCURVE",
"207 200 OFFCURVE",
"220 212 CURVE SMOOTH",
"398 389 LINE",
"292 488 LINE",
"93 289 LINE SMOOTH",
"51 247 OFFCURVE",
"30 197 OFFCURVE",
"30 150 CURVE SMOOTH",
"30 70 OFFCURVE",
"92 0 OFFCURVE",
"214 0 CURVE SMOOTH"
);
}
);
width = 1028;
},
{
associatedMasterId = master01;
layerId = "3DB673AA-5662-405C-979C-1420220A5ECA";
name = "Aug 23 20, 09:30";
paths = (
{
closed = 1;
nodes = (
"780 0 LINE",
"672 92 LINE",
"580 0 LINE",
"212 0 LINE SMOOTH",
"18 0 OFFCURVE",
"-19 174 OFFCURVE",
"91 289 CURVE SMOOTH",
"137 337 OFFCURVE",
"208 410 OFFCURVE",
"255 459 CURVE",
"190 558 OFFCURVE",
"260 714 OFFCURVE",
"447 714 CURVE SMOOTH",
"596 714 LINE",
"734 713 OFFCURVE",
"812 632 OFFCURVE",
"812 505 CURVE",
"647 505 LINE",
"647 557 OFFCURVE",
"618 582 OFFCURVE",
"565 582 CURVE SMOOTH",
"481 582 LINE SMOOTH",
"405 582 OFFCURVE",
"389 522 OFFCURVE",
"436 482 CURVE SMOOTH",
"663 290 LINE",
"797 424 LINE",
"1006 424 LINE",
"776 195 LINE",
"1006 0 LINE"
);
},
{
closed = 1;
nodes = (
"364 357 LINE",
"314 308 OFFCURVE",
"250 245 OFFCURVE",
"218 212 CURVE SMOOTH",
"184 177 OFFCURVE",
"200 130 OFFCURVE",
"252 130 CURVE SMOOTH",
"503 130 LINE",
"561 188 LINE"
);
}
);
width = 1026.2;
}
);
leftKerningGroup = ampersand;
rightKerningGroup = ampersand;
unicode = 0026;
},
{
glyphname = quotesingle;
lastChange = "2021-02-11 22:46:17 +0000";
layers = (
{
background = {
paths = (
{
closed = 1;
nodes = (
"180 419 LINE",
"180 713 LINE",
"60 713 LINE",
"60 419 LINE"
);
}
);
};
layerId = master01;
paths = (
{
closed = 1;
nodes = (
"180 419 LINE",
"180 713 LINE",
"60 713 LINE",
"60 419 LINE"
);
}
);
width = 240;
}
);
leftKerningGroup = quoteleft;
rightKerningGroup = quoteleft;
rightMetricsKey = "=|";
unicode = 0027;
},
{
glyphname = parenleft;
lastChange = "2021-02-11 22:46:17 +0000";
layers = (
{
background = {
paths = (
{
closed = 1;
nodes = (
"377 -193 LINE",
"267 -61 OFFCURVE",
"210 100 OFFCURVE",
"210 275 CURVE SMOOTH",
"210 449 OFFCURVE",
"267 610 OFFCURVE",
"377 743 CURVE",
"256 743 LINE",
"140 608 OFFCURVE",
"80 448 OFFCURVE",
"80 275 CURVE SMOOTH",
"80 101 OFFCURVE",
"140 -60 OFFCURVE",
"256 -193 CURVE"
);
}
);
};
layerId = master01;
paths = (
{
closed = 1;
nodes = (
"377 -193 LINE",
"267 -61 OFFCURVE",
"210 100 OFFCURVE",
"210 275 CURVE SMOOTH",
"210 449 OFFCURVE",
"267 610 OFFCURVE",
"377 743 CURVE",
"256 743 LINE",
"140 608 OFFCURVE",
"80 448 OFFCURVE",
"80 275 CURVE SMOOTH",
"80 101 OFFCURVE",
"140 -60 OFFCURVE",
"256 -193 CURVE"
);
}
);
width = 397;
}
);
leftKerningGroup = parenleft;
rightKerningGroup = parenleft;
unicode = 0028;
},
{
glyphname = asterisk;
lastChange = "2021-02-11 22:46:17 +0000";
layers = (
{
background = {
paths = (
{
closed = 1;
nodes = (
"266 411 LINE",
"360 282 LINE",
"435 337 LINE",
"341 466 LINE",
"493 515 LINE",
"465 603 LINE",
"313 554 LINE",
"313 713 LINE",
"221 713 LINE",
"221 554 LINE",
"69 603 LINE",
"40 515 LINE",
"192 466 LINE",
"98 337 LINE",
"173 282 LINE"
);
}
);
};
layerId = master01;
paths = (
{
closed = 1;
nodes = (
"266 411 LINE",
"360 282 LINE",
"435 337 LINE",
"341 466 LINE",
"493 515 LINE",
"465 603 LINE",
"313 554 LINE",
"313 713 LINE",
"221 713 LINE",
"221 554 LINE",
"69 603 LINE",
"40 515 LINE",
"192 466 LINE",
"98 337 LINE",
"173 282 LINE"
);
}
);
width = 533.412;
}
);
leftKerningGroup = quoteleft;
rightKerningGroup = quoteleft;
unicode = 002A;
},
{
glyphname = plus;
lastChange = "2021-02-11 22:46:17 +0000";
layers = (
{
background = {
paths = (
{
closed = 1;
nodes = (
"394 0 LINE",
"394 582 LINE",
"269 582 LINE",
"269 0 LINE"
);
},
{
closed = 1;
nodes = (
"622 234 LINE",
"622 349 LINE",
"40 349 LINE",
"40 234 LINE"
);
}
);
};
layerId = master01;
paths = (
{
closed = 1;
nodes = (
"394 0 LINE",
"394 582 LINE",
"269 582 LINE",
"269 0 LINE"
);
},
{
closed = 1;
nodes = (
"622 234 LINE",
"622 349 LINE",
"40 349 LINE",
"40 234 LINE"
);
}
);
width = 662;
}
);
leftKerningGroup = hyphen;
rightKerningGroup = hyphen;
rightMetricsKey = "=|";
unicode = 002B;
},
{
glyphname = comma;
lastChange = "2021-02-11 22:46:17 +0000";
layers = (
{
background = {
paths = (
{
closed = 1;
nodes = (
"222 -151 LINE",
"222 143 LINE",
"60 143 LINE",
"60 0 LINE",
"131 0 LINE",
"131 -151 LINE"
);
}
);
};
layerId = master01;
paths = (
{
closed = 1;
nodes = (
"222 -151 LINE",
"222 143 LINE",
"60 143 LINE",
"60 0 LINE",
"131 0 LINE",
"131 -151 LINE"
);
}
);
width = 284;
}
);
leftKerningGroup = period;
leftMetricsKey = period;
rightKerningGroup = period;
rightMetricsKey = period;
unicode = 002C;
},
{
glyphname = hyphen;
lastChange = "2021-02-11 22:46:17 +0000";
layers = (
{
background = {
paths = (
{
closed = 1;
nodes = (
"346 234 LINE",
"346 349 LINE",
"40 349 LINE",
"40 234 LINE"
);
}
);
};
layerId = master01;
paths = (
{
closed = 1;
nodes = (
"346 234 LINE",
"346 349 LINE",
"40 349 LINE",
"40 234 LINE"
);
}
);
width = 385.849;
}
);
leftKerningGroup = hyphen;
rightKerningGroup = hyphen;
rightMetricsKey = "=|";
unicode = 002D;
},
{
glyphname = period;
lastChange = "2021-02-11 22:46:17 +0000";
layers = (
{
background = {
paths = (
{
closed = 1;
nodes = (
"220 0 LINE",
"220 143 LINE",
"60 143 LINE",
"60 0 LINE"
);
}
);
};
layerId = master01;
paths = (
{
closed = 1;
nodes = (
"220 0 LINE",
"220 143 LINE",
"60 143 LINE",
"60 0 LINE"
);
}
);
width = 281.776;
}
);
leftKerningGroup = period;
rightKerningGroup = period;
unicode = 002E;
},
{
glyphname = slash;
lastChange = "2021-02-11 22:46:17 +0000";
layers = (
{
background = {
paths = (
{
closed = 1;
nodes = (
"134 -193 LINE",
"604 743 LINE",
"475 743 LINE",
"5 -193 LINE"
);
}
);
};
layerId = master01;
paths = (
{
closed = 1;
nodes = (
"134 -193 LINE",
"604 743 LINE",
"475 743 LINE",
"5 -193 LINE"
);
}
);
width = 609;
}
);
leftKerningGroup = slash;
rightKerningGroup = slash;
rightMetricsKey = "=|";
unicode = 002F;
},
{
glyphname = zero;
lastChange = "2021-02-11 22:46:35 +0000";
layers = (
{
background = {
paths = (
{
closed = 1;
nodes = (
"578 -5 LINE SMOOTH",
"836 -5 OFFCURVE",
"986 118 OFFCURVE",
"986 358 CURVE SMOOTH",
"986 597 OFFCURVE",
"836 720 OFFCURVE",
"578 720 CURVE SMOOTH",
"448 720 LINE SMOOTH",
"190 720 OFFCURVE",
"40 597 OFFCURVE",
"40 358 CURVE SMOOTH",
"40 118 OFFCURVE",
"190 -5 OFFCURVE",
"448 -5 CURVE SMOOTH"
);
},
{
closed = 1;
nodes = (
"291 125 OFFCURVE",
"203 195 OFFCURVE",
"203 358 CURVE SMOOTH",
"203 520 OFFCURVE",
"291 590 OFFCURVE",
"459 590 CURVE SMOOTH",
"567 590 LINE SMOOTH",
"735 590 OFFCURVE",
"823 520 OFFCURVE",
"823 358 CURVE SMOOTH",
"823 195 OFFCURVE",
"735 125 OFFCURVE",
"567 125 CURVE SMOOTH",
"459 125 LINE SMOOTH"
);
},
{
closed = 1;
nodes = (
"804 559 LINE",
"714 649 LINE",
"242 178 LINE",
"332 88 LINE"
);
}
);
};
layerId = master01;
paths = (
{
closed = 1;
nodes = (
"578 -5 LINE SMOOTH",
"836 -5 OFFCURVE",
"986 118 OFFCURVE",
"986 358 CURVE SMOOTH",
"986 597 OFFCURVE",
"836 720 OFFCURVE",
"578 720 CURVE SMOOTH",
"448 720 LINE SMOOTH",
"190 720 OFFCURVE",
"40 597 OFFCURVE",
"40 358 CURVE SMOOTH",
"40 118 OFFCURVE",
"190 -5 OFFCURVE",
"448 -5 CURVE SMOOTH"
);
},
{
closed = 1;
nodes = (
"291 125 OFFCURVE",
"203 195 OFFCURVE",
"203 358 CURVE SMOOTH",
"203 520 OFFCURVE",
"291 590 OFFCURVE",
"459 590 CURVE SMOOTH",
"567 590 LINE SMOOTH",
"735 590 OFFCURVE",
"823 520 OFFCURVE",
"823 358 CURVE SMOOTH",
"823 195 OFFCURVE",
"735 125 OFFCURVE",
"567 125 CURVE SMOOTH",
"459 125 LINE SMOOTH"
);
},
{
closed = 1;
nodes = (
"804 559 LINE",
"714 649 LINE",
"242 178 LINE",
"332 88 LINE"
);
}
);
width = 1026;
},
{
associatedMasterId = master01;
layerId = "542B4A2B-A07A-4BB5-B81F-18C793AF986C";
name = "Jun 12 20, 13:00";
paths = (
{
closed = 1;
nodes = (
"983 141 OFFCURVE",
"846 0 OFFCURVE",
"612 0 CURVE SMOOTH",
"401 0 LINE SMOOTH",
"167 0 OFFCURVE",
"30 141 OFFCURVE",
"30 357 CURVE SMOOTH",
"30 572 OFFCURVE",
"167 713 OFFCURVE",
"401 713 CURVE SMOOTH",
"612 713 LINE SMOOTH",
"846 713 OFFCURVE",
"983 572 OFFCURVE",
"983 357 CURVE SMOOTH"
);
},
{
closed = 1;
nodes = (
"811 426 OFFCURVE",
"795 481 OFFCURVE",
"762 519 CURVE",
"376 133 LINE",
"388 132 OFFCURVE",
"401 131 OFFCURVE",
"415 131 CURVE SMOOTH",
"598 131 LINE SMOOTH",
"741 131 OFFCURVE",
"811 214 OFFCURVE",
"811 357 CURVE SMOOTH"
);
},
{
closed = 1;
nodes = (
"625 582 OFFCURVE",
"612 582 OFFCURVE",
"598 582 CURVE SMOOTH",
"415 582 LINE SMOOTH",
"272 582 OFFCURVE",
"202 500 OFFCURVE",
"202 357 CURVE SMOOTH",
"202 288 OFFCURVE",
"218 233 OFFCURVE",
"251 194 CURVE",
"637 580 LINE"
);
}
);
width = 1012.89;
}
);
leftKerningGroup = zero;
rightKerningGroup = zero;
rightMetricsKey = "=|";
unicode = 0030;
},
{
glyphname = one;
lastChange = "2021-02-11 22:46:17 +0000";
layers = (
{
background = {
paths = (
{
closed = 1;
nodes = (
"377 0 LINE",
"377 713 LINE",
"10 713 LINE",
"10 583 LINE",
"267 583 LINE",
"222 627 LINE",
"222 0 LINE"
);
}
);
};
layerId = master01;
paths = (
{
closed = 1;
nodes = (
"377 0 LINE",
"377 713 LINE",
"10 713 LINE",
"10 583 LINE",
"267 583 LINE",
"222 627 LINE",
"222 0 LINE"
);
}
);
width = 447;
}
);
leftKerningGroup = one;
rightKerningGroup = one;
rightMetricsKey = H;
unicode = 0031;
},
{
glyphname = two;
lastChange = "2021-02-11 22:46:17 +0000";
layers = (
{
background = {
paths = (
{
closed = 1;
nodes = (
"809 0 LINE",
"809 129 LINE",
"185 129 LINE",
"185 210 LINE SMOOTH",
"185 262 OFFCURVE",
"213 292 OFFCURVE",
"271 292 CURVE SMOOTH",
"609 292 LINE SMOOTH",
"747 292 OFFCURVE",
"828 371 OFFCURVE",
"828 503 CURVE SMOOTH",
"828 635 OFFCURVE",
"747 714 OFFCURVE",
"609 714 CURVE SMOOTH",
"46 714 LINE",
"46 584 LINE",
"578 584 LINE SMOOTH",
"641 584 OFFCURVE",
"673 555 OFFCURVE",
"673 503 CURVE SMOOTH",
"673 450 OFFCURVE",
"641 422 OFFCURVE",
"578 422 CURVE SMOOTH",
"249 422 LINE SMOOTH",
"106 422 OFFCURVE",
"30 345 OFFCURVE",
"30 212 CURVE SMOOTH",
"30 0 LINE"
);
}
);
};
layerId = master01;
paths = (
{
closed = 1;
nodes = (
"809 0 LINE",
"809 129 LINE",
"185 129 LINE",
"185 210 LINE SMOOTH",
"185 262 OFFCURVE",
"213 292 OFFCURVE",
"271 292 CURVE SMOOTH",
"609 292 LINE SMOOTH",
"747 292 OFFCURVE",
"828 371 OFFCURVE",
"828 503 CURVE SMOOTH",
"828 635 OFFCURVE",
"747 714 OFFCURVE",
"609 714 CURVE SMOOTH",
"46 714 LINE",
"46 584 LINE",
"578 584 LINE SMOOTH",
"641 584 OFFCURVE",
"673 555 OFFCURVE",
"673 503 CURVE SMOOTH",
"673 450 OFFCURVE",
"641 422 OFFCURVE",
"578 422 CURVE SMOOTH",
"249 422 LINE SMOOTH",
"106 422 OFFCURVE",
"30 345 OFFCURVE",
"30 212 CURVE SMOOTH",
"30 0 LINE"
);
}
);
width = 858;
}
);
leftKerningGroup = two;
leftMetricsKey = "=|five";
rightKerningGroup = two;
rightMetricsKey = five;
unicode = 0032;
},
{
glyphname = three;
lastChange = "2021-02-12 00:54:17 +0000";
layers = (
{
background = {
paths = (
{
closed = 1;
nodes = (
"609 0 LINE SMOOTH",
"747 0 OFFCURVE",
"828 79 OFFCURVE",
"828 201 CURVE SMOOTH",
"828 272 OFFCURVE",
"803 336 OFFCURVE",
"737 363 CURVE",
"737 355 LINE",
"803 381 OFFCURVE",
"828 449 OFFCURVE",
"828 519 CURVE SMOOTH",
"828 642 OFFCURVE",
"747 714 OFFCURVE",
"609 714 CURVE",
"30 714 LINE",
"30 584 LINE",
"579 584 LINE SMOOTH",
"631 584 OFFCURVE",
"656 556 OFFCURVE",
"656 504 CURVE SMOOTH",
"656 451 OFFCURVE",
"631 423 OFFCURVE",
"579 423 CURVE",
"124 423 LINE",
"124 294 LINE",
"580 294 LINE SMOOTH",
"631 294 OFFCURVE",
"656 263 OFFCURVE",
"656 211 CURVE SMOOTH",
"656 160 OFFCURVE",
"631 130 OFFCURVE",
"580 130 CURVE SMOOTH",
"30 130 LINE",
"30 0 LINE"
);
}
);
};
layerId = master01;
paths = (
{
closed = 1;
nodes = (
"609 0 LINE SMOOTH",
"747 0 OFFCURVE",
"828 79 OFFCURVE",
"828 201 CURVE SMOOTH",
"828 272 OFFCURVE",
"803 336 OFFCURVE",
"737 363 CURVE",
"737 355 LINE",
"803 381 OFFCURVE",
"828 449 OFFCURVE",
"828 519 CURVE SMOOTH",
"828 642 OFFCURVE",
"747 714 OFFCURVE",
"609 714 CURVE",
"30 714 LINE",
"30 584 LINE",
"579 584 LINE SMOOTH",
"631 584 OFFCURVE",
"656 556 OFFCURVE",
"656 504 CURVE SMOOTH",
"656 451 OFFCURVE",
"631 423 OFFCURVE",
"579 423 CURVE SMOOTH",
"124 423 LINE",
"124 294 LINE",
"580 294 LINE SMOOTH",
"631 294 OFFCURVE",
"656 263 OFFCURVE",
"656 211 CURVE SMOOTH",
"656 160 OFFCURVE",
"631 130 OFFCURVE",
"580 130 CURVE SMOOTH",
"30 130 LINE",
"30 0 LINE"
);
}
);
width = 858;
}
);
leftKerningGroup = three;
rightKerningGroup = three;
rightMetricsKey = five;
unicode = 0033;
},
{
glyphname = four;
lastChange = "2021-02-11 22:46:17 +0000";
layers = (
{
background = {
paths = (
{
closed = 1;
nodes = (
"940 131 LINE",
"940 261 LINE",
"189 261 LINE",
"203 228 LINE",
"613 714 LINE",
"416 714 LINE",
"40 262 LINE",
"40 131 LINE"
);
},
{
closed = 1;
nodes = (
"772 0 LINE",
"772 425 LINE",
"617 425 LINE",
"617 0 LINE"
);
}
);
};
layerId = master01;
paths = (
{
closed = 1;
nodes = (
"940 131 LINE",
"940 261 LINE",
"189 261 LINE",
"203 228 LINE",
"613 714 LINE",
"416 714 LINE",
"40 262 LINE",
"40 131 LINE"
);
},
{
closed = 1;
nodes = (
"772 0 LINE",
"772 425 LINE",
"617 425 LINE",
"617 0 LINE"
);
}
);
width = 965;
}
);
leftKerningGroup = four;
rightKerningGroup = four;
unicode = 0034;
},
{
glyphname = five;
lastChange = "2021-02-12 00:54:27 +0000";
layers = (
{
background = {
paths = (
{
closed = 1;
nodes = (
"632 0 LINE SMOOTH",
"770 0 OFFCURVE",
"851 79 OFFCURVE",
"851 211 CURVE SMOOTH",
"851 343 OFFCURVE",
"770 422 OFFCURVE",
"632 422 CURVE",
"225 422 LINE",
"225 585 LINE",
"822 585 LINE",
"822 714 LINE",
"70 714 LINE",
"70 292 LINE",
"601 292 LINE",
"664 292 OFFCURVE",
"696 264 OFFCURVE",
"696 211 CURVE SMOOTH",
"696 159 OFFCURVE",
"664 130 OFFCURVE",
"601 130 CURVE SMOOTH",
"70 130 LINE",
"70 0 LINE"
);
}
);
};
layerId = master01;
paths = (
{
closed = 1;
nodes = (
"632 0 LINE SMOOTH",
"770 0 OFFCURVE",
"851 79 OFFCURVE",
"851 211 CURVE SMOOTH",
"851 343 OFFCURVE",
"770 422 OFFCURVE",
"632 422 CURVE SMOOTH",
"225 422 LINE",
"225 585 LINE",
"822 585 LINE",
"822 714 LINE",
"70 714 LINE",
"70 292 LINE",
"601 292 LINE SMOOTH",
"664 292 OFFCURVE",
"696 264 OFFCURVE",
"696 211 CURVE SMOOTH",
"696 159 OFFCURVE",
"664 130 OFFCURVE",
"601 130 CURVE SMOOTH",
"70 130 LINE",
"70 0 LINE"
);
}
);
width = 881;
}
);
leftKerningGroup = five;
leftMetricsKey = H;
rightKerningGroup = five;
rightMetricsKey = six;
unicode = 0035;
},
{
glyphname = six;
lastChange = "2021-02-11 22:46:17 +0000";
layers = (
{
background = {
paths = (
{
closed = 1;
nodes = (
"675 -1 LINE SMOOTH",
"823 -1 OFFCURVE",
"914 77 OFFCURVE",
"914 212 CURVE SMOOTH",
"914 343 OFFCURVE",
"823 421 OFFCURVE",
"675 421 CURVE SMOOTH",
"132 421 LINE",
"132 291 LINE",
"644 291 LINE SMOOTH",
"717 291 OFFCURVE",
"759 264 OFFCURVE",
"759 211 CURVE SMOOTH",
"759 156 OFFCURVE",
"717 129 OFFCURVE",
"644 129 CURVE SMOOTH",
"379 129 LINE SMOOTH",
"261 129 OFFCURVE",
"203 208 OFFCURVE",
"203 358 CURVE SMOOTH",
"203 527 OFFCURVE",
"291 585 OFFCURVE",
"459 585 CURVE SMOOTH",
"851 585 LINE",
"851 715 LINE",
"448 715 LINE SMOOTH",
"190 715 OFFCURVE",
"40 604 OFFCURVE",
"40 358 CURVE SMOOTH",
"40 131 OFFCURVE",
"160 -1 OFFCURVE",
"368 -1 CURVE SMOOTH"
);
}
);
};
layerId = master01;
paths = (
{
closed = 1;
nodes = (
"675 -1 LINE SMOOTH",
"823 -1 OFFCURVE",
"914 77 OFFCURVE",
"914 212 CURVE SMOOTH",
"914 343 OFFCURVE",
"823 421 OFFCURVE",
"675 421 CURVE SMOOTH",
"132 421 LINE",
"132 291 LINE",
"644 291 LINE SMOOTH",
"717 291 OFFCURVE",
"759 264 OFFCURVE",
"759 211 CURVE SMOOTH",
"759 156 OFFCURVE",
"717 129 OFFCURVE",
"644 129 CURVE SMOOTH",
"379 129 LINE SMOOTH",
"261 129 OFFCURVE",
"203 208 OFFCURVE",
"203 358 CURVE SMOOTH",
"203 527 OFFCURVE",
"291 585 OFFCURVE",
"459 585 CURVE SMOOTH",
"851 585 LINE",
"851 715 LINE",
"448 715 LINE SMOOTH",
"190 715 OFFCURVE",
"40 604 OFFCURVE",
"40 358 CURVE SMOOTH",
"40 131 OFFCURVE",
"160 -1 OFFCURVE",
"368 -1 CURVE SMOOTH"
);
}
);
width = 944;
},
{
associatedMasterId = master01;
background = {
paths = (
{
closed = 1;
nodes = (
"904 84 OFFCURVE",
"823 0 OFFCURVE",
"685 0 CURVE SMOOTH",
"401 0 LINE SMOOTH",
"167 0 OFFCURVE",
"30 141 OFFCURVE",
"30 356 CURVE SMOOTH",
"30 572 OFFCURVE",
"167 713 OFFCURVE",
"401 713 CURVE SMOOTH",
"841 713 LINE",
"841 581 LINE",
"415 581 LINE SMOOTH",
"295 581 OFFCURVE",
"226 524 OFFCURVE",
"207 421 CURVE",
"685 421 LINE SMOOTH",
"823 421 OFFCURVE",
"904 338 OFFCURVE",
"904 211 CURVE SMOOTH"
);
},
{
closed = 1;
nodes = (
"733 264 OFFCURVE",
"707 290 OFFCURVE",
"654 290 CURVE SMOOTH",
"207 290 LINE",
"227 188 OFFCURVE",
"297 131 OFFCURVE",
"417 131 CURVE SMOOTH",
"654 131 LINE SMOOTH",
"707 131 OFFCURVE",
"733 159 OFFCURVE",
"733 211 CURVE SMOOTH"
);
}
);
};
layerId = "9CA81CAC-52A8-48C1-A2CE-E03F6A832DCF";
name = "Aug 23 20, 09:12";
paths = (
{
closed = 1;
nodes = (
"904 84 OFFCURVE",
"823 0 OFFCURVE",
"685 0 CURVE SMOOTH",
"401 0 LINE SMOOTH",
"167 0 OFFCURVE",
"30 141 OFFCURVE",
"30 356 CURVE SMOOTH",
"30 572 OFFCURVE",
"167 713 OFFCURVE",
"401 713 CURVE SMOOTH",
"841 713 LINE",
"841 581 LINE",
"415 581 LINE SMOOTH",
"295 581 OFFCURVE",
"226 524 OFFCURVE",
"207 421 CURVE",
"685 421 LINE SMOOTH",
"823 421 OFFCURVE",
"904 338 OFFCURVE",
"904 211 CURVE SMOOTH"
);
},
{
closed = 1;
nodes = (
"733 264 OFFCURVE",
"707 290 OFFCURVE",
"654 290 CURVE SMOOTH",
"207 290 LINE",
"227 188 OFFCURVE",
"297 131 OFFCURVE",
"417 131 CURVE SMOOTH",
"654 131 LINE SMOOTH",
"707 131 OFFCURVE",
"733 159 OFFCURVE",
"733 211 CURVE SMOOTH"
);
}
);
width = 934.243;
}
);
leftKerningGroup = six;
leftMetricsKey = zero;
rightKerningGroup = six;
unicode = 0036;
},
{
glyphname = seven;
lastChange = "2021-02-11 22:46:17 +0000";
layers = (
{
background = {
paths = (
{
closed = 1;
nodes = (
"362 0 LINE",
"845 582 LINE",
"845 713 LINE",
"35 713 LINE",
"35 583 LINE",
"683 583 LINE",
"681 617 LINE",
"169 0 LINE"
);
}
);
};
layerId = master01;
paths = (
{
closed = 1;
nodes = (
"362 0 LINE",
"845 582 LINE",
"845 713 LINE",
"35 713 LINE",
"35 583 LINE",
"683 583 LINE",
"681 617 LINE",
"169 0 LINE"
);
}
);
width = 860;
},
{
associatedMasterId = master01;
layerId = "9925C308-E441-47D8-A806-37B732C3E5BE";
name = "Aug 23 20, 09:18";
paths = (
{
closed = 1;
nodes = (
"347 0 LINE",
"142 0 LINE",
"623 582 LINE",
"20 582 LINE",
"20 713 LINE",
"830 713 LINE",
"830 582 LINE"
);
}
);
width = 859.927;
}
);
leftKerningGroup = seven;
rightKerningGroup = seven;
unicode = 0037;
},
{
glyphname = eight;
lastChange = "2021-02-11 22:46:17 +0000";
layers = (
{
background = {
paths = (
{
closed = 1;
nodes = (
"723 0 LINE SMOOTH",
"861 0 OFFCURVE",
"942 84 OFFCURVE",
"942 211 CURVE SMOOTH",
"942 277 OFFCURVE",
"921 332 OFFCURVE",
"881 370 CURVE",
"908 405 OFFCURVE",
"922 451 OFFCURVE",
"922 505 CURVE SMOOTH",
"922 632 OFFCURVE",
"842 714 OFFCURVE",
"703 714 CURVE SMOOTH",
"309 714 LINE SMOOTH",
"171 714 OFFCURVE",
"90 632 OFFCURVE",
"90 505 CURVE SMOOTH",
"90 451 OFFCURVE",
"104 405 OFFCURVE",
"131 370 CURVE",
"92 332 OFFCURVE",
"70 277 OFFCURVE",
"70 211 CURVE SMOOTH",
"70 84 OFFCURVE",
"151 0 OFFCURVE",
"289 0 CURVE SMOOTH"
);
},
{
closed = 1;
nodes = (
"267 131 OFFCURVE",
"242 160 OFFCURVE",
"242 212 CURVE SMOOTH",
"242 265 OFFCURVE",
"267 294 OFFCURVE",
"320 294 CURVE SMOOTH",
"692 294 LINE SMOOTH",
"745 294 OFFCURVE",
"771 265 OFFCURVE",
"771 212 CURVE SMOOTH",
"771 160 OFFCURVE",
"745 131 OFFCURVE",
"692 131 CURVE SMOOTH",
"320 131 LINE SMOOTH"
);
},
{
closed = 1;
nodes = (
"287 426 OFFCURVE",
"261 453 OFFCURVE",
"261 506 CURVE SMOOTH",
"261 558 OFFCURVE",
"287 582 OFFCURVE",
"340 582 CURVE SMOOTH",
"672 582 LINE SMOOTH",
"725 582 OFFCURVE",
"751 558 OFFCURVE",
"751 506 CURVE SMOOTH",
"751 453 OFFCURVE",
"725 426 OFFCURVE",
"672 426 CURVE SMOOTH",
"340 426 LINE SMOOTH"
);
}
);
};
layerId = master01;
paths = (
{
closed = 1;
nodes = (
"723 0 LINE SMOOTH",
"861 0 OFFCURVE",
"942 84 OFFCURVE",
"942 211 CURVE SMOOTH",
"942 277 OFFCURVE",
"921 332 OFFCURVE",
"881 370 CURVE",
"908 405 OFFCURVE",
"922 451 OFFCURVE",
"922 505 CURVE SMOOTH",
"922 632 OFFCURVE",
"842 714 OFFCURVE",
"703 714 CURVE SMOOTH",
"309 714 LINE SMOOTH",
"171 714 OFFCURVE",
"90 632 OFFCURVE",
"90 505 CURVE SMOOTH",
"90 451 OFFCURVE",
"104 405 OFFCURVE",
"131 370 CURVE",
"92 332 OFFCURVE",
"70 277 OFFCURVE",
"70 211 CURVE SMOOTH",
"70 84 OFFCURVE",
"151 0 OFFCURVE",
"289 0 CURVE SMOOTH"
);
},
{
closed = 1;
nodes = (
"267 131 OFFCURVE",
"242 160 OFFCURVE",
"242 212 CURVE SMOOTH",
"242 265 OFFCURVE",
"267 294 OFFCURVE",
"320 294 CURVE SMOOTH",
"692 294 LINE SMOOTH",
"745 294 OFFCURVE",
"771 265 OFFCURVE",
"771 212 CURVE SMOOTH",
"771 160 OFFCURVE",
"745 131 OFFCURVE",
"692 131 CURVE SMOOTH",
"320 131 LINE SMOOTH"
);
},
{
closed = 1;
nodes = (
"287 426 OFFCURVE",
"261 453 OFFCURVE",
"261 506 CURVE SMOOTH",
"261 558 OFFCURVE",
"287 582 OFFCURVE",
"340 582 CURVE SMOOTH",
"672 582 LINE SMOOTH",
"725 582 OFFCURVE",
"751 558 OFFCURVE",
"751 506 CURVE SMOOTH",
"751 453 OFFCURVE",
"725 426 OFFCURVE",
"672 426 CURVE SMOOTH",
"340 426 LINE SMOOTH"
);
}
);
width = 1012;
}
);
leftKerningGroup = eight;
leftMetricsKey = H;
rightKerningGroup = eight;
rightMetricsKey = H;
unicode = 0038;
},
{
glyphname = nine;
lastChange = "2021-02-11 22:46:17 +0000";
layers = (
{
background = {
paths = (
{
closed = 1;
nodes = (
"533 0 LINE SMOOTH",
"767 0 OFFCURVE",
"904 142 OFFCURVE",
"904 357 CURVE SMOOTH",
"904 573 OFFCURVE",
"767 713 OFFCURVE",
"533 713 CURVE SMOOTH",
"249 713 LINE SMOOTH",
"111 713 OFFCURVE",
"30 630 OFFCURVE",
"30 502 CURVE SMOOTH",
"30 375 OFFCURVE",
"111 293 OFFCURVE",
"249 293 CURVE SMOOTH",
"727 293 LINE",
"708 190 OFFCURVE",
"639 132 OFFCURVE",
"519 132 CURVE SMOOTH",
"93 132 LINE",
"93 0 LINE"
);
},
{
closed = 1;
nodes = (
"227 423 OFFCURVE",
"202 450 OFFCURVE",
"202 502 CURVE SMOOTH",
"202 555 OFFCURVE",
"227 582 OFFCURVE",
"280 582 CURVE SMOOTH",
"517 582 LINE SMOOTH",
"637 582 OFFCURVE",
"707 525 OFFCURVE",
"727 423 CURVE",
"280 423 LINE SMOOTH"
);
}
);
};
layerId = master01;
paths = (
{
closed = 1;
nodes = (
"533 0 LINE SMOOTH",
"767 0 OFFCURVE",
"904 142 OFFCURVE",
"904 357 CURVE SMOOTH",
"904 573 OFFCURVE",
"767 713 OFFCURVE",
"533 713 CURVE SMOOTH",
"249 713 LINE SMOOTH",
"111 713 OFFCURVE",
"30 630 OFFCURVE",
"30 502 CURVE SMOOTH",
"30 375 OFFCURVE",
"111 293 OFFCURVE",
"249 293 CURVE SMOOTH",
"727 293 LINE",
"708 190 OFFCURVE",
"639 132 OFFCURVE",
"519 132 CURVE SMOOTH",
"93 132 LINE",
"93 0 LINE"
);
},
{
closed = 1;
nodes = (
"227 423 OFFCURVE",
"202 450 OFFCURVE",
"202 502 CURVE SMOOTH",
"202 555 OFFCURVE",
"227 582 OFFCURVE",
"280 582 CURVE SMOOTH",
"517 582 LINE SMOOTH",
"637 582 OFFCURVE",
"707 525 OFFCURVE",
"727 423 CURVE",
"280 423 LINE SMOOTH"
);
}
);
width = 944;
}
);
leftKerningGroup = nine;
leftMetricsKey = "=|six";
rightKerningGroup = nine;
rightMetricsKey = "=|six";
unicode = 0039;
},
{
glyphname = less;
lastChange = "2021-02-11 22:46:17 +0000";
layers = (
{
background = {
paths = (
{
closed = 1;
nodes = (
"717 142 LINE",
"155 310 LINE",
"155 273 LINE",
"717 440 LINE",
"717 562 LINE",
"40 349 LINE",
"40 234 LINE",
"717 20 LINE"
);
}
);
};
layerId = master01;
paths = (
{
closed = 1;
nodes = (
"717 142 LINE",
"155 310 LINE",
"155 273 LINE",
"717 440 LINE",
"717 562 LINE",
"40 349 LINE",
"40 234 LINE",
"717 20 LINE"
);
}
);
width = 757;
},
{
associatedMasterId = master01;
background = {
paths = (
{
closed = 1;
nodes = (
"30 239 LINE",
"30 343 LINE",
"707 582 LINE",
"707 460 LINE",
"188 291 LINE",
"707 122 LINE",
"707 0 LINE"
);
}
);
};
layerId = "032E4E73-25F3-4561-BAAF-AEB54B275762";
name = "Aug 23 20, 09:37";
paths = (
{
closed = 1;
nodes = (
"30 194 LINE",
"30 206 LINE",
"30 309 LINE",
"30 320 LINE",
"707 531 LINE",
"707 409 LINE",
"188 257 LINE",
"707 107 LINE",
"707 -15 LINE"
);
}
);
width = 757.254;
}
);
leftKerningGroup = hyphen;
leftMetricsKey = plus;
rightKerningGroup = H;
rightMetricsKey = plus;
unicode = 003C;
},
{
glyphname = equal;
lastChange = "2021-02-11 22:46:17 +0000";
layers = (
{
background = {
components = (
{
name = minus;
transform = "{1, 0, 0, 1, 0, 116}";
},
{
name = minus;
transform = "{1, 0, 0, 1, 0, -116}";
}
);
};
components = (
{
name = minus;
transform = "{1, 0, 0, 1, 0, 116}";
},
{
name = minus;
transform = "{1, 0, 0, 1, 0, -116}";
}
);
layerId = master01;
width = 662;
},
{
associatedMasterId = master01;
layerId = "BE064EB8-8BFE-4CA3-A071-E3FE7EF87453";
name = "Aug 23 20, 09:38";
paths = (
{
closed = 1;
nodes = (
"40 315 LINE",
"40 431 LINE",
"622 431 LINE",
"622 315 LINE"
);
},
{
closed = 1;
nodes = (
"40 84 LINE",
"40 199 LINE",
"622 199 LINE",
"622 84 LINE"
);
}
);
width = 662.133;
}
);
leftKerningGroup = hyphen;
leftMetricsKey = plus;
rightKerningGroup = hyphen;
rightMetricsKey = plus;
unicode = 003D;
},
{
glyphname = greater;
lastChange = "2021-02-11 22:46:17 +0000";
layers = (
{
background = {
components = (
{
name = less;
transform = "{-1, 0, 0, -1, 757, 582}";
}
);
};
components = (
{
name = less;
transform = "{-1, 0, 0, -1, 757, 582}";
}
);
layerId = master01;
width = 757;
},
{
associatedMasterId = master01;
layerId = "72644618-2781-40C7-B802-50D78DB9A6AA";
name = "Aug 23 20, 09:39";
paths = (
{
closed = 1;
nodes = (
"50 -15 LINE",
"50 107 LINE",
"569 257 LINE",
"50 409 LINE",
"50 531 LINE",
"727 320 LINE",
"727 309 LINE",
"727 206 LINE",
"727 194 LINE"
);
}
);
width = 767.255;
}
);
leftKerningGroup = H;
leftMetricsKey = plus;
rightKerningGroup = hyphen;
rightMetricsKey = plus;
unicode = 003E;
},
{
glyphname = question;
lastChange = "2021-02-11 22:46:17 +0000";
layers = (
{
background = {
components = (
{
name = period;
transform = "{1, 0, 0, 1, 10, 0}";
}
);
paths = (
{
closed = 1;
nodes = (
"230 211 LINE",
"230 336 LINE",
"187 291 LINE",
"466 291 LINE SMOOTH",
"604 291 OFFCURVE",
"685 376 OFFCURVE",
"685 503 CURVE SMOOTH",
"685 630 OFFCURVE",
"604 713 OFFCURVE",
"466 713 CURVE SMOOTH",
"70 713 LINE",
"70 583 LINE",
"446 583 LINE SMOOTH",
"497 583 OFFCURVE",
"522 555 OFFCURVE",
"522 502 CURVE SMOOTH",
"522 450 OFFCURVE",
"497 421 OFFCURVE",
"446 421 CURVE SMOOTH",
"70 421 LINE",
"70 211 LINE"
);
}
);
};
components = (
{
name = period;
transform = "{1, 0, 0, 1, 10, 0}";
}
);
layerId = master01;
paths = (
{
closed = 1;
nodes = (
"230 211 LINE",
"230 336 LINE",
"187 291 LINE",
"466 291 LINE SMOOTH",
"604 291 OFFCURVE",
"685 376 OFFCURVE",
"685 503 CURVE SMOOTH",
"685 630 OFFCURVE",
"604 713 OFFCURVE",
"466 713 CURVE SMOOTH",
"70 713 LINE",
"70 583 LINE",
"446 583 LINE SMOOTH",
"497 583 OFFCURVE",
"522 555 OFFCURVE",
"522 502 CURVE SMOOTH",
"522 450 OFFCURVE",
"497 421 OFFCURVE",
"446 421 CURVE SMOOTH",
"70 421 LINE",
"70 211 LINE"
);
}
);
width = 715;
}
);
leftKerningGroup = question;
leftMetricsKey = H;
rightKerningGroup = question;
unicode = 003F;
},
{
glyphname = at;
lastChange = "2021-02-11 22:46:17 +0000";
layers = (
{
background = {
paths = (
{
closed = 1;
nodes = (
"752 -130 LINE",
"752 -30 LINE",
"444 -30 LINE SMOOTH",
"249 -30 OFFCURVE",
"153 77 OFFCURVE",
"153 272 CURVE SMOOTH",
"153 468 OFFCURVE",
"249 575 OFFCURVE",
"444 575 CURVE SMOOTH",
"739 575 LINE SMOOTH",
"931 575 OFFCURVE",
"1030 504 OFFCURVE",
"1030 341 CURVE SMOOTH",
"1030 224 OFFCURVE",
"978 155 OFFCURVE",
"876 153 CURVE",
"876 357 LINE SMOOTH",
"876 436 OFFCURVE",
"832 490 OFFCURVE",
"733 490 CURVE SMOOTH",
"342 490 LINE",
"342 392 LINE",
"701 392 LINE SMOOTH",
"736 392 OFFCURVE",
"752 376 OFFCURVE",
"752 341 CURVE SMOOTH",
"752 321 LINE",
"432 321 LINE SMOOTH",
"336 321 OFFCURVE",
"286 273 OFFCURVE",
"286 188 CURVE SMOOTH",
"286 103 OFFCURVE",
"336 55 OFFCURVE",
"432 55 CURVE SMOOTH",
"876 55 LINE SMOOTH",
"1054 55 OFFCURVE",
"1153 172 OFFCURVE",
"1153 341 CURVE SMOOTH",
"1153 553 OFFCURVE",
"996 675 OFFCURVE",
"735 675 CURVE SMOOTH",
"448 675 LINE SMOOTH",
"184 675 OFFCURVE",
"30 516 OFFCURVE",
"30 272 CURVE SMOOTH",
"30 29 OFFCURVE",
"184 -130 OFFCURVE",
"448 -130 CURVE SMOOTH"
);
},
{
closed = 1;
nodes = (
"427 153 OFFCURVE",
"415 167 OFFCURVE",
"415 188 CURVE SMOOTH",
"415 210 OFFCURVE",
"427 224 OFFCURVE",
"459 224 CURVE SMOOTH",
"752 224 LINE",
"752 153 LINE",
"459 153 LINE SMOOTH"
);
}
);
};
layerId = master01;
paths = (
{
closed = 1;
nodes = (
"752 -130 LINE",
"752 -30 LINE",
"444 -30 LINE SMOOTH",
"249 -30 OFFCURVE",
"153 77 OFFCURVE",
"153 272 CURVE SMOOTH",
"153 468 OFFCURVE",
"249 575 OFFCURVE",
"444 575 CURVE SMOOTH",
"739 575 LINE SMOOTH",
"931 575 OFFCURVE",
"1030 504 OFFCURVE",
"1030 341 CURVE SMOOTH",
"1030 224 OFFCURVE",
"978 155 OFFCURVE",
"876 153 CURVE",
"876 357 LINE SMOOTH",
"876 436 OFFCURVE",
"832 490 OFFCURVE",
"733 490 CURVE SMOOTH",
"342 490 LINE",
"342 392 LINE",
"701 392 LINE SMOOTH",
"736 392 OFFCURVE",
"752 376 OFFCURVE",
"752 341 CURVE SMOOTH",
"752 321 LINE",
"432 321 LINE SMOOTH",
"336 321 OFFCURVE",
"286 273 OFFCURVE",
"286 188 CURVE SMOOTH",
"286 103 OFFCURVE",
"336 55 OFFCURVE",
"432 55 CURVE SMOOTH",
"876 55 LINE SMOOTH",
"1054 55 OFFCURVE",
"1153 172 OFFCURVE",
"1153 341 CURVE SMOOTH",
"1153 553 OFFCURVE",
"996 675 OFFCURVE",
"735 675 CURVE SMOOTH",
"448 675 LINE SMOOTH",
"184 675 OFFCURVE",
"30 516 OFFCURVE",
"30 272 CURVE SMOOTH",
"30 29 OFFCURVE",
"184 -130 OFFCURVE",
"448 -130 CURVE SMOOTH"
);
},
{
closed = 1;
nodes = (
"427 153 OFFCURVE",
"415 167 OFFCURVE",
"415 188 CURVE SMOOTH",
"415 210 OFFCURVE",
"427 224 OFFCURVE",
"459 224 CURVE SMOOTH",
"752 224 LINE",
"752 153 LINE",
"459 153 LINE SMOOTH"
);
}
);
width = 1183.24;
},
{
associatedMasterId = master01;
layerId = "710CF1AA-4C5C-4E47-80BF-65C6BAC5F710";
name = "Aug 23 20, 09:40";
paths = (
{
closed = 1;
nodes = (
"1153 252 OFFCURVE",
"1054 135 OFFCURVE",
"876 135 CURVE SMOOTH",
"422 135 LINE SMOOTH",
"336 135 OFFCURVE",
"286 183 OFFCURVE",
"286 268 CURVE SMOOTH",
"286 353 OFFCURVE",
"336 401 OFFCURVE",
"422 401 CURVE SMOOTH",
"752 401 LINE",
"752 421 LINE SMOOTH",
"752 456 OFFCURVE",
"736 472 OFFCURVE",
"701 472 CURVE SMOOTH",
"342 472 LINE",
"342 570 LINE",
"733 570 LINE SMOOTH",
"832 570 OFFCURVE",
"876 516 OFFCURVE",
"876 437 CURVE SMOOTH",
"876 233 LINE",
"978 235 OFFCURVE",
"1030 304 OFFCURVE",
"1030 421 CURVE SMOOTH",
"1030 584 OFFCURVE",
"931 656 OFFCURVE",
"739 656 CURVE SMOOTH",
"444 656 LINE SMOOTH",
"249 656 OFFCURVE",
"153 548 OFFCURVE",
"153 352 CURVE SMOOTH",
"153 157 OFFCURVE",
"249 49 OFFCURVE",
"444 49 CURVE SMOOTH",
"752 49 LINE",
"752 -50 LINE",
"448 -50 LINE SMOOTH",
"184 -50 OFFCURVE",
"30 109 OFFCURVE",
"30 352 CURVE SMOOTH",
"30 596 OFFCURVE",
"184 755 OFFCURVE",
"448 755 CURVE SMOOTH",
"735 755 LINE SMOOTH",
"996 755 OFFCURVE",
"1153 633 OFFCURVE",
"1153 421 CURVE SMOOTH"
);
},
{
closed = 1;
nodes = (
"752 304 LINE",
"449 304 LINE SMOOTH",
"427 304 OFFCURVE",
"415 290 OFFCURVE",
"415 268 CURVE SMOOTH",
"415 247 OFFCURVE",
"427 233 OFFCURVE",
"449 233 CURVE SMOOTH",
"752 233 LINE"
);
}
);
width = 1183.24;
}
);
leftKerningGroup = O;
leftMetricsKey = O;
rightKerningGroup = O;
rightMetricsKey = O;
unicode = 0040;
},
{
glyphname = A;
lastChange = "2021-02-11 22:46:17 +0000";
layers = (
{
anchors = (
{
name = bottom;
position = "{456, 0}";
},
{
name = ogonek;
position = "{820, 10}";
},
{
name = top;
position = "{456, 715}";
}
);
background = {
anchors = (
{
name = bottom;
position = "{456, 0}";
},
{
name = ogonek;
position = "{820, 10}";
},
{
name = top;
position = "{456, 715}";
}
);
paths = (
{
closed = 1;
nodes = (
"184 0 LINE",
"465 626 LINE",
"377 590 LINE",
"534 590 LINE",
"446 626 LINE",
"727 0 LINE",
"901 0 LINE",
"579 715 LINE",
"332 715 LINE",
"10 0 LINE"
);
},
{
closed = 1;
nodes = (
"737 151 LINE",
"676 281 LINE",
"204 281 LINE",
"143 151 LINE"
);
}
);
};
layerId = master01;
paths = (
{
closed = 1;
nodes = (
"184 0 LINE",
"465 626 LINE",
"377 590 LINE",
"534 590 LINE",
"446 626 LINE",
"727 0 LINE",
"901 0 LINE",
"579 715 LINE",
"332 715 LINE",
"10 0 LINE"
);
},
{
closed = 1;
nodes = (
"737 151 LINE",
"676 281 LINE",
"204 281 LINE",
"143 151 LINE"
);
}
);
width = 911;
}
);
leftKerningGroup = A;
rightKerningGroup = A;
rightMetricsKey = "=|";
unicode = 0041;
},
{
glyphname = B;
lastChange = "2021-03-10 16:37:54 +0000";
layers = (
{
anchors = (
{
name = bottom;
position = "{488, 0}";
},
{
name = top;
position = "{488, 715}";
}
);
background = {
anchors = (
{
name = bottom;
position = "{488, 0}";
},
{
name = top;
position = "{488, 715}";
}
);
paths = (
{
closed = 1;
nodes = (
"692 1 LINE SMOOTH",
"851 1 OFFCURVE",
"926 72 OFFCURVE",
"926 207 CURVE SMOOTH",
"926 312 OFFCURVE",
"883 364 OFFCURVE",
"786 395 CURVE",
"786 345 LINE",
"868 375 OFFCURVE",
"906 426 OFFCURVE",
"906 517 CURVE SMOOTH",
"906 649 OFFCURVE",
"831 715 OFFCURVE",
"672 715 CURVE SMOOTH",
"70 713 LINE",
"70 0 LINE"
);
},
{
closed = 1;
nodes = (
"230 343 LINE",
"187 299 LINE",
"673 299 LINE SMOOTH",
"734 299 OFFCURVE",
"764 272 OFFCURVE",
"764 215 CURVE SMOOTH",
"764 158 OFFCURVE",
"734 129 OFFCURVE",
"673 129 CURVE SMOOTH",
"187 129 LINE",
"230 86 LINE"
);
},
{
closed = 1;
nodes = (
"230 627 LINE",
"187 586 LINE",
"653 587 LINE SMOOTH",
"713 587 OFFCURVE",
"744 562 OFFCURVE",
"744 509 CURVE SMOOTH",
"744 456 OFFCURVE",
"713 427 OFFCURVE",
"653 427 CURVE SMOOTH",
"202 428 LINE",
"230 384 LINE"
);
}
);
};
layerId = master01;
paths = (
{
closed = 1;
nodes = (
"692 1 LINE SMOOTH",
"851 1 OFFCURVE",
"926 72 OFFCURVE",
"926 207 CURVE SMOOTH",
"926 312 OFFCURVE",
"883 364 OFFCURVE",
"786 395 CURVE",
"786 345 LINE",
"868 375 OFFCURVE",
"906 426 OFFCURVE",
"906 517 CURVE SMOOTH",
"906 649 OFFCURVE",
"831 715 OFFCURVE",
"672 715 CURVE SMOOTH",
"70 713 LINE",
"70 0 LINE"
);
},
{
closed = 1;
nodes = (
"230 343 LINE",
"187 299 LINE",
"673 299 LINE SMOOTH",
"734 299 OFFCURVE",
"764 272 OFFCURVE",
"764 215 CURVE SMOOTH",
"764 158 OFFCURVE",
"734 129 OFFCURVE",
"673 129 CURVE SMOOTH",
"187 129 LINE",
"230 86 LINE"
);
},
{
closed = 1;
nodes = (
"230 627 LINE",
"187 587 LINE",
"653 587 LINE SMOOTH",
"713 587 OFFCURVE",
"744 562 OFFCURVE",
"744 509 CURVE SMOOTH",
"744 456 OFFCURVE",
"713 427 OFFCURVE",
"653 427 CURVE SMOOTH",
"187 427 LINE",
"230 384 LINE"
);
}
);
width = 966;
}
);
leftKerningGroup = H;
leftMetricsKey = H;
rightKerningGroup = B;
unicode = 0042;
},
{
glyphname = C;
lastChange = "2021-02-11 22:46:17 +0000";
layers = (
{
anchors = (
{
name = bottom;
position = "{519, 0}";
},
{
name = top;
position = "{419, 715}";
}
);
background = {
anchors = (
{
name = bottom;
position = "{519, 0}";
},
{
name = top;
position = "{419, 715}";
}
);
paths = (
{
closed = 1;
nodes = (
"808 -5 LINE",
"808 125 LINE",
"449 125 LINE SMOOTH",
"275 125 OFFCURVE",
"193 195 OFFCURVE",
"193 358 CURVE SMOOTH",
"193 520 OFFCURVE",
"275 590 OFFCURVE",
"449 590 CURVE SMOOTH",
"798 590 LINE",
"798 718 LINE",
"438 720 LINE SMOOTH",
"174 721 OFFCURVE",
"30 597 OFFCURVE",
"30 358 CURVE SMOOTH",
"30 118 OFFCURVE",
"174 -5 OFFCURVE",
"438 -5 CURVE SMOOTH"
);
}
);
};
guideLines = (
{
angle = 270;
position = "{808, 60}";
}
);
layerId = master01;
paths = (
{
closed = 1;
nodes = (
"808 -5 LINE",
"808 125 LINE",
"449 125 LINE SMOOTH",
"275 125 OFFCURVE",
"193 195 OFFCURVE",
"193 358 CURVE SMOOTH",
"193 520 OFFCURVE",
"275 590 OFFCURVE",
"449 590 CURVE SMOOTH",
"798 590 LINE",
"798 718 LINE",
"438 720 LINE SMOOTH",
"174 721 OFFCURVE",
"30 597 OFFCURVE",
"30 358 CURVE SMOOTH",
"30 118 OFFCURVE",
"174 -5 OFFCURVE",
"438 -5 CURVE SMOOTH"
);
}
);
width = 838;
},
{
associatedMasterId = master01;
background = {
paths = (
{
closed = 1;
nodes = (
"438 -5 LINE SMOOTH",
"173 -5 OFFCURVE",
"30 144 OFFCURVE",
"30 358 CURVE SMOOTH",
"30 571 OFFCURVE",
"173 720 OFFCURVE",
"438 720 CURVE SMOOTH",
"618 720 LINE SMOOTH",
"883 720 OFFCURVE",
"1026 571 OFFCURVE",
"1026 358 CURVE SMOOTH",
"1026 144 OFFCURVE",
"883 -5 OFFCURVE",
"618 -5 CURVE SMOOTH"
);
},
{
closed = 1;
nodes = (
"449 590 LINE SMOOTH",
"267 590 OFFCURVE",
"193 498 OFFCURVE",
"193 358 CURVE SMOOTH",
"193 217 OFFCURVE",
"267 125 OFFCURVE",
"449 125 CURVE SMOOTH",
"607 125 LINE SMOOTH",
"789 125 OFFCURVE",
"863 217 OFFCURVE",
"863 358 CURVE SMOOTH",
"863 498 OFFCURVE",
"789 590 OFFCURVE",
"607 590 CURVE SMOOTH"
);
}
);
};
layerId = "9731E30D-C04C-4584-854D-9BD52271AF75";
name = "Jun 12 20, 12:48";
paths = (
{
closed = 1;
nodes = (
"401 0 LINE SMOOTH",
"167 0 OFFCURVE",
"30 141 OFFCURVE",
"30 357 CURVE SMOOTH",
"30 572 OFFCURVE",
"167 713 OFFCURVE",
"401 713 CURVE SMOOTH",
"862 713 LINE",
"862 582 LINE",
"415 582 LINE SMOOTH",
"272 582 OFFCURVE",
"202 500 OFFCURVE",
"202 357 CURVE SMOOTH",
"202 214 OFFCURVE",
"272 131 OFFCURVE",
"415 131 CURVE SMOOTH",
"862 131 LINE",
"862 0 LINE"
);
}
);
width = 892.185;
}
);
leftKerningGroup = O;
leftMetricsKey = O;
rightKerningGroup = C;
unicode = 0043;
},
{
glyphname = D;
lastChange = "2021-03-02 15:18:40 +0000";
layers = (
{
anchors = (
{
name = bottom;
position = "{478, 0}";
},
{
name = center;
position = "{478, 358}";
},
{
name = top;
position = "{478, 715}";
}
);
background = {
anchors = (
{
name = bottom;
position = "{478, 0}";
},
{
name = center;
position = "{478, 358}";
},
{
name = top;
position = "{478, 715}";
}
);
paths = (
{
closed = 1;
nodes = (
"508 0 LINE SMOOTH",
"766 0 OFFCURVE",
"916 123 OFFCURVE",
"916 358 CURVE SMOOTH",
"916 593 OFFCURVE",
"766 716 OFFCURVE",
"508 716 CURVE SMOOTH",
"188 715 LINE",
"199 585 LINE",
"497 586 LINE SMOOTH",
"665 586 OFFCURVE",
"753 516 OFFCURVE",
"753 358 CURVE SMOOTH",
"753 200 OFFCURVE",
"665 130 OFFCURVE",
"497 130 CURVE SMOOTH",
"199 130 LINE",
"188 0 LINE"
);
},
{
closed = 1;
nodes = (
"230 0 LINE",
"230 715 LINE",
"70 715 LINE",
"70 0 LINE"
);
}
);
};
layerId = master01;
paths = (
{
closed = 1;
nodes = (
"508 0 LINE SMOOTH",
"766 0 OFFCURVE",
"916 123 OFFCURVE",
"916 358 CURVE SMOOTH",
"916 593 OFFCURVE",
"766 716 OFFCURVE",
"508 716 CURVE SMOOTH",
"188 715 LINE",
"199 586 LINE",
"497 586 LINE SMOOTH",
"665 586 OFFCURVE",
"753 516 OFFCURVE",
"753 358 CURVE SMOOTH",
"753 200 OFFCURVE",
"665 130 OFFCURVE",
"497 130 CURVE SMOOTH",
"199 130 LINE",
"188 0 LINE"
);
},
{
closed = 1;
nodes = (
"230 0 LINE",
"230 715 LINE",
"70 715 LINE",
"70 0 LINE"
);
}
);
width = 946;
}
);
leftKerningGroup = H;
leftMetricsKey = H;
rightKerningGroup = O;
rightMetricsKey = O;
unicode = 0044;
},
{
glyphname = E;
lastChange = "2021-02-11 22:46:17 +0000";
layers = (
{
anchors = (
{
name = bottom;
position = "{457, 0}";
},
{
name = ogonek;
position = "{815, 10}";
},
{
name = top;
position = "{462, 715}";
},
{
name = topleft;
position = "{30, 715}";
}
);
background = {
anchors = (
{
name = bottom;
position = "{457, 0}";
},
{
name = ogonek;
position = "{815, 10}";
},
{
name = top;
position = "{462, 715}";
},
{
name = topleft;
position = "{30, 715}";
}
);
paths = (
{
closed = 1;
nodes = (
"854 0 LINE",
"854 130 LINE",
"187 130 LINE",
"230 86 LINE",
"230 629 LINE",
"187 585 LINE",
"854 585 LINE",
"854 715 LINE",
"70 715 LINE",
"70 0 LINE"
);
},
{
closed = 1;
nodes = (
"796 297 LINE",
"796 427 LINE",
"187 427 LINE",
"187 297 LINE"
);
}
);
};
layerId = master01;
paths = (
{
closed = 1;
nodes = (
"854 0 LINE",
"854 130 LINE",
"187 130 LINE",
"230 86 LINE",
"230 629 LINE",
"187 585 LINE",
"854 585 LINE",
"854 715 LINE",
"70 715 LINE",
"70 0 LINE"
);
},
{
closed = 1;
nodes = (
"796 297 LINE",
"796 427 LINE",
"187 427 LINE",
"187 297 LINE"
);
}
);
width = 894;
}
);
leftKerningGroup = H;
leftMetricsKey = H;
rightKerningGroup = E;
unicode = 0045;
},
{
glyphname = F;
lastChange = "2021-02-11 22:46:17 +0000";
layers = (
{
anchors = (
{
name = bottom;
position = "{442, 0}";
},
{
name = top;
position = "{442, 715}";
}
);
background = {
anchors = (
{
name = bottom;
position = "{442, 0}";
},
{
name = top;
position = "{442, 715}";
}
);
paths = (
{
closed = 1;
nodes = (
"230 0 LINE",
"230 629 LINE",
"187 585 LINE",
"834 585 LINE",
"834 715 LINE",
"70 715 LINE",
"70 0 LINE"
);
},
{
closed = 1;
nodes = (
"756 257 LINE",
"756 387 LINE",
"187 387 LINE",
"187 257 LINE"
);
}
);
};
layerId = master01;
paths = (
{
closed = 1;
nodes = (
"230 0 LINE",
"230 629 LINE",
"187 585 LINE",
"834 585 LINE",
"834 715 LINE",
"70 715 LINE",
"70 0 LINE"
);
},
{
closed = 1;
nodes = (
"756 257 LINE",
"756 387 LINE",
"187 387 LINE",
"187 257 LINE"
);
}
);
width = 874;
}
);
leftKerningGroup = H;
leftMetricsKey = H;
rightKerningGroup = F;
unicode = 0046;
},
{
glyphname = G;
lastChange = "2021-02-11 22:46:17 +0000";
layers = (
{
anchors = (
{
name = bottom;
position = "{459, 0}";
},
{
name = top;
position = "{459, 715}";
}
);
background = {
anchors = (
{
name = bottom;
position = "{459, 0}";
},
{
name = top;
position = "{459, 715}";
}
);
components = (
{
name = G.ss01;
}
);
paths = (
{
closed = 1;
nodes = (
"559 57 LINE",
"559 404 LINE",
"409 404 LINE",
"409 57 LINE"
);
}
);
};
components = (
{
name = G.ss01;
}
);
layerId = master01;
paths = (
{
closed = 1;
nodes = (
"559 57 LINE",
"559 404 LINE",
"409 404 LINE",
"409 57 LINE"
);
}
);
width = 927;
},
{
associatedMasterId = master01;
layerId = "72ECFA8C-8A18-4D73-93F3-9FD71E0ADB20";
name = "Jun 12 20, 12:47";
paths = (
{
closed = 1;
nodes = (
"401 0 LINE SMOOTH",
"167 0 OFFCURVE",
"30 141 OFFCURVE",
"30 356 CURVE SMOOTH",
"30 572 OFFCURVE",
"167 713 OFFCURVE",
"401 713 CURVE SMOOTH",
"907 713 LINE",
"907 582 LINE",
"415 582 LINE SMOOTH",
"272 582 OFFCURVE",
"202 499 OFFCURVE",
"202 356 CURVE SMOOTH",
"202 213 OFFCURVE",
"272 131 OFFCURVE",
"415 131 CURVE SMOOTH",
"437 131 LINE",
"437 404 LINE",
"907 404 LINE",
"907 0 LINE"
);
},
{
closed = 1;
nodes = (
"745 273 LINE",
"599 273 LINE",
"599 131 LINE",
"745 131 LINE"
);
}
);
width = 962.131;
}
);
leftKerningGroup = O;
leftMetricsKey = O;
rightKerningGroup = G;
rightMetricsKey = H;
unicode = 0047;
},
{
glyphname = H;
lastChange = "2021-02-11 22:46:17 +0000";
layers = (
{
anchors = (
{
name = bottom;
position = "{482, 0}";
},
{
name = center;
position = "{482, 358}";
},
{
name = top;
position = "{482, 715}";
},
{
name = topleft;
position = "{30, 715}";
}
);
background = {
anchors = (
{
name = bottom;
position = "{482, 0}";
},
{
name = center;
position = "{482, 358}";
},
{
name = top;
position = "{482, 715}";
},
{
name = topleft;
position = "{30, 715}";
}
);
paths = (
{
closed = 1;
nodes = (
"894 0 LINE",
"894 715 LINE",
"734 715 LINE",
"734 0 LINE"
);
},
{
closed = 1;
nodes = (
"230 0 LINE",
"230 715 LINE",
"70 715 LINE",
"70 0 LINE"
);
},
{
closed = 1;
nodes = (
"779 292 LINE",
"779 422 LINE",
"185 422 LINE",
"185 292 LINE"
);
}
);
};
layerId = master01;
paths = (
{
closed = 1;
nodes = (
"894 0 LINE",
"894 715 LINE",
"734 715 LINE",
"734 0 LINE"
);
},
{
closed = 1;
nodes = (
"230 0 LINE",
"230 715 LINE",
"70 715 LINE",
"70 0 LINE"
);
},
{
closed = 1;
nodes = (
"779 292 LINE",
"779 422 LINE",
"185 422 LINE",
"185 292 LINE"
);
}
);
width = 964;
}
);
leftKerningGroup = H;
rightKerningGroup = H;
rightMetricsKey = "=|";
unicode = 0048;
},
{
glyphname = I;
lastChange = "2021-02-11 22:46:17 +0000";
layers = (
{
anchors = (
{
name = bottom;
position = "{150, 0}";
},
{
name = ogonek;
position = "{262, 10}";
},
{
name = top;
position = "{150, 715}";
},
{
name = topleft;
position = "{30, 715}";
}
);
background = {
anchors = (
{
name = bottom;
position = "{150, 0}";
},
{
name = ogonek;
position = "{262, 10}";
},
{
name = top;
position = "{150, 715}";
},
{
name = topleft;
position = "{30, 715}";
}
);
paths = (
{
closed = 1;
nodes = (
"230 0 LINE",
"230 715 LINE",
"70 715 LINE",
"70 0 LINE"
);
}
);
};
layerId = master01;
paths = (
{
closed = 1;
nodes = (
"230 0 LINE",
"230 715 LINE",
"70 715 LINE",
"70 0 LINE"
);
}
);
width = 300;
}
);
leftKerningGroup = H;
leftMetricsKey = H;
rightKerningGroup = H;
rightMetricsKey = H;
unicode = 0049;
},
{
glyphname = J;
lastChange = "2021-02-11 22:46:17 +0000";
layers = (
{
anchors = (
{
name = bottom;
position = "{388, 0}";
},
{
name = top;
position = "{388, 715}";
}
);
background = {
anchors = (
{
name = bottom;
position = "{388, 0}";
},
{
name = top;
position = "{388, 715}";
}
);
paths = (
{
closed = 1;
nodes = (
"426 -5 LINE SMOOTH",
"644 -5 OFFCURVE",
"715 79 OFFCURVE",
"715 256 CURVE SMOOTH",
"715 715 LINE",
"555 715 LINE",
"555 256 LINE SMOOTH",
"555 154 OFFCURVE",
"512 125 OFFCURVE",
"399 125 CURVE SMOOTH",
"336 125 LINE SMOOTH",
"243 125 OFFCURVE",
"184 144 OFFCURVE",
"184 217 CURVE SMOOTH",
"184 227 OFFCURVE",
"185 244 OFFCURVE",
"188 262 CURVE",
"28 262 LINE",
"24 244 OFFCURVE",
"22 227 OFFCURVE",
"22 209 CURVE SMOOTH",
"22 64 OFFCURVE",
"111 -5 OFFCURVE",
"309 -5 CURVE SMOOTH"
);
}
);
};
layerId = master01;
paths = (
{
closed = 1;
nodes = (
"426 -5 LINE SMOOTH",
"644 -5 OFFCURVE",
"715 79 OFFCURVE",
"715 256 CURVE SMOOTH",
"715 715 LINE",
"555 715 LINE",
"555 256 LINE SMOOTH",
"555 154 OFFCURVE",
"512 125 OFFCURVE",
"399 125 CURVE SMOOTH",
"336 125 LINE SMOOTH",
"243 125 OFFCURVE",
"184 144 OFFCURVE",
"184 217 CURVE SMOOTH",
"184 227 OFFCURVE",
"185 244 OFFCURVE",
"188 262 CURVE",
"28 262 LINE",
"24 244 OFFCURVE",
"22 227 OFFCURVE",
"22 209 CURVE SMOOTH",
"22 64 OFFCURVE",
"111 -5 OFFCURVE",
"309 -5 CURVE SMOOTH"
);
}
);
width = 785;
}
);
leftKerningGroup = J;
rightKerningGroup = U;
rightMetricsKey = H;
unicode = 004A;
},
{
glyphname = K;
lastChange = "2021-02-11 22:46:17 +0000";
layers = (
{
anchors = (
{
name = bottom;
position = "{461, 0}";
},
{
name = top;
position = "{461, 715}";
}
);
background = {
anchors = (
{
name = bottom;
position = "{461, 0}";
},
{
name = top;
position = "{461, 715}";
}
);
paths = (
{
closed = 1;
nodes = (
"902 0 LINE",
"579 392 LINE",
"579 322 LINE",
"902 713 LINE",
"703 713 LINE",
"440 387 LINE",
"513 422 LINE",
"187 422 LINE",
"187 292 LINE",
"513 292 LINE",
"440 326 LINE",
"703 0 LINE"
);
},
{
closed = 1;
nodes = (
"230 0 LINE",
"230 713 LINE",
"70 713 LINE",
"70 0 LINE"
);
}
);
};
layerId = master01;
paths = (
{
closed = 1;
nodes = (
"902 0 LINE",
"579 392 LINE",
"579 322 LINE",
"902 713 LINE",
"703 713 LINE",
"440 387 LINE",
"513 422 LINE",
"187 422 LINE",
"187 292 LINE",
"513 292 LINE",
"440 326 LINE",
"703 0 LINE"
);
},
{
closed = 1;
nodes = (
"230 0 LINE",
"230 713 LINE",
"70 713 LINE",
"70 0 LINE"
);
}
);
width = 912;
}
);
leftKerningGroup = H;
leftMetricsKey = H;
rightKerningGroup = K;
unicode = 004B;
},
{
glyphname = L;
lastChange = "2021-02-11 22:46:17 +0000";
layers = (
{
anchors = (
{
name = bottom;
position = "{387, 0}";
},
{
name = center;
position = "{387, 358}";
},
{
name = top;
position = "{387, 715}";
},
{
name = topright;
position = "{743, 715}";
}
);
background = {
anchors = (
{
name = bottom;
position = "{387, 0}";
},
{
name = center;
position = "{387, 358}";
},
{
name = top;
position = "{387, 715}";
},
{
name = topright;
position = "{743, 715}";
}
);
paths = (
{
closed = 1;
nodes = (
"753 0 LINE",
"753 130 LINE",
"187 130 LINE",
"230 86 LINE",
"230 715 LINE",
"70 715 LINE",
"70 0 LINE"
);
}
);
};
layerId = master01;
paths = (
{
closed = 1;
nodes = (
"753 0 LINE",
"753 130 LINE",
"187 130 LINE",
"230 86 LINE",
"230 715 LINE",
"70 715 LINE",
"70 0 LINE"
);
}
);
width = 783;
}
);
leftKerningGroup = H;
leftMetricsKey = H;
rightKerningGroup = L;
unicode = 004C;
},
{
glyphname = M;
lastChange = "2021-02-11 22:46:17 +0000";
layers = (
{
anchors = (
{
name = bottom;
position = "{538, 0}";
},
{
name = top;
position = "{538, 715}";
}
);
background = {
anchors = (
{
name = bottom;
position = "{538, 0}";
},
{
name = top;
position = "{538, 715}";
}
);
paths = (
{
closed = 1;
nodes = (
"230 0 LINE",
"230 604 LINE",
"103 600 LINE",
"477 350 LINE",
"598 350 LINE",
"972 600 LINE",
"845 604 LINE",
"845 0 LINE",
"1005 0 LINE",
"1005 715 LINE",
"871 715 LINE",
"489 447 LINE",
"586 447 LINE",
"204 715 LINE",
"70 715 LINE",
"70 0 LINE"
);
},
{
closed = 1;
nodes = (
"618 0 LINE",
"618 483 LINE",
"458 483 LINE",
"458 0 LINE"
);
}
);
};
layerId = master01;
paths = (
{
closed = 1;
nodes = (
"230 0 LINE",
"230 604 LINE",
"103 600 LINE",
"477 350 LINE",
"598 350 LINE",
"972 600 LINE",
"845 604 LINE",
"845 0 LINE",
"1005 0 LINE",
"1005 715 LINE",
"871 715 LINE",
"489 447 LINE",
"586 447 LINE",
"204 715 LINE",
"70 715 LINE",
"70 0 LINE"
);
},
{
closed = 1;
nodes = (
"618 0 LINE",
"618 483 LINE",
"458 483 LINE",
"458 0 LINE"
);
}
);
width = 1075;
}
);
leftKerningGroup = H;
leftMetricsKey = H;
rightKerningGroup = H;
rightMetricsKey = H;
unicode = 004D;
},
{
glyphname = N;
lastChange = "2021-02-11 22:46:17 +0000";
layers = (
{
anchors = (
{
name = bottom;
position = "{484, 0}";
},
{
name = top;
position = "{484, 715}";
}
);
background = {
anchors = (
{
name = bottom;
position = "{484, 0}";
},
{
name = top;
position = "{484, 715}";
}
);
paths = (
{
closed = 1;
nodes = (
"230 0 LINE",
"230 557 LINE",
"201 544 LINE",
"736 0 LINE",
"898 0 LINE",
"898 715 LINE",
"738 715 LINE",
"738 159 LINE",
"767 172 LINE",
"232 715 LINE",
"70 715 LINE",
"70 0 LINE"
);
}
);
};
layerId = master01;
paths = (
{
closed = 1;
nodes = (
"230 0 LINE",
"230 557 LINE",
"201 544 LINE",
"736 0 LINE",
"898 0 LINE",
"898 715 LINE",
"738 715 LINE",
"738 159 LINE",
"767 172 LINE",
"232 715 LINE",
"70 715 LINE",
"70 0 LINE"
);
}
);
width = 968;
}
);
leftKerningGroup = H;
leftMetricsKey = H;
rightKerningGroup = H;
rightMetricsKey = H;
unicode = 004E;
},
{
glyphname = O;
lastChange = "2021-02-11 22:46:17 +0000";
layers = (
{
anchors = (
{
name = bottom;
position = "{528, 0}";
},
{
name = center;
position = "{528, 358}";
},
{
name = ogonek;
position = "{950, 10}";
},
{
name = top;
position = "{528, 715}";
},
{
name = topleft;
position = "{20, 715}";
},
{
name = topright;
position = "{1036, 715}";
}
);
background = {
anchors = (
{
name = bottom;
position = "{528, 0}";
},
{
name = center;
position = "{528, 358}";
},
{
name = ogonek;
position = "{950, 10}";
},
{
name = top;
position = "{528, 715}";
},
{
name = topleft;
position = "{20, 715}";
},
{
name = topright;
position = "{1036, 715}";
}
);
components = (
{
name = O.ss01;
}
);
paths = (
{
closed = 1;
nodes = (
"930 293 LINE",
"930 423 LINE",
"148 423 LINE",
"148 293 LINE"
);
}
);
};
components = (
{
name = O.ss01;
}
);
layerId = master01;
paths = (
{
closed = 1;
nodes = (
"930 293 LINE",
"930 423 LINE",
"148 423 LINE",
"148 293 LINE"
);
}
);
width = 1056;
},
{
associatedMasterId = master01;
background = {
paths = (
{
closed = 1;
nodes = (
"1026 141 OFFCURVE",
"889 0 OFFCURVE",
"655 0 CURVE SMOOTH",
"401 0 LINE SMOOTH",
"167 0 OFFCURVE",
"30 141 OFFCURVE",
"30 357 CURVE SMOOTH",
"30 572 OFFCURVE",
"167 713 OFFCURVE",
"401 713 CURVE SMOOTH",
"655 713 LINE SMOOTH",
"889 713 OFFCURVE",
"1026 572 OFFCURVE",
"1026 357 CURVE SMOOTH"
);
},
{
closed = 1;
nodes = (
"829 525 OFFCURVE",
"760 582 OFFCURVE",
"641 582 CURVE SMOOTH",
"415 582 LINE SMOOTH",
"296 582 OFFCURVE",
"227 525 OFFCURVE",
"207 422 CURVE",
"849 422 LINE"
);
},
{
closed = 1;
nodes = (
"207 291 LINE",
"227 189 OFFCURVE",
"296 131 OFFCURVE",
"415 131 CURVE SMOOTH",
"641 131 LINE SMOOTH",
"760 131 OFFCURVE",
"829 189 OFFCURVE",
"849 291 CURVE"
);
}
);
};
layerId = "84A3914B-35CE-425B-A249-420B2175D6BC";
name = "Jun 12 20, 12:22";
paths = (
{
closed = 1;
nodes = (
"1026 141 OFFCURVE",
"889 0 OFFCURVE",
"655 0 CURVE SMOOTH",
"401 0 LINE SMOOTH",
"167 0 OFFCURVE",
"30 141 OFFCURVE",
"30 357 CURVE SMOOTH",
"30 572 OFFCURVE",
"167 713 OFFCURVE",
"401 713 CURVE SMOOTH",
"655 713 LINE SMOOTH",
"889 713 OFFCURVE",
"1026 572 OFFCURVE",
"1026 357 CURVE SMOOTH"
);
},
{
closed = 1;
nodes = (
"829 525 OFFCURVE",
"760 582 OFFCURVE",
"641 582 CURVE SMOOTH",
"415 582 LINE SMOOTH",
"296 582 OFFCURVE",
"227 525 OFFCURVE",
"207 422 CURVE",
"849 422 LINE"
);
},
{
closed = 1;
nodes = (
"207 291 LINE",
"227 189 OFFCURVE",
"296 131 OFFCURVE",
"415 131 CURVE SMOOTH",
"641 131 LINE SMOOTH",
"760 131 OFFCURVE",
"829 189 OFFCURVE",
"849 291 CURVE"
);
}
);
width = 1056.1;
}
);
leftKerningGroup = O;
rightKerningGroup = O;
rightMetricsKey = "=|";
unicode = 004F;
},
{
glyphname = P;
lastChange = "2021-02-11 22:49:30 +0000";
layers = (
{
anchors = (
{
name = bottom;
position = "{462, 0}";
},
{
name = top;
position = "{462, 715}";
}
);
background = {
anchors = (
{
name = bottom;
position = "{462, 0}";
},
{
name = top;
position = "{462, 715}";
}
);
components = (
{
name = I;
}
);
paths = (
{
closed = 1;
nodes = (
"669 263 LINE SMOOTH",
"817 263 OFFCURVE",
"903 337 OFFCURVE",
"903 489 CURVE SMOOTH",
"903 641 OFFCURVE",
"817 715 OFFCURVE",
"669 715 CURVE",
"188 715 LINE",
"188 585 LINE",
"650 585 LINE",
"708 585 OFFCURVE",
"741 559 OFFCURVE",
"741 489 CURVE SMOOTH",
"741 419 OFFCURVE",
"708 393 OFFCURVE",
"650 393 CURVE SMOOTH",
"97 394 LINE",
"97 263 LINE"
);
}
);
};
components = (
{
name = I;
}
);
layerId = master01;
paths = (
{
closed = 1;
nodes = (
"669 263 LINE SMOOTH",
"817 263 OFFCURVE",
"903 337 OFFCURVE",
"903 489 CURVE SMOOTH",
"903 641 OFFCURVE",
"817 715 OFFCURVE",
"669 715 CURVE",
"147 715 LINE",
"147 585 LINE",
"650 585 LINE",
"708 585 OFFCURVE",
"741 559 OFFCURVE",
"741 489 CURVE SMOOTH",
"741 419 OFFCURVE",
"708 393 OFFCURVE",
"650 393 CURVE SMOOTH",
"147 394 LINE",
"147 263 LINE"
);
}
);
width = 933;
}
);
leftKerningGroup = H;
leftMetricsKey = H;
rightKerningGroup = P;
unicode = 0050;
},
{
glyphname = Q;
lastChange = "2021-02-12 00:12:11 +0000";
layers = (
{
anchors = (
{
name = bottom;
position = "{528, 0}";
},
{
name = top;
position = "{528, 715}";
}
);
background = {
anchors = (
{
name = bottom;
position = "{528, 0}";
},
{
name = top;
position = "{528, 715}";
}
);
paths = (
{
closed = 1;
nodes = (
"610 -110 LINE",
"610 250 LINE",
"450 250 LINE",
"450 -110 LINE"
);
},
{
closed = 1;
nodes = (
"623 -5 LINE SMOOTH",
"880 -5 OFFCURVE",
"1026 118 OFFCURVE",
"1026 358 CURVE SMOOTH",
"1026 597 OFFCURVE",
"882 720 OFFCURVE",
"618 720 CURVE SMOOTH",
"438 720 LINE SMOOTH",
"174 720 OFFCURVE",
"30 597 OFFCURVE",
"30 358 CURVE SMOOTH",
"30 118 OFFCURVE",
"176 -5 OFFCURVE",
"431 -5 CURVE SMOOTH"
);
},
{
closed = 1;
nodes = (
"275 125 OFFCURVE",
"193 195 OFFCURVE",
"193 358 CURVE SMOOTH",
"193 520 OFFCURVE",
"275 590 OFFCURVE",
"449 590 CURVE SMOOTH",
"607 590 LINE SMOOTH",
"781 590 OFFCURVE",
"863 520 OFFCURVE",
"863 358 CURVE SMOOTH",
"863 195 OFFCURVE",
"781 125 OFFCURVE",
"607 125 CURVE SMOOTH",
"452 125 LINE SMOOTH"
);
}
);
};
components = (
{
name = O.ss01;
}
);
layerId = master01;
paths = (
{
closed = 1;
nodes = (
"610 -110 LINE",
"610 250 LINE",
"450 250 LINE",
"450 -110 LINE"
);
}
);
width = 1056;
}
);
leftKerningGroup = O;
leftMetricsKey = O;
rightKerningGroup = O;
rightMetricsKey = O;
unicode = 0051;
},
{
glyphname = R;
lastChange = "2021-02-11 22:46:17 +0000";
layers = (
{
anchors = (
{
name = bottom;
position = "{462, 0}";
},
{
name = top;
position = "{462, 715}";
}
);
background = {
anchors = (
{
name = bottom;
position = "{462, 0}";
},
{
name = top;
position = "{462, 715}";
}
);
components = (
{
name = P;
}
);
paths = (
{
closed = 1;
nodes = (
"895 0 LINE",
"706 306 LINE",
"535 306 LINE",
"713 0 LINE"
);
}
);
};
components = (
{
name = P;
}
);
layerId = master01;
paths = (
{
closed = 1;
nodes = (
"895 0 LINE",
"706 306 LINE",
"535 306 LINE",
"713 0 LINE"
);
}
);
width = 953;
}
);
leftKerningGroup = H;
leftMetricsKey = H;
rightKerningGroup = R;
unicode = 0052;
},
{
glyphname = S;
lastChange = "2021-02-11 22:46:17 +0000";
layers = (
{
anchors = (
{
name = bottom;
position = "{452, 0}";
},
{
name = top;
position = "{452, 715}";
}
);
background = {
anchors = (
{
name = bottom;
position = "{452, 0}";
},
{
name = top;
position = "{452, 715}";
}
);
paths = (
{
closed = 1;
nodes = (
"639 -5 LINE SMOOTH",
"787 -5 OFFCURVE",
"873 69 OFFCURVE",
"873 211 CURVE SMOOTH",
"873 353 OFFCURVE",
"787 427 OFFCURVE",
"639 427 CURVE SMOOTH",
"281 427 LINE SMOOTH",
"223 427 OFFCURVE",
"190 452 OFFCURVE",
"190 509 CURVE SMOOTH",
"190 566 OFFCURVE",
"223 591 OFFCURVE",
"281 591 CURVE SMOOTH",
"826 590 LINE",
"826 720 LINE",
"264 720 LINE SMOOTH",
"116 720 OFFCURVE",
"30 648 OFFCURVE",
"30 509 CURVE SMOOTH",
"30 370 OFFCURVE",
"116 298 OFFCURVE",
"264 298 CURVE SMOOTH",
"622 298 LINE SMOOTH",
"680 298 OFFCURVE",
"713 272 OFFCURVE",
"713 211 CURVE SMOOTH",
"713 150 OFFCURVE",
"680 124 OFFCURVE",
"622 124 CURVE SMOOTH",
"47 125 LINE",
"47 -5 LINE"
);
}
);
};
layerId = master01;
paths = (
{
closed = 1;
nodes = (
"639 -5 LINE SMOOTH",
"787 -5 OFFCURVE",
"873 69 OFFCURVE",
"873 211 CURVE SMOOTH",
"873 353 OFFCURVE",
"787 427 OFFCURVE",
"639 427 CURVE SMOOTH",
"281 427 LINE SMOOTH",
"223 427 OFFCURVE",
"190 452 OFFCURVE",
"190 509 CURVE SMOOTH",
"190 566 OFFCURVE",
"223 591 OFFCURVE",
"281 591 CURVE SMOOTH",
"826 590 LINE",
"826 720 LINE",
"264 720 LINE SMOOTH",
"116 720 OFFCURVE",
"30 648 OFFCURVE",
"30 509 CURVE SMOOTH",
"30 370 OFFCURVE",
"116 298 OFFCURVE",
"264 298 CURVE SMOOTH",
"622 298 LINE SMOOTH",
"680 298 OFFCURVE",
"713 272 OFFCURVE",
"713 211 CURVE SMOOTH",
"713 150 OFFCURVE",
"680 124 OFFCURVE",
"622 124 CURVE SMOOTH",
"47 125 LINE",
"47 -5 LINE"
);
}
);
width = 903;
},
{
associatedMasterId = master01;
layerId = "55546664-6FFC-4F6A-BB5A-A6CF367C2135";
name = "Jun 12 20, 13:09";
paths = (
{
closed = 1;
nodes = (
"898 83 OFFCURVE",
"817 0 OFFCURVE",
"679 0 CURVE SMOOTH",
"52 0 LINE",
"52 131 LINE",
"650 131 LINE SMOOTH",
"701 131 OFFCURVE",
"727 159 OFFCURVE",
"727 210 CURVE SMOOTH",
"727 262 OFFCURVE",
"701 291 OFFCURVE",
"650 291 CURVE SMOOTH",
"244 291 LINE SMOOTH",
"106 291 OFFCURVE",
"25 376 OFFCURVE",
"25 503 CURVE SMOOTH",
"25 630 OFFCURVE",
"106 713 OFFCURVE",
"244 713 CURVE SMOOTH",
"871 713 LINE",
"871 582 LINE",
"273 582 LINE SMOOTH",
"222 582 OFFCURVE",
"197 554 OFFCURVE",
"197 502 CURVE SMOOTH",
"197 451 OFFCURVE",
"222 422 OFFCURVE",
"273 422 CURVE SMOOTH",
"679 422 LINE SMOOTH",
"817 422 OFFCURVE",
"898 338 OFFCURVE",
"898 210 CURVE SMOOTH"
);
}
);
width = 923.068;
}
);
leftKerningGroup = S;
rightKerningGroup = S;
rightMetricsKey = "=|";
unicode = 0053;
},
{
glyphname = T;
lastChange = "2021-02-11 22:48:07 +0000";
layers = (
{
anchors = (
{
name = bottom;
position = "{490, 0}";
},
{
name = center;
position = "{490, 358}";
},
{
name = top;
position = "{490, 715}";
}
);
background = {
paths = (
{
closed = 1;
nodes = (
"916 353 LINE",
"916 715 LINE",
"754 715 LINE",
"754 353 LINE"
);
},
{
closed = 1;
nodes = (
"168 353 LINE",
"168 715 LINE",
"6 715 LINE",
"6 353 LINE"
);
},
{
closed = 1;
nodes = (
"566 318 LINE",
"754 318 LINE",
"754 431 LINE",
"566 431 LINE"
);
},
{
closed = 1;
nodes = (
"216 318 LINE",
"404 318 LINE",
"404 431 LINE",
"216 431 LINE"
);
}
);
};
components = (
{
name = T.ss01;
}
);
layerId = master01;
paths = (
{
closed = 1;
nodes = (
"925 353 LINE",
"925 715 LINE",
"763 715 LINE",
"763 353 LINE"
);
},
{
closed = 1;
nodes = (
"207 353 LINE",
"207 715 LINE",
"45 715 LINE",
"45 353 LINE"
);
}
);
width = 970;
}
);
leftKerningGroup = T;
rightKerningGroup = T;
rightMetricsKey = "=|";
unicode = 0054;
},
{
glyphname = U;
lastChange = "2021-02-11 22:46:17 +0000";
layers = (
{
anchors = (
{
name = bottom;
position = "{483, 0}";
},
{
name = ogonek;
position = "{861, 10}";
},
{
name = top;
position = "{483, 715}";
},
{
name = topright;
position = "{935, 715}";
}
);
background = {
anchors = (
{
name = bottom;
position = "{483, 0}";
},
{
name = ogonek;
position = "{861, 10}";
},
{
name = top;
position = "{483, 715}";
},
{
name = topright;
position = "{935, 715}";
}
);
paths = (
{
closed = 1;
nodes = (
"606 -5 LINE SMOOTH",
"824 -5 OFFCURVE",
"895 79 OFFCURVE",
"895 256 CURVE SMOOTH",
"895 715 LINE",
"735 715 LINE",
"735 256 LINE SMOOTH",
"735 154 OFFCURVE",
"692 125 OFFCURVE",
"579 125 CURVE SMOOTH",
"386 125 LINE SMOOTH",
"273 125 OFFCURVE",
"230 154 OFFCURVE",
"230 256 CURVE SMOOTH",
"230 715 LINE",
"70 715 LINE",
"70 256 LINE SMOOTH",
"70 79 OFFCURVE",
"141 -5 OFFCURVE",
"359 -5 CURVE SMOOTH"
);
}
);
};
layerId = master01;
paths = (
{
closed = 1;
nodes = (
"606 -5 LINE SMOOTH",
"824 -5 OFFCURVE",
"895 79 OFFCURVE",
"895 256 CURVE SMOOTH",
"895 715 LINE",
"735 715 LINE",
"735 256 LINE SMOOTH",
"735 154 OFFCURVE",
"692 125 OFFCURVE",
"579 125 CURVE SMOOTH",
"386 125 LINE SMOOTH",
"273 125 OFFCURVE",
"230 154 OFFCURVE",
"230 256 CURVE SMOOTH",
"230 715 LINE",
"70 715 LINE",
"70 256 LINE SMOOTH",
"70 79 OFFCURVE",
"141 -5 OFFCURVE",
"359 -5 CURVE SMOOTH"
);
}
);
width = 965;
},
{
associatedMasterId = master01;
layerId = "241B4283-00FC-41DB-BDA0-1797A4483BAA";
name = "Jun 12 20, 13:06";
paths = (
{
closed = 1;
nodes = (
"877 84 OFFCURVE",
"797 0 OFFCURVE",
"659 0 CURVE SMOOTH",
"269 0 LINE SMOOTH",
"131 0 OFFCURVE",
"50 84 OFFCURVE",
"50 211 CURVE SMOOTH",
"50 713 LINE",
"212 713 LINE",
"212 211 LINE SMOOTH",
"212 159 OFFCURVE",
"243 131 OFFCURVE",
"296 131 CURVE SMOOTH",
"632 131 LINE SMOOTH",
"684 131 OFFCURVE",
"716 159 OFFCURVE",
"716 211 CURVE SMOOTH",
"716 713 LINE",
"877 713 LINE",
"877 211 LINE SMOOTH"
);
}
);
width = 927.493;
}
);
leftKerningGroup = U;
leftMetricsKey = H;
rightKerningGroup = U;
rightMetricsKey = H;
unicode = 0055;
},
{
glyphname = V;
lastChange = "2021-02-11 22:48:33 +0000";
layers = (
{
anchors = (
{
name = bottom;
position = "{446, 0}";
},
{
name = top;
position = "{446, 715}";
}
);
background = {
anchors = (
{
name = bottom;
position = "{446, 0}";
},
{
name = top;
position = "{446, 715}";
}
);
paths = (
{
closed = 1;
nodes = (
"569 0 LINE",
"891 715 LINE",
"717 715 LINE",
"436 89 LINE",
"524 125 LINE",
"367 125 LINE",
"455 89 LINE",
"174 715 LINE",
"0 715 LINE",
"322 0 LINE"
);
}
);
};
layerId = master01;
paths = (
{
closed = 1;
nodes = (
"569 0 LINE",
"891 715 LINE",
"717 715 LINE",
"436 89 LINE",
"524 125 LINE",
"367 125 LINE",
"455 89 LINE",
"174 715 LINE",
"0 715 LINE",
"322 0 LINE"
);
}
);
width = 891;
}
);
leftKerningGroup = V;
rightKerningGroup = V;
rightMetricsKey = "=|V";
unicode = 0056;
},
{
glyphname = W;
lastChange = "2021-02-12 00:58:56 +0000";
layers = (
{
anchors = (
{
name = bottom;
position = "{548, 0}";
},
{
name = top;
position = "{548, 715}";
}
);
background = {
anchors = (
{
name = bottom;
position = "{548, 0}";
},
{
name = top;
position = "{548, 715}";
}
);
paths = (
{
closed = 1;
nodes = (
"264 0 LINE",
"596 268 LINE",
"499 268 LINE",
"831 0 LINE",
"965 0 LINE",
"1045 715 LINE",
"885 715 LINE",
"816 111 LINE",
"927 115 LINE",
"602 365 LINE",
"493 365 LINE",
"167 115 LINE",
"278 111 LINE",
"210 715 LINE",
"50 715 LINE",
"130 0 LINE"
);
},
{
closed = 1;
nodes = (
"628 232 LINE",
"628 715 LINE",
"468 715 LINE",
"468 232 LINE"
);
}
);
};
layerId = master01;
paths = (
{
closed = 1;
nodes = (
"264 0 LINE",
"596 268 LINE",
"499 268 LINE",
"831 0 LINE",
"965 0 LINE",
"1045 715 LINE",
"885 715 LINE",
"816 111 LINE",
"927 115 LINE",
"602 365 LINE",
"493 365 LINE",
"167 115 LINE",
"278 111 LINE",
"210 715 LINE",
"50 715 LINE",
"130 0 LINE"
);
},
{
closed = 1;
nodes = (
"628 242 LINE",
"628 715 LINE",
"468 715 LINE",
"468 242 LINE"
);
}
);
width = 1095;
}
);
leftKerningGroup = W;
rightKerningGroup = W;
rightMetricsKey = "=|";
unicode = 0057;
},
{
glyphname = X;
lastChange = "2021-02-11 22:46:17 +0000";
layers = (
{
anchors = (
{
name = bottom;
position = "{466, 0}";
},
{
name = top;
position = "{466, 715}";
}
);
background = {
anchors = (
{
name = bottom;
position = "{466, 0}";
},
{
name = top;
position = "{466, 715}";
}
);
paths = (
{
closed = 1;
nodes = (
"922 0 LINE",
"626 394 LINE",
"626 320 LINE",
"922 715 LINE",
"727 715 LINE",
"485 385 LINE",
"485 329 LINE",
"726 0 LINE"
);
},
{
closed = 1;
nodes = (
"206 0 LINE",
"447 329 LINE",
"447 385 LINE",
"205 715 LINE",
"10 715 LINE",
"306 320 LINE",
"306 394 LINE",
"10 0 LINE"
);
},
{
closed = 1;
nodes = (
"595 292 LINE",
"595 422 LINE",
"337 422 LINE",
"337 292 LINE"
);
}
);
};
layerId = master01;
paths = (
{
closed = 1;
nodes = (
"922 0 LINE",
"626 394 LINE",
"626 320 LINE",
"922 715 LINE",
"727 715 LINE",
"485 385 LINE",
"485 329 LINE",
"726 0 LINE"
);
},
{
closed = 1;
nodes = (
"206 0 LINE",
"447 329 LINE",
"447 385 LINE",
"205 715 LINE",
"10 715 LINE",
"306 320 LINE",
"306 394 LINE",
"10 0 LINE"
);
},
{
closed = 1;
nodes = (
"595 292 LINE",
"595 422 LINE",
"337 422 LINE",
"337 292 LINE"
);
}
);
width = 931.993;
}
);
leftKerningGroup = X;
rightKerningGroup = X;
rightMetricsKey = "=|";
unicode = 0058;
},
{
glyphname = Y;
lastChange = "2021-02-11 22:46:17 +0000";
layers = (
{
anchors = (
{
name = bottom;
position = "{459, 0}";
},
{
name = top;
position = "{459, 715}";
},
{
name = topleft;
position = "{10, 715}";
}
);
background = {
anchors = (
{
name = bottom;
position = "{459, 0}";
},
{
name = top;
position = "{459, 715}";
},
{
name = topleft;
position = "{10, 715}";
}
);
paths = (
{
closed = 1;
nodes = (
"540 0 LINE",
"540 256 LINE",
"917 715 LINE",
"719 715 LINE",
"431 356 LINE",
"487 356 LINE",
"198 715 LINE",
"0 715 LINE",
"379 255 LINE",
"379 0 LINE"
);
}
);
};
layerId = master01;
paths = (
{
closed = 1;
nodes = (
"540 0 LINE",
"540 256 LINE",
"917 715 LINE",
"719 715 LINE",
"431 356 LINE",
"487 356 LINE",
"198 715 LINE",
"0 715 LINE",
"379 255 LINE",
"379 0 LINE"
);
}
);
width = 917;
}
);
leftKerningGroup = Y;
rightKerningGroup = Y;
rightMetricsKey = "=|";
unicode = 0059;
},
{
glyphname = Z;
lastChange = "2021-02-11 22:46:17 +0000";
layers = (
{
anchors = (
{
name = bottom;
position = "{415, 0}";
},
{
name = center;
position = "{415, 358}";
},
{
name = top;
position = "{415, 715}";
}
);
background = {
anchors = (
{
name = bottom;
position = "{415, 0}";
},
{
name = center;
position = "{415, 358}";
},
{
name = top;
position = "{415, 715}";
}
);
paths = (
{
closed = 1;
nodes = (
"797 0 LINE",
"797 130 LINE",
"218 130 LINE",
"228 102 LINE",
"799 592 LINE",
"799 713 LINE",
"53 713 LINE",
"53 583 LINE",
"610 583 LINE",
"600 611 LINE",
"30 121 LINE",
"30 0 LINE"
);
}
);
};
layerId = master01;
paths = (
{
closed = 1;
nodes = (
"797 0 LINE",
"797 130 LINE",
"218 130 LINE",
"228 102 LINE",
"799 592 LINE",
"799 713 LINE",
"53 713 LINE",
"53 583 LINE",
"610 583 LINE",
"600 611 LINE",
"30 121 LINE",
"30 0 LINE"
);
}
);
width = 829;
}
);
leftKerningGroup = Z;
rightKerningGroup = Z;
rightMetricsKey = "=|";
unicode = 005A;
},
{
glyphname = bracketleft;
lastChange = "2021-02-11 22:46:17 +0000";
layers = (
{
background = {
paths = (
{
closed = 1;
nodes = (
"342 -193 LINE",
"342 -88 LINE",
"190 -88 LINE",
"190 638 LINE",
"342 638 LINE",
"342 743 LINE",
"70 743 LINE",
"70 -193 LINE"
);
}
);
};
layerId = master01;
paths = (
{
closed = 1;
nodes = (
"342 -193 LINE",
"342 -88 LINE",
"190 -88 LINE",
"190 638 LINE",
"342 638 LINE",
"342 743 LINE",
"70 743 LINE",
"70 -193 LINE"
);
}
);
width = 352;
}
);
leftKerningGroup = H;
leftMetricsKey = H;
rightKerningGroup = parenleft;
unicode = 005B;
},
{
glyphname = asciicircum;
lastChange = "2021-02-11 22:46:17 +0000";
layers = (
{
background = {
paths = (
{
closed = 1;
nodes = (
"158 292 LINE",
"370 668 LINE",
"330 668 LINE",
"542 292 LINE",
"681 292 LINE",
"436 713 LINE",
"265 713 LINE",
"20 292 LINE"
);
}
);
};
layerId = master01;
paths = (
{
closed = 1;
nodes = (
"158 292 LINE",
"370 668 LINE",
"330 668 LINE",
"542 292 LINE",
"681 292 LINE",
"436 713 LINE",
"265 713 LINE",
"20 292 LINE"
);
}
);
width = 700.608;
}
);
rightMetricsKey = "=|";
unicode = 005E;
},
{
glyphname = underscore;
lastChange = "2021-02-11 22:46:17 +0000";
layers = (
{
background = {
paths = (
{
closed = 1;
nodes = (
"656 -121 LINE",
"656 -5 LINE",
"40 -5 LINE",
"40 -121 LINE"
);
}
);
};
layerId = master01;
paths = (
{
closed = 1;
nodes = (
"656 -121 LINE",
"656 -5 LINE",
"40 -5 LINE",
"40 -121 LINE"
);
}
);
width = 696;
}
);
leftMetricsKey = hyphen;
rightMetricsKey = hyphen;
unicode = 005F;
},
{
glyphname = a;
lastChange = "2021-02-11 22:46:17 +0000";
layers = (
{
anchors = (
{
name = bottom;
position = "{379, 0}";
},
{
name = ogonek;
position = "{686, 10}";
},
{
name = top;
position = "{399, 515}";
}
);
background = {
anchors = (
{
name = bottom;
position = "{379, 0}";
},
{
name = ogonek;
position = "{686, 10}";
},
{
name = top;
position = "{399, 515}";
}
);
paths = (
{
closed = 1;
nodes = (
"721 0 LINE",
"721 357 LINE SMOOTH",
"721 457 OFFCURVE",
"675 515 OFFCURVE",
"554 515 CURVE SMOOTH",
"92 515 LINE",
"92 400 LINE",
"516 400 LINE SMOOTH",
"558 400 OFFCURVE",
"576 380 OFFCURVE",
"576 339 CURVE SMOOTH",
"576 270 LINE",
"621 315 LINE",
"192 315 LINE SMOOTH",
"84 315 OFFCURVE",
"25 258 OFFCURVE",
"25 158 CURVE SMOOTH",
"25 57 OFFCURVE",
"84 0 OFFCURVE",
"192 0 CURVE SMOOTH"
);
},
{
closed = 1;
nodes = (
"621 115 LINE",
"218 115 LINE SMOOTH",
"192 115 OFFCURVE",
"178 132 OFFCURVE",
"178 158 CURVE SMOOTH",
"178 183 OFFCURVE",
"192 200 OFFCURVE",
"218 200 CURVE SMOOTH",
"621 200 LINE",
"576 244 LINE",
"576 71 LINE"
);
}
);
};
layerId = master01;
paths = (
{
closed = 1;
nodes = (
"721 0 LINE",
"721 357 LINE SMOOTH",
"721 457 OFFCURVE",
"675 515 OFFCURVE",
"554 515 CURVE SMOOTH",
"92 515 LINE",
"92 400 LINE",
"516 400 LINE SMOOTH",
"558 400 OFFCURVE",
"576 380 OFFCURVE",
"576 339 CURVE SMOOTH",
"576 270 LINE",
"621 315 LINE",
"192 315 LINE SMOOTH",
"84 315 OFFCURVE",
"25 258 OFFCURVE",
"25 158 CURVE SMOOTH",
"25 57 OFFCURVE",
"84 0 OFFCURVE",
"192 0 CURVE SMOOTH"
);
},
{
closed = 1;
nodes = (
"621 115 LINE",
"218 115 LINE SMOOTH",
"192 115 OFFCURVE",
"178 132 OFFCURVE",
"178 158 CURVE SMOOTH",
"178 183 OFFCURVE",
"192 200 OFFCURVE",
"218 200 CURVE SMOOTH",
"621 200 LINE",
"576 244 LINE",
"576 71 LINE"
);
}
);
width = 776;
}
);
leftKerningGroup = a;
rightKerningGroup = a;
rightMetricsKey = "=|n";
unicode = 0061;
},
{
glyphname = c;
lastChange = "2021-02-11 22:46:17 +0000";
layers = (
{
anchors = (
{
name = bottom;
position = "{411, 0}";
},
{
name = top;
position = "{342, 515}";
}
);
background = {
anchors = (
{
name = bottom;
position = "{411, 0}";
},
{
name = top;
position = "{342, 515}";
}
);
paths = (
{
closed = 1;
nodes = (
"664 -5 LINE",
"664 110 LINE",
"319 110 LINE SMOOTH",
"232 110 OFFCURVE",
"185 157 OFFCURVE",
"185 257 CURVE SMOOTH",
"185 358 OFFCURVE",
"232 405 OFFCURVE",
"319 405 CURVE SMOOTH",
"654 405 LINE",
"654 520 LINE",
"319 520 LINE SMOOTH",
"140 520 OFFCURVE",
"35 430 OFFCURVE",
"35 257 CURVE SMOOTH",
"35 85 OFFCURVE",
"140 -5 OFFCURVE",
"319 -5 CURVE SMOOTH"
);
}
);
};
guideLines = (
{
angle = 90;
position = "{684, 53}";
}
);
layerId = master01;
paths = (
{
closed = 1;
nodes = (
"664 -5 LINE",
"664 110 LINE",
"319 110 LINE SMOOTH",
"232 110 OFFCURVE",
"185 157 OFFCURVE",
"185 257 CURVE SMOOTH",
"185 358 OFFCURVE",
"232 405 OFFCURVE",
"319 405 CURVE SMOOTH",
"654 405 LINE",
"654 520 LINE",
"319 520 LINE SMOOTH",
"140 520 OFFCURVE",
"35 430 OFFCURVE",
"35 257 CURVE SMOOTH",
"35 85 OFFCURVE",
"140 -5 OFFCURVE",
"319 -5 CURVE SMOOTH"
);
}
);
width = 684;
}
);
leftKerningGroup = o;
leftMetricsKey = o;
rightKerningGroup = o;
unicode = 0063;
},
{
glyphname = e;
lastChange = "2021-02-12 01:01:10 +0000";
layers = (
{
anchors = (
{
name = bottom;
position = "{412, 0}";
},
{
name = ogonek;
position = "{741, 10}";
},
{
name = top;
position = "{412, 515}";
}
);
background = {
anchors = (
{
name = bottom;
position = "{412, 0}";
},
{
name = ogonek;
position = "{741, 10}";
},
{
name = top;
position = "{412, 515}";
}
);
paths = (
{
closed = 1;
nodes = (
"724 -5 LINE",
"724 110 LINE",
"319 110 LINE SMOOTH",
"232 110 OFFCURVE",
"185 156 OFFCURVE",
"185 257 CURVE SMOOTH",
"185 358 OFFCURVE",
"232 405 OFFCURVE",
"319 405 CURVE",
"562 405 LINE SMOOTH",
"589 405 OFFCURVE",
"605 391 OFFCURVE",
"605 363 CURVE SMOOTH",
"605 335 OFFCURVE",
"588 318 OFFCURVE",
"562 318 CURVE SMOOTH",
"136 318 LINE",
"136 203 LINE",
"569 203 LINE SMOOTH",
"688 203 OFFCURVE",
"750 257 OFFCURVE",
"750 360 CURVE SMOOTH",
"750 463 OFFCURVE",
"686 520 OFFCURVE",
"569 520 CURVE SMOOTH",
"319 520 LINE",
"140 520 OFFCURVE",
"35 430 OFFCURVE",
"35 257 CURVE SMOOTH",
"35 85 OFFCURVE",
"140 -5 OFFCURVE",
"319 -5 CURVE SMOOTH"
);
}
);
};
layerId = master01;
paths = (
{
closed = 1;
nodes = (
"724 -5 LINE",
"724 110 LINE",
"319 110 LINE SMOOTH",
"232 110 OFFCURVE",
"185 156 OFFCURVE",
"185 257 CURVE SMOOTH",
"185 358 OFFCURVE",
"232 405 OFFCURVE",
"319 405 CURVE SMOOTH",
"562 405 LINE SMOOTH",
"589 405 OFFCURVE",
"605 391 OFFCURVE",
"605 363 CURVE SMOOTH",
"605 335 OFFCURVE",
"588 318 OFFCURVE",
"562 318 CURVE SMOOTH",
"136 318 LINE",
"136 203 LINE",
"569 203 LINE SMOOTH",
"688 203 OFFCURVE",
"750 257 OFFCURVE",
"750 360 CURVE SMOOTH",
"750 463 OFFCURVE",
"686 520 OFFCURVE",
"569 520 CURVE SMOOTH",
"319 520 LINE SMOOTH",
"140 520 OFFCURVE",
"35 430 OFFCURVE",
"35 257 CURVE SMOOTH",
"35 85 OFFCURVE",
"140 -5 OFFCURVE",
"319 -5 CURVE SMOOTH"
);
}
);
width = 785;
}
);
leftKerningGroup = o;
leftMetricsKey = o;
rightKerningGroup = o;
rightMetricsKey = o;
unicode = 0065;
},
{
glyphname = f;
lastChange = "2021-02-11 22:46:17 +0000";
layers = (
{
anchors = (
{
name = bottom;
position = "{283, 0}";
},
{
name = top;
position = "{283, 715}";
}
);
background = {
anchors = (
{
name = bottom;
position = "{283, 0}";
},
{
name = top;
position = "{283, 715}";
}
);
paths = (
{
closed = 1;
nodes = (
"314 0 LINE",
"314 537 LINE SMOOTH",
"314 578 OFFCURVE",
"332 598 OFFCURVE",
"374 598 CURVE SMOOTH",
"556 598 LINE",
"556 713 LINE",
"338 713 LINE SMOOTH",
"222 713 OFFCURVE",
"169 650 OFFCURVE",
"169 555 CURVE SMOOTH",
"169 0 LINE"
);
},
{
closed = 1;
nodes = (
"528 400 LINE",
"528 515 LINE",
"20 515 LINE",
"20 400 LINE"
);
}
);
};
layerId = master01;
paths = (
{
closed = 1;
nodes = (
"314 0 LINE",
"314 537 LINE SMOOTH",
"314 578 OFFCURVE",
"332 598 OFFCURVE",
"374 598 CURVE SMOOTH",
"556 598 LINE",
"556 713 LINE",
"338 713 LINE SMOOTH",
"222 713 OFFCURVE",
"169 650 OFFCURVE",
"169 555 CURVE SMOOTH",
"169 0 LINE"
);
},
{
closed = 1;
nodes = (
"528 400 LINE",
"528 515 LINE",
"20 515 LINE",
"20 400 LINE"
);
}
);
width = 566;
}
);
leftKerningGroup = f;
rightKerningGroup = f;
unicode = 0066;
},
{
glyphname = g;
lastChange = "2021-02-11 22:46:17 +0000";
layers = (
{
anchors = (
{
name = bottom;
position = "{374, -225}";
},
{
name = top;
position = "{374, 515}";
}
);
background = {
anchors = (
{
name = bottom;
position = "{374, -225}";
},
{
name = top;
position = "{374, 515}";
}
);
components = (
{
name = bellycomb;
transform = "{-1, 0, 0, 1, 744, 0}";
}
);
paths = (
{
closed = 1;
nodes = (
"515 -225 LINE SMOOTH",
"631 -225 OFFCURVE",
"684 -162 OFFCURVE",
"684 -67 CURVE SMOOTH",
"684 515 LINE",
"539 515 LINE",
"539 -49 LINE SMOOTH",
"539 -90 OFFCURVE",
"521 -110 OFFCURVE",
"479 -110 CURVE SMOOTH",
"177 -110 LINE",
"177 -225 LINE"
);
}
);
};
components = (
{
name = bellycomb;
transform = "{-1, 0, 0, 1, 744, 0}";
}
);
layerId = master01;
paths = (
{
closed = 1;
nodes = (
"515 -225 LINE SMOOTH",
"631 -225 OFFCURVE",
"684 -162 OFFCURVE",
"684 -67 CURVE SMOOTH",
"684 515 LINE",
"539 515 LINE",
"539 -49 LINE SMOOTH",
"539 -90 OFFCURVE",
"521 -110 OFFCURVE",
"479 -110 CURVE SMOOTH",
"177 -110 LINE",
"177 -225 LINE"
);
}
);
width = 739;
}
);
leftKerningGroup = o;
leftMetricsKey = o;
rightKerningGroup = l;
rightMetricsKey = "=|n";
unicode = 0067;
},
{
glyphname = h;
lastChange = "2021-02-11 22:46:17 +0000";
layers = (
{
anchors = (
{
name = bottom;
position = "{359, 0}";
},
{
name = center;
position = "{359, 358}";
},
{
name = top;
position = "{359, 715}";
}
);
background = {
anchors = (
{
name = bottom;
position = "{359, 0}";
},
{
name = center;
position = "{359, 358}";
},
{
name = top;
position = "{359, 715}";
}
);
components = (
{
name = n;
}
);
paths = (
{
closed = 1;
nodes = (
"200 454 LINE",
"200 715 LINE",
"55 715 LINE",
"55 454 LINE"
);
}
);
};
components = (
{
name = n;
}
);
layerId = master01;
paths = (
{
closed = 1;
nodes = (
"200 454 LINE",
"200 715 LINE",
"55 715 LINE",
"55 454 LINE"
);
}
);
width = 723;
}
);
leftKerningGroup = l;
leftMetricsKey = n;
rightKerningGroup = n;
rightMetricsKey = n;
unicode = 0068;
},
{
glyphname = k;
lastChange = "2021-02-11 22:46:17 +0000";
layers = (
{
anchors = (
{
name = bottom;
position = "{387, 0}";
},
{
name = top;
position = "{387, 715}";
}
);
background = {
anchors = (
{
name = bottom;
position = "{387, 0}";
},
{
name = top;
position = "{387, 715}";
}
);
components = (
{
name = l;
}
);
paths = (
{
closed = 1;
nodes = (
"546 199 LINE SMOOTH",
"665 199 OFFCURVE",
"727 253 OFFCURVE",
"727 355 CURVE SMOOTH",
"727 458 OFFCURVE",
"663 515 OFFCURVE",
"546 515 CURVE SMOOTH",
"90 515 LINE",
"90 401 LINE",
"539 401 LINE SMOOTH",
"566 401 OFFCURVE",
"582 386 OFFCURVE",
"582 358 CURVE SMOOTH",
"582 330 OFFCURVE",
"565 313 OFFCURVE",
"539 313 CURVE SMOOTH",
"93 313 LINE",
"93 199 LINE"
);
},
{
closed = 1;
nodes = (
"729 0 LINE",
"567 271 LINE",
"415 254 LINE",
"566 0 LINE"
);
}
);
};
components = (
{
name = l;
}
);
layerId = master01;
paths = (
{
closed = 1;
nodes = (
"546 199 LINE SMOOTH",
"665 199 OFFCURVE",
"727 253 OFFCURVE",
"727 355 CURVE SMOOTH",
"727 458 OFFCURVE",
"663 515 OFFCURVE",
"546 515 CURVE SMOOTH",
"90 515 LINE",
"90 401 LINE",
"539 401 LINE SMOOTH",
"566 401 OFFCURVE",
"582 386 OFFCURVE",
"582 358 CURVE SMOOTH",
"582 330 OFFCURVE",
"565 313 OFFCURVE",
"539 313 CURVE SMOOTH",
"93 313 LINE",
"93 199 LINE"
);
},
{
closed = 1;
nodes = (
"729 0 LINE",
"567 271 LINE",
"415 254 LINE",
"566 0 LINE"
);
}
);
width = 764;
}
);
leftKerningGroup = l;
leftMetricsKey = n;
rightKerningGroup = k;
unicode = 006B;
},
{
glyphname = l;
lastChange = "2021-02-11 22:46:17 +0000";
layers = (
{
anchors = (
{
name = bottom;
position = "{128, 0}";
},
{
name = center;
position = "{128, 358}";
},
{
name = top;
position = "{128, 715}";
},
{
name = topright;
position = "{230, 715}";
}
);
background = {
anchors = (
{
name = bottom;
position = "{128, 0}";
},
{
name = center;
position = "{128, 358}";
},
{
name = top;
position = "{128, 715}";
},
{
name = topright;
position = "{230, 715}";
}
);
paths = (
{
closed = 1;
nodes = (
"200 0 LINE",
"200 715 LINE",
"55 715 LINE",
"55 0 LINE"
);
}
);
};
layerId = master01;
paths = (
{
closed = 1;
nodes = (
"200 0 LINE",
"200 715 LINE",
"55 715 LINE",
"55 0 LINE"
);
}
);
width = 255;
}
);
leftKerningGroup = l;
leftMetricsKey = n;
rightKerningGroup = l;
rightMetricsKey = "=|n";
unicode = 006C;
},
{
glyphname = m;
lastChange = "2021-02-11 22:46:17 +0000";
layers = (
{
anchors = (
{
name = bottom;
position = "{474, 0}";
},
{
name = top;
position = "{474, 515}";
}
);
background = {
anchors = (
{
name = bottom;
position = "{474, 0}";
},
{
name = top;
position = "{474, 515}";
}
);
paths = (
{
closed = 1;
nodes = (
"200 0 LINE",
"200 445 LINE",
"157 400 LINE",
"446 400 LINE",
"401 445 LINE",
"401 0 LINE",
"546 0 LINE",
"546 445 LINE",
"501 400 LINE",
"685 400 LINE SMOOTH",
"727 400 OFFCURVE",
"747 380 OFFCURVE",
"747 339 CURVE SMOOTH",
"747 0 LINE",
"892 0 LINE",
"892 357 LINE SMOOTH",
"892 451 OFFCURVE",
"839 515 OFFCURVE",
"722 515 CURVE SMOOTH",
"55 515 LINE",
"55 0 LINE"
);
}
);
};
layerId = master01;
paths = (
{
closed = 1;
nodes = (
"200 0 LINE",
"200 445 LINE",
"157 400 LINE",
"446 400 LINE",
"401 445 LINE",
"401 0 LINE",
"546 0 LINE",
"546 445 LINE",
"501 400 LINE",
"685 400 LINE SMOOTH",
"727 400 OFFCURVE",
"747 380 OFFCURVE",
"747 339 CURVE SMOOTH",
"747 0 LINE",
"892 0 LINE",
"892 357 LINE SMOOTH",
"892 451 OFFCURVE",
"839 515 OFFCURVE",
"722 515 CURVE SMOOTH",
"55 515 LINE",
"55 0 LINE"
);
}
);
width = 942;
}
);
leftKerningGroup = n;
leftMetricsKey = n;
rightKerningGroup = n;
rightMetricsKey = n;
unicode = 006D;
},
{
glyphname = n;
lastChange = "2021-02-11 22:46:17 +0000";
layers = (
{
anchors = (
{
name = bottom;
position = "{364, 0}";
},
{
name = top;
position = "{364, 515}";
}
);
background = {
anchors = (
{
name = bottom;
position = "{364, 0}";
},
{
name = top;
position = "{364, 515}";
}
);
paths = (
{
closed = 1;
nodes = (
"200 0 LINE",
"200 444 LINE",
"157 400 LINE",
"468 400 LINE SMOOTH",
"509 400 OFFCURVE",
"528 380 OFFCURVE",
"528 340 CURVE SMOOTH",
"528 0 LINE",
"673 0 LINE",
"673 357 LINE SMOOTH",
"673 451 OFFCURVE",
"621 515 OFFCURVE",
"504 515 CURVE SMOOTH",
"55 515 LINE",
"55 0 LINE"
);
}
);
};
layerId = master01;
paths = (
{
closed = 1;
nodes = (
"200 0 LINE",
"200 444 LINE",
"157 400 LINE",
"468 400 LINE SMOOTH",
"509 400 OFFCURVE",
"528 380 OFFCURVE",
"528 340 CURVE SMOOTH",
"528 0 LINE",
"673 0 LINE",
"673 357 LINE SMOOTH",
"673 451 OFFCURVE",
"621 515 OFFCURVE",
"504 515 CURVE SMOOTH",
"55 515 LINE",
"55 0 LINE"
);
}
);
width = 723;
}
);
leftKerningGroup = n;
rightKerningGroup = n;
unicode = 006E;
},
{
glyphname = o;
lastChange = "2021-02-11 22:46:17 +0000";
layers = (
{
anchors = (
{
name = bottom;
position = "{412, 0}";
},
{
name = center;
position = "{412, 258}";
},
{
name = ogonek;
position = "{741, 10}";
},
{
name = top;
position = "{412, 515}";
},
{
name = topright;
position = "{803, 515}";
}
);
background = {
anchors = (
{
name = bottom;
position = "{412, 0}";
},
{
name = center;
position = "{412, 258}";
},
{
name = ogonek;
position = "{741, 10}";
},
{
name = top;
position = "{412, 515}";
},
{
name = topright;
position = "{803, 515}";
}
);
paths = (
{
closed = 1;
nodes = (
"504 -5 LINE SMOOTH",
"683 -5 OFFCURVE",
"788 85 OFFCURVE",
"788 257 CURVE SMOOTH",
"788 430 OFFCURVE",
"683 520 OFFCURVE",
"504 520 CURVE SMOOTH",
"319 520 LINE SMOOTH",
"140 520 OFFCURVE",
"35 430 OFFCURVE",
"35 257 CURVE SMOOTH",
"35 85 OFFCURVE",
"140 -5 OFFCURVE",
"319 -5 CURVE SMOOTH"
);
},
{
closed = 1;
nodes = (
"232 110 OFFCURVE",
"185 157 OFFCURVE",
"185 257 CURVE SMOOTH",
"185 358 OFFCURVE",
"232 405 OFFCURVE",
"319 405 CURVE SMOOTH",
"504 405 LINE SMOOTH",
"591 405 OFFCURVE",
"638 358 OFFCURVE",
"638 257 CURVE SMOOTH",
"638 157 OFFCURVE",
"591 110 OFFCURVE",
"504 110 CURVE SMOOTH",
"319 110 LINE SMOOTH"
);
}
);
};
layerId = master01;
paths = (
{
closed = 1;
nodes = (
"504 -5 LINE SMOOTH",
"683 -5 OFFCURVE",
"788 85 OFFCURVE",
"788 257 CURVE SMOOTH",
"788 430 OFFCURVE",
"683 520 OFFCURVE",
"504 520 CURVE SMOOTH",
"319 520 LINE SMOOTH",
"140 520 OFFCURVE",
"35 430 OFFCURVE",
"35 257 CURVE SMOOTH",
"35 85 OFFCURVE",
"140 -5 OFFCURVE",
"319 -5 CURVE SMOOTH"
);
},
{
closed = 1;
nodes = (
"232 110 OFFCURVE",
"185 157 OFFCURVE",
"185 257 CURVE SMOOTH",
"185 358 OFFCURVE",
"232 405 OFFCURVE",
"319 405 CURVE SMOOTH",
"504 405 LINE SMOOTH",
"591 405 OFFCURVE",
"638 358 OFFCURVE",
"638 257 CURVE SMOOTH",
"638 157 OFFCURVE",
"591 110 OFFCURVE",
"504 110 CURVE SMOOTH",
"319 110 LINE SMOOTH"
);
}
);
width = 823;
}
);
leftKerningGroup = o;
rightKerningGroup = o;
rightMetricsKey = "=|";
unicode = 006F;
},
{
glyphname = p;
lastChange = "2021-02-11 22:46:17 +0000";
layers = (
{
anchors = (
{
name = bottom;
position = "{375, 0}";
},
{
name = top;
position = "{375, 515}";
}
);
background = {
anchors = (
{
name = bottom;
position = "{375, 0}";
},
{
name = top;
position = "{375, 515}";
}
);
components = (
{
alignment = -1;
name = bellycomb;
transform = "{1, 0, 0, -1, 0, 515}";
}
);
paths = (
{
closed = 1;
nodes = (
"200 -225 LINE",
"200 515 LINE",
"55 515 LINE",
"55 -225 LINE"
);
}
);
};
components = (
{
alignment = -1;
name = bellycomb;
transform = "{1, 0, 0, -1, 0, 515}";
}
);
layerId = master01;
paths = (
{
closed = 1;
nodes = (
"200 -225 LINE",
"200 515 LINE",
"55 515 LINE",
"55 -225 LINE"
);
}
);
width = 744;
}
);
leftKerningGroup = n;
leftMetricsKey = n;
rightKerningGroup = o;
rightMetricsKey = o;
unicode = 0070;
},
{
glyphname = r;
lastChange = "2021-02-11 22:46:17 +0000";
layers = (
{
anchors = (
{
name = bottom;
position = "{337, 0}";
},
{
name = top;
position = "{337, 515}";
}
);
background = {
anchors = (
{
name = bottom;
position = "{337, 0}";
},
{
name = top;
position = "{337, 515}";
}
);
paths = (
{
closed = 1;
nodes = (
"202 0 LINE",
"202 444 LINE",
"157 399 LINE",
"411 399 LINE SMOOTH",
"453 399 OFFCURVE",
"471 379 OFFCURVE",
"471 339 CURVE SMOOTH",
"471 250 LINE",
"618 250 LINE",
"618 357 LINE SMOOTH",
"618 451 OFFCURVE",
"565 515 OFFCURVE",
"449 515 CURVE SMOOTH",
"55 515 LINE",
"55 0 LINE"
);
}
);
};
layerId = master01;
paths = (
{
closed = 1;
nodes = (
"202 0 LINE",
"202 444 LINE",
"157 399 LINE",
"411 399 LINE SMOOTH",
"453 399 OFFCURVE",
"471 379 OFFCURVE",
"471 339 CURVE SMOOTH",
"471 250 LINE",
"618 250 LINE",
"618 357 LINE SMOOTH",
"618 451 OFFCURVE",
"565 515 OFFCURVE",
"449 515 CURVE SMOOTH",
"55 515 LINE",
"55 0 LINE"
);
}
);
width = 643;
}
);
leftKerningGroup = n;
leftMetricsKey = n;
rightKerningGroup = r;
unicode = 0072;
},
{
glyphname = s;
lastChange = "2021-02-11 22:46:17 +0000";
layers = (
{
anchors = (
{
name = bottom;
position = "{373, 0}";
},
{
name = top;
position = "{373, 515}";
}
);
background = {
anchors = (
{
name = bottom;
position = "{373, 0}";
},
{
name = top;
position = "{373, 515}";
}
);
paths = (
{
closed = 1;
nodes = (
"554 -5 LINE SMOOTH",
"656 -5 OFFCURVE",
"715 56 OFFCURVE",
"715 160 CURVE SMOOTH",
"715 263 OFFCURVE",
"658 318 OFFCURVE",
"554 318 CURVE SMOOTH",
"218 318 LINE SMOOTH",
"192 318 OFFCURVE",
"175 335 OFFCURVE",
"175 363 CURVE SMOOTH",
"175 391 OFFCURVE",
"191 405 OFFCURVE",
"218 405 CURVE SMOOTH",
"667 405 LINE",
"667 520 LINE",
"211 520 LINE SMOOTH",
"94 520 OFFCURVE",
"30 463 OFFCURVE",
"30 360 CURVE SMOOTH",
"30 258 OFFCURVE",
"92 203 OFFCURVE",
"211 203 CURVE SMOOTH",
"528 203 LINE SMOOTH",
"554 203 OFFCURVE",
"570 187 OFFCURVE",
"570 157 CURVE SMOOTH",
"570 127 OFFCURVE",
"554 110 OFFCURVE",
"528 110 CURVE SMOOTH",
"38 110 LINE",
"38 -5 LINE"
);
}
);
};
layerId = master01;
paths = (
{
closed = 1;
nodes = (
"554 -5 LINE SMOOTH",
"656 -5 OFFCURVE",
"715 56 OFFCURVE",
"715 160 CURVE SMOOTH",
"715 263 OFFCURVE",
"658 318 OFFCURVE",
"554 318 CURVE SMOOTH",
"218 318 LINE SMOOTH",
"192 318 OFFCURVE",
"175 335 OFFCURVE",
"175 363 CURVE SMOOTH",
"175 391 OFFCURVE",
"191 405 OFFCURVE",
"218 405 CURVE SMOOTH",
"667 405 LINE",
"667 520 LINE",
"211 520 LINE SMOOTH",
"94 520 OFFCURVE",
"30 463 OFFCURVE",
"30 360 CURVE SMOOTH",
"30 258 OFFCURVE",
"92 203 OFFCURVE",
"211 203 CURVE SMOOTH",
"528 203 LINE SMOOTH",
"554 203 OFFCURVE",
"570 187 OFFCURVE",
"570 157 CURVE SMOOTH",
"570 127 OFFCURVE",
"554 110 OFFCURVE",
"528 110 CURVE SMOOTH",
"38 110 LINE",
"38 -5 LINE"
);
}
);
width = 745;
}
);
leftKerningGroup = s;
rightKerningGroup = s;
rightMetricsKey = "=|";
unicode = 0073;
},
{
glyphname = t;
lastChange = "2021-02-11 22:46:17 +0000";
layers = (
{
anchors = (
{
name = bottom;
position = "{275, 0}";
},
{
name = center;
position = "{275, 258}";
},
{
name = top;
position = "{275, 515}";
},
{
name = topright;
position = "{554, 515}";
}
);
background = {
anchors = (
{
name = bottom;
position = "{275, 0}";
},
{
name = center;
position = "{275, 258}";
},
{
name = top;
position = "{275, 515}";
},
{
name = topright;
position = "{554, 515}";
}
);
paths = (
{
closed = 1;
nodes = (
"541 0 LINE",
"541 115 LINE",
"359 115 LINE SMOOTH",
"317 115 OFFCURVE",
"299 135 OFFCURVE",
"299 176 CURVE SMOOTH",
"299 673 LINE",
"154 673 LINE",
"154 158 LINE SMOOTH",
"154 63 OFFCURVE",
"207 0 OFFCURVE",
"323 0 CURVE SMOOTH"
);
},
{
closed = 1;
nodes = (
"513 400 LINE",
"513 515 LINE",
"5 515 LINE",
"5 400 LINE"
);
}
);
};
layerId = master01;
paths = (
{
closed = 1;
nodes = (
"541 0 LINE",
"541 115 LINE",
"359 115 LINE SMOOTH",
"317 115 OFFCURVE",
"299 135 OFFCURVE",
"299 176 CURVE SMOOTH",
"299 673 LINE",
"154 673 LINE",
"154 158 LINE SMOOTH",
"154 63 OFFCURVE",
"207 0 OFFCURVE",
"323 0 CURVE SMOOTH"
);
},
{
closed = 1;
nodes = (
"513 400 LINE",
"513 515 LINE",
"5 515 LINE",
"5 400 LINE"
);
}
);
width = 561;
}
);
leftKerningGroup = t;
rightKerningGroup = t;
unicode = 0074;
},
{
glyphname = u;
lastChange = "2021-02-11 22:46:17 +0000";
layers = (
{
anchors = (
{
name = bottom;
position = "{359, 0}";
},
{
name = ogonek;
position = "{646, 10}";
},
{
name = top;
position = "{359, 515}";
},
{
name = topright;
position = "{698, 515}";
}
);
background = {
anchors = (
{
name = bottom;
position = "{359, 0}";
},
{
name = ogonek;
position = "{646, 10}";
},
{
name = top;
position = "{359, 515}";
},
{
name = topright;
position = "{698, 515}";
}
);
paths = (
{
closed = 1;
nodes = (
"499 0 LINE SMOOTH",
"616 0 OFFCURVE",
"668 64 OFFCURVE",
"668 158 CURVE SMOOTH",
"668 515 LINE",
"523 515 LINE",
"523 175 LINE SMOOTH",
"523 135 OFFCURVE",
"504 115 OFFCURVE",
"463 115 CURVE SMOOTH",
"255 115 LINE SMOOTH",
"214 115 OFFCURVE",
"195 135 OFFCURVE",
"195 175 CURVE SMOOTH",
"195 515 LINE",
"50 515 LINE",
"50 158 LINE SMOOTH",
"50 64 OFFCURVE",
"102 0 OFFCURVE",
"219 0 CURVE SMOOTH"
);
}
);
};
layerId = master01;
paths = (
{
closed = 1;
nodes = (
"499 0 LINE SMOOTH",
"616 0 OFFCURVE",
"668 64 OFFCURVE",
"668 158 CURVE SMOOTH",
"668 515 LINE",
"523 515 LINE",
"523 175 LINE SMOOTH",
"523 135 OFFCURVE",
"504 115 OFFCURVE",
"463 115 CURVE SMOOTH",
"255 115 LINE SMOOTH",
"214 115 OFFCURVE",
"195 135 OFFCURVE",
"195 175 CURVE SMOOTH",
"195 515 LINE",
"50 515 LINE",
"50 158 LINE SMOOTH",
"50 64 OFFCURVE",
"102 0 OFFCURVE",
"219 0 CURVE SMOOTH"
);
}
);
width = 718;
}
);
leftKerningGroup = u;
leftMetricsKey = "=|n";
rightKerningGroup = u;
rightMetricsKey = n;
unicode = 0075;
},
{
glyphname = v;
lastChange = "2021-02-11 22:46:17 +0000";
layers = (
{
anchors = (
{
name = bottom;
position = "{355, 0}";
},
{
name = top;
position = "{355, 515}";
}
);
background = {
anchors = (
{
name = bottom;
position = "{355, 0}";
},
{
name = top;
position = "{355, 515}";
}
);
paths = (
{
closed = 1;
nodes = (
"483 0 LINE",
"700 515 LINE",
"548 515 LINE",
"363 75 LINE",
"430 116 LINE",
"280 116 LINE",
"347 75 LINE",
"162 515 LINE",
"10 515 LINE",
"227 0 LINE"
);
}
);
};
layerId = master01;
paths = (
{
closed = 1;
nodes = (
"483 0 LINE",
"700 515 LINE",
"548 515 LINE",
"363 75 LINE",
"430 116 LINE",
"280 116 LINE",
"347 75 LINE",
"162 515 LINE",
"10 515 LINE",
"227 0 LINE"
);
}
);
width = 710;
}
);
leftKerningGroup = v;
rightKerningGroup = v;
rightMetricsKey = "=|";
unicode = 0076;
},
{
glyphname = w;
lastChange = "2021-02-11 22:46:17 +0000";
layers = (
{
anchors = (
{
name = bottom;
position = "{438, 0}";
},
{
name = top;
position = "{438, 515}";
}
);
background = {
anchors = (
{
name = bottom;
position = "{438, 0}";
},
{
name = top;
position = "{438, 515}";
}
);
paths = (
{
closed = 1;
nodes = (
"216 0 LINE",
"437 98 LINE",
"659 0 LINE",
"796 0 LINE",
"845 515 LINE",
"699 515 LINE",
"661 77 LINE",
"712 103 LINE",
"437 226 LINE",
"163 103 LINE",
"214 77 LINE",
"176 515 LINE",
"30 515 LINE",
"79 0 LINE"
);
},
{
closed = 1;
nodes = (
"510 147 LINE",
"510 515 LINE",
"365 515 LINE",
"365 147 LINE"
);
}
);
};
layerId = master01;
paths = (
{
closed = 1;
nodes = (
"216 0 LINE",
"437 98 LINE",
"659 0 LINE",
"796 0 LINE",
"845 515 LINE",
"699 515 LINE",
"661 77 LINE",
"712 103 LINE",
"437 226 LINE",
"163 103 LINE",
"214 77 LINE",
"176 515 LINE",
"30 515 LINE",
"79 0 LINE"
);
},
{
closed = 1;
nodes = (
"510 147 LINE",
"510 515 LINE",
"365 515 LINE",
"365 147 LINE"
);
}
);
width = 875;
}
);
leftKerningGroup = w;
rightKerningGroup = w;
rightMetricsKey = "=|";
unicode = 0077;
},
{
glyphname = x;
lastChange = "2021-02-11 22:46:17 +0000";
layers = (
{
anchors = (
{
name = bottom;
position = "{366, 0}";
},
{
name = top;
position = "{366, 515}";
}
);
background = {
anchors = (
{
name = bottom;
position = "{366, 0}";
},
{
name = top;
position = "{366, 515}";
}
);
paths = (
{
closed = 1;
nodes = (
"721 0 LINE",
"528 257 LINE",
"721 514 LINE",
"552 514 LINE",
"374 278 LINE",
"374 236 LINE",
"552 0 LINE"
);
},
{
closed = 1;
nodes = (
"180 0 LINE",
"357 237 LINE",
"357 277 LINE",
"180 514 LINE",
"10 514 LINE",
"204 257 LINE",
"10 0 LINE"
);
},
{
closed = 1;
nodes = (
"474 200 LINE",
"474 315 LINE",
"257 315 LINE",
"257 200 LINE"
);
}
);
};
layerId = master01;
paths = (
{
closed = 1;
nodes = (
"721 0 LINE",
"528 257 LINE",
"721 514 LINE",
"552 514 LINE",
"374 278 LINE",
"374 236 LINE",
"552 0 LINE"
);
},
{
closed = 1;
nodes = (
"180 0 LINE",
"357 237 LINE",
"357 277 LINE",
"180 514 LINE",
"10 514 LINE",
"204 257 LINE",
"10 0 LINE"
);
},
{
closed = 1;
nodes = (
"474 200 LINE",
"474 315 LINE",
"257 315 LINE",
"257 200 LINE"
);
}
);
width = 731;
}
);
leftKerningGroup = x;
rightKerningGroup = x;
rightMetricsKey = "=|";
unicode = 0078;
},
{
glyphname = y;
lastChange = "2021-02-11 22:46:17 +0000";
layers = (
{
anchors = (
{
name = bottom;
position = "{369, 0}";
},
{
name = top;
position = "{369, 515}";
}
);
background = {
anchors = (
{
name = bottom;
position = "{369, 0}";
},
{
name = top;
position = "{369, 515}";
}
);
components = (
{
name = n;
transform = "{-1, 0, 0, -1, 728, 515}";
}
);
paths = (
{
closed = 1;
nodes = (
"509 -225 LINE SMOOTH",
"625 -225 OFFCURVE",
"678 -162 OFFCURVE",
"678 -67 CURVE SMOOTH",
"678 515 LINE",
"533 515 LINE",
"533 -49 LINE SMOOTH",
"533 -90 OFFCURVE",
"515 -110 OFFCURVE",
"473 -110 CURVE SMOOTH",
"171 -110 LINE",
"171 -225 LINE"
);
}
);
};
components = (
{
name = n;
transform = "{-1, 0, 0, -1, 728, 515}";
}
);
layerId = master01;
paths = (
{
closed = 1;
nodes = (
"509 -225 LINE SMOOTH",
"625 -225 OFFCURVE",
"678 -162 OFFCURVE",
"678 -67 CURVE SMOOTH",
"678 515 LINE",
"533 515 LINE",
"533 -49 LINE SMOOTH",
"533 -90 OFFCURVE",
"515 -110 OFFCURVE",
"473 -110 CURVE SMOOTH",
"171 -110 LINE",
"171 -225 LINE"
);
}
);
width = 733;
}
);
leftKerningGroup = u;
leftMetricsKey = n;
rightKerningGroup = l;
rightMetricsKey = "=|";
unicode = 0079;
},
{
glyphname = z;
lastChange = "2021-02-11 22:46:17 +0000";
layers = (
{
anchors = (
{
name = bottom;
position = "{349, 0}";
},
{
name = center;
position = "{349, 258}";
},
{
name = top;
position = "{349, 515}";
}
);
background = {
anchors = (
{
name = bottom;
position = "{349, 0}";
},
{
name = center;
position = "{349, 258}";
},
{
name = top;
position = "{349, 515}";
}
);
paths = (
{
closed = 1;
nodes = (
"658 0 LINE",
"658 115 LINE",
"209 115 LINE",
"217 90 LINE",
"658 409 LINE",
"658 515 LINE",
"57 515 LINE",
"57 400 LINE",
"489 400 LINE",
"481 425 LINE",
"40 106 LINE",
"40 0 LINE"
);
}
);
};
layerId = master01;
paths = (
{
closed = 1;
nodes = (
"658 0 LINE",
"658 115 LINE",
"209 115 LINE",
"217 90 LINE",
"658 409 LINE",
"658 515 LINE",
"57 515 LINE",
"57 400 LINE",
"489 400 LINE",
"481 425 LINE",
"40 106 LINE",
"40 0 LINE"
);
}
);
width = 698.466;
}
);
leftKerningGroup = z;
rightKerningGroup = z;
rightMetricsKey = "=|";
unicode = 007A;
},
{
glyphname = braceleft;
lastChange = "2021-02-11 22:46:17 +0000";
layers = (
{
background = {
paths = (
{
closed = 1;
nodes = (
"443 -193 LINE",
"443 -88 LINE",
"347 -88 LINE SMOOTH",
"306 -88 OFFCURVE",
"289 -68 OFFCURVE",
"289 -25 CURVE SMOOTH",
"289 159 LINE SMOOTH",
"289 230 OFFCURVE",
"262 262 OFFCURVE",
"203 275 CURVE",
"262 288 OFFCURVE",
"289 320 OFFCURVE",
"289 391 CURVE SMOOTH",
"289 575 LINE SMOOTH",
"289 618 OFFCURVE",
"306 638 OFFCURVE",
"347 638 CURVE SMOOTH",
"443 638 LINE",
"443 743 LINE",
"340 743 LINE SMOOTH",
"223 743 OFFCURVE",
"169 679 OFFCURVE",
"169 585 CURVE SMOOTH",
"169 417 LINE SMOOTH",
"169 357 OFFCURVE",
"147 327 OFFCURVE",
"100 327 CURVE SMOOTH",
"40 327 LINE",
"40 223 LINE",
"100 223 LINE SMOOTH",
"147 223 OFFCURVE",
"169 193 OFFCURVE",
"169 133 CURVE SMOOTH",
"169 -35 LINE SMOOTH",
"169 -129 OFFCURVE",
"223 -193 OFFCURVE",
"340 -193 CURVE SMOOTH"
);
}
);
};
layerId = master01;
paths = (
{
closed = 1;
nodes = (
"443 -193 LINE",
"443 -88 LINE",
"347 -88 LINE SMOOTH",
"306 -88 OFFCURVE",
"289 -68 OFFCURVE",
"289 -25 CURVE SMOOTH",
"289 159 LINE SMOOTH",
"289 230 OFFCURVE",
"262 262 OFFCURVE",
"203 275 CURVE",
"262 288 OFFCURVE",
"289 320 OFFCURVE",
"289 391 CURVE SMOOTH",
"289 575 LINE SMOOTH",
"289 618 OFFCURVE",
"306 638 OFFCURVE",
"347 638 CURVE SMOOTH",
"443 638 LINE",
"443 743 LINE",
"340 743 LINE SMOOTH",
"223 743 OFFCURVE",
"169 679 OFFCURVE",
"169 585 CURVE SMOOTH",
"169 417 LINE SMOOTH",
"169 357 OFFCURVE",
"147 327 OFFCURVE",
"100 327 CURVE SMOOTH",
"40 327 LINE",
"40 223 LINE",
"100 223 LINE SMOOTH",
"147 223 OFFCURVE",
"169 193 OFFCURVE",
"169 133 CURVE SMOOTH",
"169 -35 LINE SMOOTH",
"169 -129 OFFCURVE",
"223 -193 OFFCURVE",
"340 -193 CURVE SMOOTH"
);
}
);
width = 453;
}
);
leftKerningGroup = H;
rightKerningGroup = parenleft;
rightMetricsKey = bracketleft;
unicode = 007B;
},
{
glyphname = bar;
lastChange = "2021-02-11 22:46:17 +0000";
layers = (
{
background = {
paths = (
{
closed = 1;
nodes = (
"190 -193 LINE",
"190 743 LINE",
"70 743 LINE",
"70 -193 LINE"
);
}
);
};
layerId = master01;
paths = (
{
closed = 1;
nodes = (
"190 -193 LINE",
"190 743 LINE",
"70 743 LINE",
"70 -193 LINE"
);
}
);
width = 260;
}
);
leftKerningGroup = l;
leftMetricsKey = H;
rightKerningGroup = l;
rightMetricsKey = H;
unicode = 007C;
},
{
glyphname = asciitilde;
lastChange = "2021-02-11 22:46:20 +0000";
layers = (
{
background = {
paths = (
{
closed = 1;
nodes = (
"563 234 OFFCURVE",
"622 291 OFFCURVE",
"622 391 CURVE SMOOTH",
"622 463 LINE",
"506 463 LINE",
"506 391 LINE SMOOTH",
"506 366 OFFCURVE",
"492 349 OFFCURVE",
"467 349 CURVE SMOOTH",
"201 349 LINE SMOOTH",
"99 349 OFFCURVE",
"40 293 OFFCURVE",
"40 193 CURVE SMOOTH",
"40 120 LINE",
"156 120 LINE",
"156 193 LINE SMOOTH",
"156 218 OFFCURVE",
"170 234 OFFCURVE",
"195 234 CURVE SMOOTH",
"461 234 LINE SMOOTH"
);
}
);
};
layerId = master01;
paths = (
{
closed = 1;
nodes = (
"156 120 LINE",
"156 193 LINE SMOOTH",
"156 218 OFFCURVE",
"170 234 OFFCURVE",
"195 234 CURVE SMOOTH",
"461 234 LINE SMOOTH",
"563 234 OFFCURVE",
"622 291 OFFCURVE",
"622 391 CURVE SMOOTH",
"622 463 LINE",
"506 463 LINE",
"506 391 LINE SMOOTH",
"506 366 OFFCURVE",
"492 349 OFFCURVE",
"467 349 CURVE SMOOTH",
"201 349 LINE SMOOTH",
"99 349 OFFCURVE",
"40 293 OFFCURVE",
"40 193 CURVE SMOOTH",
"40 120 LINE"
);
}
);
width = 662;
}
);
leftKerningGroup = hyphen;
leftMetricsKey = hyphen;
rightKerningGroup = hyphen;
rightMetricsKey = hyphen;
unicode = 007E;
},
{
glyphname = cent;
lastChange = "2021-02-11 22:46:17 +0000";
layers = (
{
background = {
components = (
{
alignment = -1;
name = c;
transform = "{1, 0, 0, 1, 0, 100}";
}
);
paths = (
{
closed = 1;
nodes = (
"472 -91 LINE",
"472 805 LINE",
"352 805 LINE",
"352 -91 LINE"
);
}
);
};
components = (
{
alignment = -1;
name = c;
transform = "{1, 0, 0, 1, 0, 100}";
}
);
layerId = master01;
paths = (
{
closed = 1;
nodes = (
"472 -91 LINE",
"472 805 LINE",
"352 805 LINE",
"352 -91 LINE"
);
}
);
width = 684;
}
);
leftKerningGroup = c;
leftMetricsKey = c;
rightKerningGroup = c;
rightMetricsKey = c;
unicode = 00A2;
},
{
glyphname = bullet;
lastChange = "2021-02-11 22:46:17 +0000";
layers = (
{
background = {
paths = (
{
closed = 1;
nodes = (
"347 178 OFFCURVE",
"427 258 OFFCURVE",
"427 357 CURVE SMOOTH",
"427 455 OFFCURVE",
"347 535 OFFCURVE",
"248 535 CURVE SMOOTH",
"150 535 OFFCURVE",
"70 455 OFFCURVE",
"70 357 CURVE SMOOTH",
"70 258 OFFCURVE",
"150 178 OFFCURVE",
"248 178 CURVE SMOOTH"
);
}
);
};
layerId = master01;
paths = (
{
closed = 1;
nodes = (
"347 178 OFFCURVE",
"427 258 OFFCURVE",
"427 357 CURVE SMOOTH",
"427 455 OFFCURVE",
"347 535 OFFCURVE",
"248 535 CURVE SMOOTH",
"150 535 OFFCURVE",
"70 455 OFFCURVE",
"70 357 CURVE SMOOTH",
"70 258 OFFCURVE",
"150 178 OFFCURVE",
"248 178 CURVE SMOOTH"
);
}
);
width = 497;
}
);
leftMetricsKey = H;
rightMetricsKey = "=|";
unicode = 2022;
},
{
glyphname = registered;
lastChange = "2021-02-11 22:46:17 +0000";
layers = (
{
background = {
paths = (
{
closed = 1;
nodes = (
"688 -60 OFFCURVE",
"864 126 OFFCURVE",
"864 357 CURVE SMOOTH",
"864 588 OFFCURVE",
"688 774 OFFCURVE",
"447 774 CURVE SMOOTH",
"206 774 OFFCURVE",
"30 588 OFFCURVE",
"30 357 CURVE SMOOTH",
"30 126 OFFCURVE",
"206 -60 OFFCURVE",
"447 -60 CURVE SMOOTH"
);
},
{
closed = 1;
nodes = (
"242 15 OFFCURVE",
"113 151 OFFCURVE",
"113 357 CURVE SMOOTH",
"113 563 OFFCURVE",
"242 699 OFFCURVE",
"447 699 CURVE SMOOTH",
"652 699 OFFCURVE",
"781 563 OFFCURVE",
"781 357 CURVE SMOOTH",
"781 151 OFFCURVE",
"652 15 OFFCURVE",
"447 15 CURVE SMOOTH"
);
},
{
closed = 1;
nodes = (
"351 138 LINE",
"351 301 LINE",
"493 301 LINE",
"427 339 LINE",
"549 138 LINE",
"670 138 LINE",
"540 342 LINE",
"527 301 LINE",
"617 301 OFFCURVE",
"664 360 OFFCURVE",
"664 438 CURVE SMOOTH",
"664 517 OFFCURVE",
"618 576 OFFCURVE",
"524 576 CURVE SMOOTH",
"252 576 LINE",
"252 138 LINE"
);
},
{
closed = 1;
nodes = (
"351 495 LINE",
"500 495 LINE SMOOTH",
"542 495 OFFCURVE",
"558 478 OFFCURVE",
"558 438 CURVE SMOOTH",
"558 399 OFFCURVE",
"542 382 OFFCURVE",
"500 382 CURVE SMOOTH",
"351 382 LINE"
);
}
);
};
layerId = master01;
paths = (
{
closed = 1;
nodes = (
"688 -60 OFFCURVE",
"864 126 OFFCURVE",
"864 357 CURVE SMOOTH",
"864 588 OFFCURVE",
"688 774 OFFCURVE",
"447 774 CURVE SMOOTH",
"206 774 OFFCURVE",
"30 588 OFFCURVE",
"30 357 CURVE SMOOTH",
"30 126 OFFCURVE",
"206 -60 OFFCURVE",
"447 -60 CURVE SMOOTH"
);
},
{
closed = 1;
nodes = (
"242 15 OFFCURVE",
"113 151 OFFCURVE",
"113 357 CURVE SMOOTH",
"113 563 OFFCURVE",
"242 699 OFFCURVE",
"447 699 CURVE SMOOTH",
"652 699 OFFCURVE",
"781 563 OFFCURVE",
"781 357 CURVE SMOOTH",
"781 151 OFFCURVE",
"652 15 OFFCURVE",
"447 15 CURVE SMOOTH"
);
},
{
closed = 1;
nodes = (
"351 138 LINE",
"351 301 LINE",
"493 301 LINE",
"427 339 LINE",
"549 138 LINE",
"670 138 LINE",
"540 342 LINE",
"527 301 LINE",
"617 301 OFFCURVE",
"664 360 OFFCURVE",
"664 438 CURVE SMOOTH",
"664 517 OFFCURVE",
"618 576 OFFCURVE",
"524 576 CURVE SMOOTH",
"252 576 LINE",
"252 138 LINE"
);
},
{
closed = 1;
nodes = (
"351 495 LINE",
"500 495 LINE SMOOTH",
"542 495 OFFCURVE",
"558 478 OFFCURVE",
"558 438 CURVE SMOOTH",
"558 399 OFFCURVE",
"542 382 OFFCURVE",
"500 382 CURVE SMOOTH",
"351 382 LINE"
);
}
);
width = 894;
},
{
associatedMasterId = master01;
layerId = "ED6EBBCA-B170-4CFD-ADC2-5BE986A3DFE7";
name = "Aug 23 20, 09:52";
paths = (
{
closed = 1;
nodes = (
"864 126 OFFCURVE",
"678 -60 OFFCURVE",
"447 -60 CURVE SMOOTH",
"217 -60 OFFCURVE",
"30 126 OFFCURVE",
"30 357 CURVE SMOOTH",
"30 587 OFFCURVE",
"217 774 OFFCURVE",
"447 774 CURVE SMOOTH",
"678 774 OFFCURVE",
"864 587 OFFCURVE",
"864 357 CURVE SMOOTH"
);
},
{
closed = 1;
nodes = (
"781 563 OFFCURVE",
"642 698 OFFCURVE",
"447 698 CURVE SMOOTH",
"253 698 OFFCURVE",
"113 563 OFFCURVE",
"113 357 CURVE SMOOTH",
"113 152 OFFCURVE",
"253 15 OFFCURVE",
"447 15 CURVE SMOOTH",
"642 15 OFFCURVE",
"781 152 OFFCURVE",
"781 357 CURVE SMOOTH"
);
},
{
closed = 1;
nodes = (
"549 138 LINE",
"448 301 LINE",
"351 301 LINE",
"351 138 LINE",
"252 138 LINE",
"252 576 LINE",
"529 576 LINE SMOOTH",
"623 576 OFFCURVE",
"664 517 OFFCURVE",
"664 438 CURVE SMOOTH",
"664 371 OFFCURVE",
"633 317 OFFCURVE",
"564 304 CURVE",
"670 138 LINE"
);
},
{
closed = 1;
nodes = (
"558 478 OFFCURVE",
"542 495 OFFCURVE",
"510 495 CURVE SMOOTH",
"351 495 LINE",
"351 382 LINE",
"510 382 LINE SMOOTH",
"542 382 OFFCURVE",
"558 399 OFFCURVE",
"558 438 CURVE SMOOTH"
);
}
);
width = 894.422;
}
);
leftKerningGroup = O;
leftMetricsKey = O;
rightKerningGroup = O;
rightMetricsKey = O;
unicode = 00AE;
},
{
glyphname = copyright;
lastChange = "2021-02-12 01:04:17 +0000";
layers = (
{
background = {
paths = (
{
closed = 1;
nodes = (
"688 -60 OFFCURVE",
"864 126 OFFCURVE",
"864 357 CURVE SMOOTH",
"864 588 OFFCURVE",
"688 774 OFFCURVE",
"447 774 CURVE SMOOTH",
"206 774 OFFCURVE",
"30 588 OFFCURVE",
"30 357 CURVE SMOOTH",
"30 126 OFFCURVE",
"206 -60 OFFCURVE",
"447 -60 CURVE SMOOTH"
);
},
{
closed = 1;
nodes = (
"619 138 LINE",
"619 218 LINE",
"464 218 LINE SMOOTH",
"376 218 OFFCURVE",
"333 269 OFFCURVE",
"333 357 CURVE SMOOTH",
"333 445 OFFCURVE",
"376 495 OFFCURVE",
"464 495 CURVE SMOOTH",
"619 495 LINE",
"619 576 LINE",
"455 576 LINE SMOOTH",
"311 576 OFFCURVE",
"227 489 OFFCURVE",
"227 357 CURVE SMOOTH",
"227 224 OFFCURVE",
"311 138 OFFCURVE",
"455 138 CURVE SMOOTH"
);
},
{
closed = 1;
nodes = (
"242 15 OFFCURVE",
"113 151 OFFCURVE",
"113 357 CURVE SMOOTH",
"113 563 OFFCURVE",
"242 699 OFFCURVE",
"447 699 CURVE SMOOTH",
"652 699 OFFCURVE",
"781 563 OFFCURVE",
"781 357 CURVE SMOOTH",
"781 151 OFFCURVE",
"652 15 OFFCURVE",
"447 15 CURVE SMOOTH"
);
}
);
};
layerId = master01;
paths = (
{
closed = 1;
nodes = (
"688 -60 OFFCURVE",
"864 126 OFFCURVE",
"864 357 CURVE SMOOTH",
"864 588 OFFCURVE",
"688 774 OFFCURVE",
"447 774 CURVE SMOOTH",
"206 774 OFFCURVE",
"30 588 OFFCURVE",
"30 357 CURVE SMOOTH",
"30 126 OFFCURVE",
"206 -60 OFFCURVE",
"447 -60 CURVE SMOOTH"
);
},
{
closed = 1;
nodes = (
"242 15 OFFCURVE",
"113 151 OFFCURVE",
"113 357 CURVE SMOOTH",
"113 563 OFFCURVE",
"242 699 OFFCURVE",
"447 699 CURVE SMOOTH",
"652 699 OFFCURVE",
"781 563 OFFCURVE",
"781 357 CURVE SMOOTH",
"781 151 OFFCURVE",
"652 15 OFFCURVE",
"447 15 CURVE SMOOTH"
);
},
{
closed = 1;
nodes = (
"619 138 LINE",
"619 218 LINE",
"464 218 LINE SMOOTH",
"376 218 OFFCURVE",
"333 269 OFFCURVE",
"333 357 CURVE SMOOTH",
"333 445 OFFCURVE",
"376 495 OFFCURVE",
"464 495 CURVE SMOOTH",
"619 495 LINE",
"619 576 LINE",
"455 576 LINE SMOOTH",
"311 576 OFFCURVE",
"227 489 OFFCURVE",
"227 357 CURVE SMOOTH",
"227 224 OFFCURVE",
"311 138 OFFCURVE",
"455 138 CURVE SMOOTH"
);
}
);
width = 894.421;
}
);
leftKerningGroup = O;
leftMetricsKey = O;
rightKerningGroup = O;
rightMetricsKey = O;
unicode = 00A9;
},
{
glyphname = trademark;
lastChange = "2021-02-11 22:46:20 +0000";
layers = (
{
background = {
paths = (
{
closed = 1;
nodes = (
"1086 312 LINE",
"1086 618 LINE",
"966 561 LINE",
"966 385 LINE",
"867 385 LINE",
"867 561 LINE",
"747 618 LINE",
"747 312 LINE",
"647 312 LINE",
"647 713 LINE",
"747 713 LINE",
"917 633 LINE",
"1086 713 LINE",
"1186 713 LINE",
"1186 312 LINE"
);
},
{
closed = 1;
nodes = (
"492 476 LINE",
"492 631 LINE",
"376 631 LINE",
"376 312 LINE",
"276 312 LINE",
"276 631 LINE",
"160 631 LINE",
"160 476 LINE",
"60 476 LINE",
"60 713 LINE",
"592 713 LINE",
"592 476 LINE"
);
}
);
};
layerId = master01;
paths = (
{
closed = 1;
nodes = (
"747 312 LINE",
"747 618 LINE",
"867 561 LINE",
"867 385 LINE",
"966 385 LINE",
"966 561 LINE",
"1086 618 LINE",
"1086 312 LINE",
"1186 312 LINE",
"1186 713 LINE",
"1086 713 LINE",
"917 633 LINE",
"747 713 LINE",
"647 713 LINE",
"647 312 LINE"
);
},
{
closed = 1;
nodes = (
"376 312 LINE",
"376 631 LINE",
"492 631 LINE",
"492 476 LINE",
"592 476 LINE",
"592 713 LINE",
"60 713 LINE",
"60 476 LINE",
"160 476 LINE",
"160 631 LINE",
"276 631 LINE",
"276 312 LINE"
);
}
);
width = 1245.92;
}
);
leftKerningGroup = quoteleft;
rightKerningGroup = quoteleft;
rightMetricsKey = "=|";
unicode = 2122;
},
{
glyphname = plusminus;
lastChange = "2021-02-11 22:46:17 +0000";
layers = (
{
background = {
paths = (
{
closed = 1;
nodes = (
"622 324 LINE",
"622 439 LINE",
"40 439 LINE",
"40 324 LINE"
);
},
{
closed = 1;
nodes = (
"622 0 LINE",
"622 115 LINE",
"40 115 LINE",
"40 0 LINE"
);
},
{
closed = 1;
nodes = (
"394 160 LINE",
"394 582 LINE",
"269 582 LINE",
"269 160 LINE"
);
}
);
};
layerId = master01;
paths = (
{
closed = 1;
nodes = (
"622 324 LINE",
"622 439 LINE",
"40 439 LINE",
"40 324 LINE"
);
},
{
closed = 1;
nodes = (
"622 0 LINE",
"622 115 LINE",
"40 115 LINE",
"40 0 LINE"
);
},
{
closed = 1;
nodes = (
"394 160 LINE",
"394 582 LINE",
"269 582 LINE",
"269 160 LINE"
);
}
);
width = 662;
},
{
associatedMasterId = master01;
background = {
paths = (
{
closed = 1;
nodes = (
"389 296 LINE",
"389 159 LINE",
"273 159 LINE",
"273 296 LINE",
"40 296 LINE",
"40 411 LINE",
"273 411 LINE",
"273 548 LINE",
"389 548 LINE",
"389 411 LINE",
"622 411 LINE",
"622 296 LINE"
);
},
{
closed = 1;
nodes = (
"40 0 LINE",
"40 116 LINE",
"622 116 LINE",
"622 0 LINE"
);
}
);
};
layerId = "30E5695F-9B57-42D8-9C84-FCF09D83B696";
name = "Aug 23 20, 09:57";
paths = (
{
closed = 1;
nodes = (
"389 296 LINE",
"389 159 LINE",
"273 159 LINE",
"273 296 LINE",
"40 296 LINE",
"40 411 LINE",
"273 411 LINE",
"273 548 LINE",
"389 548 LINE",
"389 411 LINE",
"622 411 LINE",
"622 296 LINE"
);
},
{
closed = 1;
nodes = (
"40 0 LINE",
"40 116 LINE",
"622 116 LINE",
"622 0 LINE"
);
}
);
width = 662.133;
}
);
leftKerningGroup = hyphen;
leftMetricsKey = plus;
rightKerningGroup = hyphen;
rightMetricsKey = plus;
unicode = 00B1;
},
{
glyphname = yen;
lastChange = "2021-02-11 22:46:17 +0000";
layers = (
{
background = {
components = (
{
name = Y;
}
);
paths = (
{
closed = 1;
nodes = (
"838 126 LINE",
"838 236 LINE",
"98 236 LINE",
"98 126 LINE"
);
},
{
closed = 1;
nodes = (
"392 336 LINE",
"392 446 LINE",
"98 446 LINE",
"98 336 LINE"
);
},
{
closed = 1;
nodes = (
"838 336 LINE",
"838 446 LINE",
"553 446 LINE",
"553 336 LINE"
);
}
);
};
components = (
{
name = Y;
}
);
layerId = master01;
paths = (
{
closed = 1;
nodes = (
"838 126 LINE",
"838 236 LINE",
"98 236 LINE",
"98 126 LINE"
);
},
{
closed = 1;
nodes = (
"392 336 LINE",
"392 446 LINE",
"98 446 LINE",
"98 336 LINE"
);
},
{
closed = 1;
nodes = (
"838 336 LINE",
"838 446 LINE",
"553 446 LINE",
"553 336 LINE"
);
}
);
width = 917;
},
{
associatedMasterId = master01;
layerId = "79DAD7A8-D891-4542-B05C-5ADD50B0120D";
name = "Aug 23 20, 09:59";
paths = (
{
closed = 1;
nodes = (
"672 444 LINE",
"817 444 LINE",
"817 334 LINE",
"582 334 LINE",
"523 261 LINE",
"523 236 LINE",
"817 236 LINE",
"817 126 LINE",
"523 126 LINE",
"523 0 LINE",
"370 0 LINE",
"370 126 LINE",
"77 126 LINE",
"77 236 LINE",
"370 236 LINE",
"370 261 LINE",
"311 334 LINE",
"77 334 LINE",
"77 444 LINE",
"221 444 LINE",
"0 713 LINE",
"186 713 LINE",
"446 391 LINE",
"707 713 LINE",
"893 713 LINE"
);
}
);
width = 912.976;
}
);
leftKerningGroup = yen;
leftMetricsKey = Y;
rightKerningGroup = yen;
rightMetricsKey = Y;
unicode = 00A5;
},
{
glyphname = endash;
lastChange = "2021-02-11 22:46:17 +0000";
layers = (
{
background = {
paths = (
{
closed = 1;
nodes = (
"618 199 LINE",
"618 315 LINE",
"0 315 LINE",
"0 199 LINE"
);
}
);
};
layerId = master01;
paths = (
{
closed = 1;
nodes = (
"618 199 LINE",
"618 315 LINE",
"0 315 LINE",
"0 199 LINE"
);
}
);
width = 618;
}
);
leftKerningGroup = hyphen;
rightKerningGroup = hyphen;
unicode = 2013;
},
{
glyphname = emdash;
lastChange = "2021-02-11 22:46:17 +0000";
layers = (
{
background = {
paths = (
{
closed = 1;
nodes = (
"838 199 LINE",
"838 315 LINE",
"0 315 LINE",
"0 199 LINE"
);
}
);
};
layerId = master01;
paths = (
{
closed = 1;
nodes = (
"838 199 LINE",
"838 315 LINE",
"0 315 LINE",
"0 199 LINE"
);
}
);
width = 838;
}
);
leftKerningGroup = hyphen;
rightKerningGroup = hyphen;
unicode = 2014;
},
{
glyphname = quoteleft;
lastChange = "2021-02-11 22:46:17 +0000";
layers = (
{
background = {
paths = (
{
closed = 1;
nodes = (
"222 419 LINE",
"222 562 LINE",
"151 562 LINE",
"151 713 LINE",
"60 713 LINE",
"60 419 LINE"
);
}
);
};
layerId = master01;
paths = (
{
closed = 1;
nodes = (
"222 419 LINE",
"222 562 LINE",
"151 562 LINE",
"151 713 LINE",
"60 713 LINE",
"60 419 LINE"
);
}
);
width = 262;
}
);
leftKerningGroup = quoteleft;
leftMetricsKey = "=|quoteright";
rightKerningGroup = quoteleft;
rightMetricsKey = "=|quoteright";
unicode = 2018;
},
{
glyphname = quoteright;
lastChange = "2021-02-11 22:46:17 +0000";
layers = (
{
background = {
paths = (
{
closed = 1;
nodes = (
"202 419 LINE",
"202 713 LINE",
"40 713 LINE",
"40 570 LINE",
"111 570 LINE",
"111 419 LINE"
);
}
);
};
layerId = master01;
paths = (
{
closed = 1;
nodes = (
"202 419 LINE",
"202 713 LINE",
"40 713 LINE",
"40 570 LINE",
"111 570 LINE",
"111 419 LINE"
);
}
);
width = 262;
}
);
leftKerningGroup = quoteleft;
rightKerningGroup = quoteleft;
unicode = 2019;
},
{
glyphname = divide;
lastChange = "2021-02-11 22:46:17 +0000";
layers = (
{
background = {
components = (
{
name = minus;
}
);
paths = (
{
closed = 1;
nodes = (
"385 388 OFFCURVE",
"428 432 OFFCURVE",
"428 485 CURVE SMOOTH",
"428 539 OFFCURVE",
"385 582 OFFCURVE",
"331 582 CURVE SMOOTH",
"277 582 OFFCURVE",
"234 539 OFFCURVE",
"234 485 CURVE SMOOTH",
"234 432 OFFCURVE",
"277 388 OFFCURVE",
"331 388 CURVE SMOOTH"
);
},
{
closed = 1;
nodes = (
"385 1 OFFCURVE",
"428 45 OFFCURVE",
"428 98 CURVE SMOOTH",
"428 152 OFFCURVE",
"385 195 OFFCURVE",
"331 195 CURVE SMOOTH",
"277 195 OFFCURVE",
"234 152 OFFCURVE",
"234 98 CURVE SMOOTH",
"234 45 OFFCURVE",
"277 1 OFFCURVE",
"331 1 CURVE SMOOTH"
);
}
);
};
components = (
{
name = minus;
}
);
layerId = master01;
paths = (
{
closed = 1;
nodes = (
"385 388 OFFCURVE",
"428 432 OFFCURVE",
"428 485 CURVE SMOOTH",
"428 539 OFFCURVE",
"385 582 OFFCURVE",
"331 582 CURVE SMOOTH",
"277 582 OFFCURVE",
"234 539 OFFCURVE",
"234 485 CURVE SMOOTH",
"234 432 OFFCURVE",
"277 388 OFFCURVE",
"331 388 CURVE SMOOTH"
);
},
{
closed = 1;
nodes = (
"385 1 OFFCURVE",
"428 45 OFFCURVE",
"428 98 CURVE SMOOTH",
"428 152 OFFCURVE",
"385 195 OFFCURVE",
"331 195 CURVE SMOOTH",
"277 195 OFFCURVE",
"234 152 OFFCURVE",
"234 98 CURVE SMOOTH",
"234 45 OFFCURVE",
"277 1 OFFCURVE",
"331 1 CURVE SMOOTH"
);
}
);
width = 662.133;
}
);
leftKerningGroup = hyphen;
leftMetricsKey = plus;
rightKerningGroup = hyphen;
rightMetricsKey = plus;
unicode = 00F7;
},
{
glyphname = AE;
lastChange = "2021-02-11 22:54:36 +0000";
layers = (
{
anchors = (
{
name = bottom;
position = "{728, 0}";
},
{
name = top;
position = "{729, 715}";
}
);
background = {
anchors = (
{
name = bottom;
position = "{728, 0}";
},
{
name = top;
position = "{728, 715}";
}
);
paths = (
{
closed = 1;
nodes = (
"1405 0 LINE",
"1405 130 LINE",
"788 130 LINE",
"831 86 LINE",
"831 629 LINE",
"788 585 LINE",
"1405 585 LINE",
"1405 715 LINE",
"671 715 LINE",
"671 0 LINE"
);
},
{
closed = 1;
nodes = (
"737 151 LINE",
"676 281 LINE",
"204 281 LINE",
"143 151 LINE"
);
},
{
closed = 1;
nodes = (
"186 0 LINE",
"567 626 LINE",
"477 585 LINE",
"684 585 LINE",
"729 715 LINE",
"432 715 LINE",
"10 0 LINE"
);
},
{
closed = 1;
nodes = (
"1347 297 LINE",
"1347 427 LINE",
"788 427 LINE",
"788 297 LINE"
);
}
);
};
layerId = master01;
paths = (
{
closed = 1;
nodes = (
"1405 0 LINE",
"1405 130 LINE",
"788 130 LINE",
"831 86 LINE",
"831 629 LINE",
"788 585 LINE",
"1405 585 LINE",
"1405 715 LINE",
"671 715 LINE",
"671 0 LINE"
);
},
{
closed = 1;
nodes = (
"737 151 LINE",
"676 281 LINE",
"254 281 LINE",
"183 151 LINE"
);
},
{
closed = 1;
nodes = (
"186 0 LINE",
"567 626 LINE",
"477 585 LINE",
"729 585 LINE",
"729 715 LINE",
"432 715 LINE",
"10 0 LINE"
);
},
{
closed = 1;
nodes = (
"1347 297 LINE",
"1347 427 LINE",
"788 427 LINE",
"788 297 LINE"
);
}
);
width = 1445;
}
);
leftKerningGroup = AE;
leftMetricsKey = A;
rightKerningGroup = E;
rightMetricsKey = E;
unicode = 00C6;
},
{
glyphname = Eth;
lastChange = "2021-02-11 22:46:17 +0000";
layers = (
{
background = {
components = (
{
name = D;
transform = "{1, 0, 0, 1, 45, 0}";
}
);
paths = (
{
closed = 1;
nodes = (
"511 304 LINE",
"511 419 LINE",
"5 419 LINE",
"5 304 LINE"
);
}
);
};
components = (
{
name = D;
transform = "{1, 0, 0, 1, 45, 0}";
}
);
layerId = master01;
paths = (
{
closed = 1;
nodes = (
"511 304 LINE",
"511 419 LINE",
"5 419 LINE",
"5 304 LINE"
);
}
);
width = 981;
}
);
leftKerningGroup = H;
rightKerningGroup = O;
unicode = 00D0;
},
{
glyphname = Oslash;
lastChange = "2021-02-11 22:46:17 +0000";
layers = (
{
background = {
components = (
{
name = O.ss01;
}
);
paths = (
{
closed = 1;
nodes = (
"227 -58 LINE",
"997 774 LINE",
"828 774 LINE",
"58 -58 LINE"
);
}
);
};
components = (
{
name = O.ss01;
}
);
layerId = master01;
paths = (
{
closed = 1;
nodes = (
"227 -58 LINE",
"997 774 LINE",
"828 774 LINE",
"58 -58 LINE"
);
}
);
width = 1056;
}
);
leftKerningGroup = O;
leftMetricsKey = O;
rightKerningGroup = O;
rightMetricsKey = O;
unicode = 00D8;
},
{
glyphname = OE;
lastChange = "2021-02-11 22:46:17 +0000";
layers = (
{
anchors = (
{
name = bottom;
position = "{725, 0}";
},
{
name = top;
position = "{725, 715}";
}
);
background = {
anchors = (
{
name = bottom;
position = "{725, 0}";
},
{
name = top;
position = "{725, 715}";
}
);
paths = (
{
closed = 1;
nodes = (
"1400 0 LINE",
"1400 130 LINE",
"783 130 LINE",
"826 86 LINE",
"826 629 LINE",
"783 585 LINE",
"1400 585 LINE",
"1400 715 LINE",
"666 715 LINE",
"666 0 LINE"
);
},
{
closed = 1;
nodes = (
"718 0 LINE",
"707 130 LINE",
"449 130 LINE SMOOTH",
"275 130 OFFCURVE",
"193 198 OFFCURVE",
"193 358 CURVE SMOOTH",
"193 517 OFFCURVE",
"275 585 OFFCURVE",
"449 585 CURVE SMOOTH",
"707 585 LINE",
"718 715 LINE",
"438 715 LINE SMOOTH",
"174 715 OFFCURVE",
"30 594 OFFCURVE",
"30 358 CURVE SMOOTH",
"30 121 OFFCURVE",
"174 0 OFFCURVE",
"438 0 CURVE SMOOTH"
);
},
{
closed = 1;
nodes = (
"1342 297 LINE",
"1342 427 LINE",
"783 427 LINE",
"783 297 LINE"
);
}
);
};
layerId = master01;
paths = (
{
closed = 1;
nodes = (
"1400 0 LINE",
"1400 130 LINE",
"783 130 LINE",
"826 86 LINE",
"826 629 LINE",
"783 585 LINE",
"1400 585 LINE",
"1400 715 LINE",
"666 715 LINE",
"666 0 LINE"
);
},
{
closed = 1;
nodes = (
"718 0 LINE",
"707 130 LINE",
"449 130 LINE SMOOTH",
"275 130 OFFCURVE",
"193 198 OFFCURVE",
"193 358 CURVE SMOOTH",
"193 517 OFFCURVE",
"275 585 OFFCURVE",
"449 585 CURVE SMOOTH",
"707 585 LINE",
"718 715 LINE",
"438 715 LINE SMOOTH",
"174 715 OFFCURVE",
"30 594 OFFCURVE",
"30 358 CURVE SMOOTH",
"30 121 OFFCURVE",
"174 0 OFFCURVE",
"438 0 CURVE SMOOTH"
);
},
{
closed = 1;
nodes = (
"1342 297 LINE",
"1342 427 LINE",
"783 427 LINE",
"783 297 LINE"
);
}
);
width = 1440;
}
);
leftKerningGroup = O;
leftMetricsKey = O;
rightKerningGroup = E;
rightMetricsKey = E;
unicode = 0152;
},
{
glyphname = Thorn;
lastChange = "2021-02-11 22:46:17 +0000";
layers = (
{
anchors = (
{
name = bottom;
position = "{462, 0}";
},
{
name = top;
position = "{462, 715}";
}
);
background = {
anchors = (
{
name = bottom;
position = "{462, 0}";
},
{
name = top;
position = "{462, 715}";
}
);
components = (
{
name = I;
}
);
paths = (
{
closed = 1;
nodes = (
"669 153 LINE SMOOTH",
"817 153 OFFCURVE",
"903 227 OFFCURVE",
"903 379 CURVE SMOOTH",
"903 531 OFFCURVE",
"817 605 OFFCURVE",
"669 605 CURVE",
"188 605 LINE",
"188 475 LINE",
"650 475 LINE",
"708 475 OFFCURVE",
"741 449 OFFCURVE",
"741 379 CURVE SMOOTH",
"741 309 OFFCURVE",
"708 283 OFFCURVE",
"650 283 CURVE SMOOTH",
"97 284 LINE",
"97 153 LINE"
);
}
);
};
components = (
{
name = I;
}
);
layerId = master01;
paths = (
{
closed = 1;
nodes = (
"669 153 LINE SMOOTH",
"817 153 OFFCURVE",
"903 227 OFFCURVE",
"903 379 CURVE SMOOTH",
"903 531 OFFCURVE",
"817 605 OFFCURVE",
"669 605 CURVE",
"188 605 LINE",
"188 475 LINE",
"650 475 LINE",
"708 475 OFFCURVE",
"741 449 OFFCURVE",
"741 379 CURVE SMOOTH",
"741 309 OFFCURVE",
"708 283 OFFCURVE",
"650 283 CURVE SMOOTH",
"97 284 LINE",
"97 153 LINE"
);
}
);
width = 933;
}
);
leftKerningGroup = H;
leftMetricsKey = H;
rightKerningGroup = Thorn;
rightMetricsKey = P;
unicode = 00DE;
},
{
color = 8;
glyphname = Germandbls;
lastChange = "2021-03-10 16:15:34 +0000";
layers = (
{
background = {
paths = (
{
closed = 1;
nodes = (
"215 0 LINE",
"215 504 LINE SMOOTH",
"215 571 OFFCURVE",
"240 599 OFFCURVE",
"292 599 CURVE SMOOTH",
"559 599 LINE SMOOTH",
"621 599 OFFCURVE",
"646 571 OFFCURVE",
"646 511 CURVE SMOOTH",
"646 451 OFFCURVE",
"621 418 OFFCURVE",
"559 418 CURVE SMOOTH",
"354 418 LINE",
"354 303 LINE",
"580 303 LINE SMOOTH",
"641 303 OFFCURVE",
"666 271 OFFCURVE",
"666 212 CURVE SMOOTH",
"666 152 OFFCURVE",
"641 115 OFFCURVE",
"580 115 CURVE SMOOTH",
"300 115 LINE",
"300 0 LINE",
"597 0 LINE SMOOTH",
"735 0 OFFCURVE",
"816 79 OFFCURVE",
"816 201 CURVE SMOOTH",
"816 272 OFFCURVE",
"791 336 OFFCURVE",
"705 364 CURVE",
"705 355 LINE",
"771 381 OFFCURVE",
"796 449 OFFCURVE",
"796 519 CURVE SMOOTH",
"796 642 OFFCURVE",
"715 714 OFFCURVE",
"577 714 CURVE SMOOTH",
"288 714 LINE SMOOTH",
"150 714 OFFCURVE",
"70 642 OFFCURVE",
"70 519 CURVE SMOOTH",
"70 0 LINE"
);
},
{
closed = 1;
nodes = (
"692 1 LINE SMOOTH",
"851 1 OFFCURVE",
"926 72 OFFCURVE",
"926 207 CURVE SMOOTH",
"926 312 OFFCURVE",
"883 364 OFFCURVE",
"786 395 CURVE",
"786 345 LINE",
"868 375 OFFCURVE",
"906 426 OFFCURVE",
"906 517 CURVE SMOOTH",
"906 649 OFFCURVE",
"831 715 OFFCURVE",
"672 715 CURVE SMOOTH",
"70 713 LINE",
"70 0 LINE"
);
},
{
closed = 1;
nodes = (
"230 343 LINE",
"187 299 LINE",
"673 299 LINE SMOOTH",
"734 299 OFFCURVE",
"764 272 OFFCURVE",
"764 215 CURVE SMOOTH",
"764 158 OFFCURVE",
"734 129 OFFCURVE",
"673 129 CURVE SMOOTH",
"187 129 LINE",
"230 86 LINE"
);
},
{
closed = 1;
nodes = (
"230 627 LINE",
"187 587 LINE",
"653 587 LINE SMOOTH",
"713 587 OFFCURVE",
"744 562 OFFCURVE",
"744 509 CURVE SMOOTH",
"744 456 OFFCURVE",
"713 427 OFFCURVE",
"653 427 CURVE SMOOTH",
"187 427 LINE",
"230 384 LINE"
);
},
{
closed = 1;
nodes = (
"230 0 LINE",
"230 504 LINE SMOOTH",
"230 571 OFFCURVE",
"255 599 OFFCURVE",
"307 599 CURVE SMOOTH",
"595 599 LINE SMOOTH",
"657 599 OFFCURVE",
"686 571 OFFCURVE",
"686 511 CURVE SMOOTH",
"686 451 OFFCURVE",
"657 418 OFFCURVE",
"595 418 CURVE SMOOTH",
"374 418 LINE",
"374 303 LINE",
"640 303 LINE SMOOTH",
"701 303 OFFCURVE",
"726 271 OFFCURVE",
"726 212 CURVE SMOOTH",
"726 152 OFFCURVE",
"701 115 OFFCURVE",
"640 115 CURVE SMOOTH",
"310 115 LINE",
"310 0 LINE",
"657 0 LINE SMOOTH",
"803 0 OFFCURVE",
"888 79 OFFCURVE",
"888 201 CURVE SMOOTH",
"888 272 OFFCURVE",
"860 336 OFFCURVE",
"765 364 CURVE",
"745 355 LINE",
"820 373 OFFCURVE",
"848 449 OFFCURVE",
"848 519 CURVE SMOOTH",
"848 642 OFFCURVE",
"763 714 OFFCURVE",
"617 714 CURVE SMOOTH",
"288 714 LINE SMOOTH",
"150 714 OFFCURVE",
"70 642 OFFCURVE",
"70 519 CURVE SMOOTH",
"70 0 LINE"
);
}
);
};
layerId = master01;
paths = (
{
closed = 1;
nodes = (
"230 0 LINE",
"230 494 LINE SMOOTH",
"230 559 OFFCURVE",
"255 586 OFFCURVE",
"307 586 CURVE SMOOTH",
"635 586 LINE SMOOTH",
"697 586 OFFCURVE",
"726 562 OFFCURVE",
"726 511 CURVE SMOOTH",
"726 455 OFFCURVE",
"697 424 OFFCURVE",
"635 424 CURVE SMOOTH",
"364 424 LINE",
"364 299 LINE",
"680 299 LINE SMOOTH",
"741 299 OFFCURVE",
"766 268 OFFCURVE",
"766 212 CURVE SMOOTH",
"766 161 OFFCURVE",
"741 129 OFFCURVE",
"680 129 CURVE SMOOTH",
"305 129 LINE",
"305 0 LINE",
"697 0 LINE SMOOTH",
"843 0 OFFCURVE",
"928 79 OFFCURVE",
"928 201 CURVE SMOOTH",
"928 284 OFFCURVE",
"883 351 OFFCURVE",
"785 366 CURVE",
"785 355 LINE",
"860 373 OFFCURVE",
"888 449 OFFCURVE",
"888 519 CURVE SMOOTH",
"888 642 OFFCURVE",
"803 714 OFFCURVE",
"657 714 CURVE SMOOTH",
"288 714 LINE SMOOTH",
"150 714 OFFCURVE",
"70 642 OFFCURVE",
"70 519 CURVE SMOOTH",
"70 0 LINE"
);
}
);
width = 968;
}
);
unicode = 1E9E;
},
{
glyphname = G.ss01;
lastChange = "2021-02-11 22:46:20 +0000";
layers = (
{
background = {
paths = (
{
closed = 1;
nodes = (
"510 274 LINE",
"857 274 LINE",
"857 404 LINE",
"510 404 LINE"
);
},
{
closed = 1;
nodes = (
"857 -5 LINE",
"857 404 LINE",
"697 404 LINE",
"697 80 LINE",
"740 125 LINE",
"432 125 LINE SMOOTH",
"275 125 OFFCURVE",
"193 195 OFFCURVE",
"193 358 CURVE SMOOTH",
"193 520 OFFCURVE",
"274 590 OFFCURVE",
"449 590 CURVE SMOOTH",
"818 590 LINE",
"818 720 LINE",
"438 720 LINE SMOOTH",
"173 720 OFFCURVE",
"30 597 OFFCURVE",
"30 358 CURVE SMOOTH",
"30 118 OFFCURVE",
"174 -5 OFFCURVE",
"418 -5 CURVE SMOOTH"
);
}
);
};
layerId = master01;
paths = (
{
closed = 1;
nodes = (
"857 -5 LINE",
"857 404 LINE",
"697 404 LINE",
"697 80 LINE",
"740 125 LINE",
"432 125 LINE SMOOTH",
"275 125 OFFCURVE",
"193 195 OFFCURVE",
"193 358 CURVE SMOOTH",
"193 520 OFFCURVE",
"274 590 OFFCURVE",
"449 590 CURVE SMOOTH",
"818 590 LINE",
"818 720 LINE",
"438 720 LINE SMOOTH",
"173 720 OFFCURVE",
"30 597 OFFCURVE",
"30 358 CURVE SMOOTH",
"30 118 OFFCURVE",
"174 -5 OFFCURVE",
"418 -5 CURVE SMOOTH"
);
},
{
closed = 1;
nodes = (
"857 274 LINE",
"857 404 LINE",
"510 404 LINE",
"510 274 LINE"
);
}
);
width = 927;
}
);
leftKerningGroup = O;
leftMetricsKey = G;
rightKerningGroup = O;
rightMetricsKey = G;
},
{
glyphname = M.ss01;
lastChange = "2021-02-11 22:53:33 +0000";
layers = (
{
background = {
paths = (
{
closed = 1;
nodes = (
"637 0 LINE",
"856 600 LINE",
"864 604 LINE",
"854 0 LINE",
"1014 0 LINE",
"1014 715 LINE",
"758 715 LINE",
"523 97 LINE",
"556 97 LINE",
"331 715 LINE",
"75 715 LINE",
"70 0 LINE",
"225 0 LINE",
"225 604 LINE",
"233 600 LINE",
"442 0 LINE"
);
},
{
closed = 1;
nodes = (
"930 715 LINE",
"803 715 LINE",
"803 590 LINE",
"930 590 LINE"
);
},
{
closed = 1;
nodes = (
"280 715 LINE",
"153 715 LINE",
"153 590 LINE",
"280 590 LINE"
);
}
);
};
layerId = master01;
paths = (
{
closed = 1;
nodes = (
"225 0 LINE",
"225 590 LINE",
"237 590 LINE",
"442 0 LINE",
"637 0 LINE",
"852 590 LINE",
"864 590 LINE",
"854 0 LINE",
"1014 0 LINE",
"1014 715 LINE",
"758 715 LINE",
"523 97 LINE",
"556 97 LINE",
"331 715 LINE",
"75 715 LINE",
"70 0 LINE"
);
}
);
width = 1084;
}
);
leftKerningGroup = H;
leftMetricsKey = H;
rightKerningGroup = H;
rightMetricsKey = H;
},
{
glyphname = O.ss01;
lastChange = "2021-02-12 00:10:25 +0000";
layers = (
{
background = {
paths = (
{
closed = 1;
nodes = (
"618 -5 LINE SMOOTH",
"882 -5 OFFCURVE",
"1026 118 OFFCURVE",
"1026 358 CURVE SMOOTH",
"1026 597 OFFCURVE",
"882 720 OFFCURVE",
"618 720 CURVE SMOOTH",
"438 720 LINE SMOOTH",
"174 720 OFFCURVE",
"30 597 OFFCURVE",
"30 358 CURVE SMOOTH",
"30 118 OFFCURVE",
"174 -5 OFFCURVE",
"438 -5 CURVE SMOOTH"
);
},
{
closed = 1;
nodes = (
"275 125 OFFCURVE",
"193 195 OFFCURVE",
"193 358 CURVE SMOOTH",
"193 520 OFFCURVE",
"275 590 OFFCURVE",
"449 590 CURVE SMOOTH",
"607 590 LINE SMOOTH",
"781 590 OFFCURVE",
"863 520 OFFCURVE",
"863 358 CURVE SMOOTH",
"863 195 OFFCURVE",
"781 125 OFFCURVE",
"607 125 CURVE SMOOTH",
"449 125 LINE SMOOTH"
);
},
{
closed = 1;
nodes = (
"618 -5 LINE SMOOTH",
"882 -5 OFFCURVE",
"1026 118 OFFCURVE",
"1026 358 CURVE SMOOTH",
"1026 597 OFFCURVE",
"882 720 OFFCURVE",
"618 720 CURVE SMOOTH",
"438 720 LINE SMOOTH",
"174 720 OFFCURVE",
"30 597 OFFCURVE",
"30 358 CURVE SMOOTH",
"30 118 OFFCURVE",
"174 -5 OFFCURVE",
"438 -5 CURVE SMOOTH"
);
},
{
closed = 1;
nodes = (
"275 125 OFFCURVE",
"193 195 OFFCURVE",
"193 358 CURVE SMOOTH",
"193 520 OFFCURVE",
"275 590 OFFCURVE",
"449 590 CURVE SMOOTH",
"607 590 LINE SMOOTH",
"781 590 OFFCURVE",
"863 520 OFFCURVE",
"863 358 CURVE SMOOTH",
"863 195 OFFCURVE",
"781 125 OFFCURVE",
"607 125 CURVE SMOOTH",
"452 125 LINE SMOOTH"
);
}
);
};
guideLines = (
{
position = "{1037, 357}";
}
);
layerId = master01;
paths = (
{
closed = 1;
nodes = (
"623 -5 LINE SMOOTH",
"880 -5 OFFCURVE",
"1026 118 OFFCURVE",
"1026 358 CURVE SMOOTH",
"1026 597 OFFCURVE",
"882 720 OFFCURVE",
"618 720 CURVE SMOOTH",
"438 720 LINE SMOOTH",
"174 720 OFFCURVE",
"30 597 OFFCURVE",
"30 358 CURVE SMOOTH",
"30 118 OFFCURVE",
"176 -5 OFFCURVE",
"431 -5 CURVE SMOOTH"
);
},
{
closed = 1;
nodes = (
"275 125 OFFCURVE",
"193 195 OFFCURVE",
"193 358 CURVE SMOOTH",
"193 520 OFFCURVE",
"275 590 OFFCURVE",
"449 590 CURVE SMOOTH",
"607 590 LINE SMOOTH",
"781 590 OFFCURVE",
"863 520 OFFCURVE",
"863 358 CURVE SMOOTH",
"863 195 OFFCURVE",
"781 125 OFFCURVE",
"607 125 CURVE SMOOTH",
"452 125 LINE SMOOTH"
);
}
);
width = 1056;
}
);
leftKerningGroup = O;
leftMetricsKey = O;
rightKerningGroup = O;
rightMetricsKey = O;
},
{
glyphname = T.ss01;
lastChange = "2021-02-11 22:51:12 +0000";
layers = (
{
background = {
paths = (
{
closed = 1;
nodes = (
"45 585 LINE",
"885 585 LINE",
"885 715 LINE",
"45 715 LINE"
);
},
{
closed = 1;
nodes = (
"545 0 LINE",
"545 715 LINE",
"385 715 LINE",
"385 0 LINE"
);
}
);
};
layerId = master01;
paths = (
{
closed = 1;
nodes = (
"545 0 LINE",
"545 715 LINE",
"385 715 LINE",
"385 0 LINE"
);
},
{
closed = 1;
nodes = (
"885 585 LINE",
"885 715 LINE",
"45 715 LINE",
"45 585 LINE"
);
}
);
width = 930;
}
);
leftKerningGroup = T.ss01;
leftMetricsKey = T;
rightKerningGroup = T.ss01;
rightMetricsKey = T;
},
{
glyphname = W.ss01;
lastChange = "2021-02-11 22:53:01 +0000";
layers = (
{
background = {
paths = (
{
closed = 1;
nodes = (
"487 715 LINE",
"318 115 LINE",
"310 111 LINE",
"210 715 LINE",
"50 715 LINE",
"170 0 LINE",
"426 0 LINE",
"601 618 LINE",
"568 618 LINE",
"743 0 LINE",
"999 0 LINE",
"1114 715 LINE",
"959 715 LINE",
"859 111 LINE",
"851 115 LINE",
"682 715 LINE"
);
},
{
closed = 1;
nodes = (
"254 0 LINE",
"381 0 LINE",
"381 125 LINE",
"254 125 LINE"
);
},
{
closed = 1;
nodes = (
"794 0 LINE",
"921 0 LINE",
"921 125 LINE",
"794 125 LINE"
);
}
);
};
layerId = master01;
paths = (
{
closed = 1;
nodes = (
"426 0 LINE",
"601 618 LINE",
"568 618 LINE",
"743 0 LINE",
"999 0 LINE",
"1114 715 LINE",
"959 715 LINE",
"861 125 LINE",
"848 125 LINE",
"682 715 LINE",
"487 715 LINE",
"321 125 LINE",
"308 125 LINE",
"210 715 LINE",
"50 715 LINE",
"170 0 LINE"
);
}
);
width = 1164;
}
);
leftKerningGroup = W;
leftMetricsKey = W;
rightKerningGroup = W;
rightMetricsKey = W;
},
{
glyphname = ae;
lastChange = "2021-02-11 22:46:17 +0000";
layers = (
{
background = {
paths = (
{
closed = 1;
nodes = (
"456 0 LINE SMOOTH",
"557 0 OFFCURVE",
"635 28 OFFCURVE",
"682 114 CURVE",
"646 114 LINE",
"694 27 OFFCURVE",
"772 0 OFFCURVE",
"874 0 CURVE SMOOTH",
"1279 0 LINE",
"1279 115 LINE",
"874 115 LINE SMOOTH",
"776 115 OFFCURVE",
"736 156 OFFCURVE",
"736 258 CURVE SMOOTH",
"736 359 OFFCURVE",
"775 400 OFFCURVE",
"874 400 CURVE SMOOTH",
"1117 400 LINE SMOOTH",
"1144 400 OFFCURVE",
"1160 388 OFFCURVE",
"1160 363 CURVE SMOOTH",
"1160 333 OFFCURVE",
"1143 315 OFFCURVE",
"1117 315 CURVE SMOOTH",
"206 315 LINE SMOOTH",
"87 315 OFFCURVE",
"25 260 OFFCURVE",
"25 155 CURVE SMOOTH",
"25 55 OFFCURVE",
"89 0 OFFCURVE",
"206 0 CURVE SMOOTH"
);
},
{
closed = 1;
nodes = (
"186 115 OFFCURVE",
"170 127 OFFCURVE",
"170 152 CURVE SMOOTH",
"170 182 OFFCURVE",
"187 200 OFFCURVE",
"213 200 CURVE SMOOTH",
"701 200 LINE",
"1124 200 LINE SMOOTH",
"1243 200 OFFCURVE",
"1305 255 OFFCURVE",
"1305 360 CURVE SMOOTH",
"1305 460 OFFCURVE",
"1241 515 OFFCURVE",
"1124 515 CURVE SMOOTH",
"874 515 LINE SMOOTH",
"773 515 OFFCURVE",
"695 487 OFFCURVE",
"648 401 CURVE",
"684 401 LINE",
"636 488 OFFCURVE",
"558 515 OFFCURVE",
"456 515 CURVE SMOOTH",
"91 515 LINE",
"91 400 LINE",
"456 400 LINE SMOOTH",
"555 400 OFFCURVE",
"594 359 OFFCURVE",
"594 256 CURVE SMOOTH",
"594 156 OFFCURVE",
"555 115 OFFCURVE",
"456 115 CURVE SMOOTH",
"213 115 LINE SMOOTH"
);
}
);
};
layerId = master01;
paths = (
{
closed = 1;
nodes = (
"456 0 LINE SMOOTH",
"557 0 OFFCURVE",
"635 28 OFFCURVE",
"682 114 CURVE",
"646 114 LINE",
"694 27 OFFCURVE",
"772 0 OFFCURVE",
"874 0 CURVE SMOOTH",
"1279 0 LINE",
"1279 115 LINE",
"874 115 LINE SMOOTH",
"776 115 OFFCURVE",
"736 156 OFFCURVE",
"736 258 CURVE SMOOTH",
"736 359 OFFCURVE",
"775 400 OFFCURVE",
"874 400 CURVE SMOOTH",
"1117 400 LINE SMOOTH",
"1144 400 OFFCURVE",
"1160 388 OFFCURVE",
"1160 363 CURVE SMOOTH",
"1160 333 OFFCURVE",
"1143 315 OFFCURVE",
"1117 315 CURVE SMOOTH",
"206 315 LINE SMOOTH",
"87 315 OFFCURVE",
"25 260 OFFCURVE",
"25 155 CURVE SMOOTH",
"25 55 OFFCURVE",
"89 0 OFFCURVE",
"206 0 CURVE SMOOTH"
);
},
{
closed = 1;
nodes = (
"186 115 OFFCURVE",
"170 127 OFFCURVE",
"170 152 CURVE SMOOTH",
"170 182 OFFCURVE",
"187 200 OFFCURVE",
"213 200 CURVE SMOOTH",
"701 200 LINE",
"1124 200 LINE SMOOTH",
"1243 200 OFFCURVE",
"1305 255 OFFCURVE",
"1305 360 CURVE SMOOTH",
"1305 460 OFFCURVE",
"1241 515 OFFCURVE",
"1124 515 CURVE SMOOTH",
"874 515 LINE SMOOTH",
"773 515 OFFCURVE",
"695 487 OFFCURVE",
"648 401 CURVE",
"684 401 LINE",
"636 488 OFFCURVE",
"558 515 OFFCURVE",
"456 515 CURVE SMOOTH",
"91 515 LINE",
"91 400 LINE",
"456 400 LINE SMOOTH",
"555 400 OFFCURVE",
"594 359 OFFCURVE",
"594 256 CURVE SMOOTH",
"594 156 OFFCURVE",
"555 115 OFFCURVE",
"456 115 CURVE SMOOTH",
"213 115 LINE SMOOTH"
);
}
);
width = 1340;
}
);
leftKerningGroup = a;
leftMetricsKey = a;
rightKerningGroup = o;
rightMetricsKey = e;
unicode = 00E6;
},
{
glyphname = eth;
lastChange = "2021-02-11 22:46:17 +0000";
layers = (
{
background = {
paths = (
{
closed = 1;
nodes = (
"504 -5 LINE SMOOTH",
"694 -5 OFFCURVE",
"794 103 OFFCURVE",
"794 308 CURVE SMOOTH",
"794 524 OFFCURVE",
"683 618 OFFCURVE",
"447 681 CURVE SMOOTH",
"133 765 LINE",
"133 635 LINE",
"415 559 LINE SMOOTH",
"596 510 OFFCURVE",
"644 468 OFFCURVE",
"661 338 CURVE",
"691 353 LINE",
"649 416 OFFCURVE",
"598 440 OFFCURVE",
"504 440 CURVE SMOOTH",
"319 440 LINE SMOOTH",
"142 440 OFFCURVE",
"35 366 OFFCURVE",
"35 217 CURVE SMOOTH",
"35 68 OFFCURVE",
"141 -5 OFFCURVE",
"319 -5 CURVE SMOOTH"
);
},
{
closed = 1;
nodes = (
"234 110 OFFCURVE",
"185 139 OFFCURVE",
"185 217 CURVE SMOOTH",
"185 295 OFFCURVE",
"235 325 OFFCURVE",
"319 325 CURVE SMOOTH",
"508 325 LINE SMOOTH",
"594 325 OFFCURVE",
"644 285 OFFCURVE",
"644 217 CURVE SMOOTH",
"644 149 OFFCURVE",
"595 110 OFFCURVE",
"510 110 CURVE SMOOTH",
"319 110 LINE SMOOTH"
);
},
{
closed = 1;
nodes = (
"625 665 LINE",
"625 760 LINE",
"237 560 LINE",
"237 465 LINE"
);
}
);
};
layerId = master01;
paths = (
{
closed = 1;
nodes = (
"504 -5 LINE SMOOTH",
"694 -5 OFFCURVE",
"794 103 OFFCURVE",
"794 308 CURVE SMOOTH",
"794 524 OFFCURVE",
"683 618 OFFCURVE",
"447 681 CURVE SMOOTH",
"133 765 LINE",
"133 635 LINE",
"415 559 LINE SMOOTH",
"596 510 OFFCURVE",
"644 468 OFFCURVE",
"661 338 CURVE",
"691 353 LINE",
"649 416 OFFCURVE",
"598 440 OFFCURVE",
"504 440 CURVE SMOOTH",
"319 440 LINE SMOOTH",
"142 440 OFFCURVE",
"35 366 OFFCURVE",
"35 217 CURVE SMOOTH",
"35 68 OFFCURVE",
"141 -5 OFFCURVE",
"319 -5 CURVE SMOOTH"
);
},
{
closed = 1;
nodes = (
"234 110 OFFCURVE",
"185 139 OFFCURVE",
"185 217 CURVE SMOOTH",
"185 295 OFFCURVE",
"235 325 OFFCURVE",
"319 325 CURVE SMOOTH",
"508 325 LINE SMOOTH",
"594 325 OFFCURVE",
"644 285 OFFCURVE",
"644 217 CURVE SMOOTH",
"644 149 OFFCURVE",
"595 110 OFFCURVE",
"510 110 CURVE SMOOTH",
"319 110 LINE SMOOTH"
);
},
{
closed = 1;
nodes = (
"625 665 LINE",
"625 760 LINE",
"237 560 LINE",
"237 465 LINE"
);
}
);
width = 829;
}
);
leftKerningGroup = o;
leftMetricsKey = o;
rightKerningGroup = eth;
rightMetricsKey = o;
unicode = 00F0;
},
{
glyphname = idotless;
lastChange = "2021-02-11 22:46:17 +0000";
layers = (
{
anchors = (
{
name = bottom;
position = "{128, 0}";
},
{
name = ogonek;
position = "{234, 10}";
},
{
name = top;
position = "{128, 515}";
}
);
background = {
anchors = (
{
name = bottom;
position = "{128, 0}";
},
{
name = ogonek;
position = "{234, 10}";
},
{
name = top;
position = "{128, 515}";
}
);
paths = (
{
closed = 1;
nodes = (
"200 0 LINE",
"200 515 LINE",
"55 515 LINE",
"55 0 LINE"
);
}
);
};
layerId = master01;
paths = (
{
closed = 1;
nodes = (
"200 0 LINE",
"200 515 LINE",
"55 515 LINE",
"55 0 LINE"
);
}
);
width = 255;
}
);
leftKerningGroup = l;
leftMetricsKey = n;
rightKerningGroup = l;
rightMetricsKey = "=|";
unicode = 0131;
},
{
glyphname = jdotless;
lastChange = "2021-02-11 22:46:20 +0000";
layers = (
{
anchors = (
{
name = bottom;
position = "{124, -225}";
},
{
name = top;
position = "{124, 515}";
}
);
background = {
anchors = (
{
name = bottom;
position = "{124, -225}";
},
{
name = top;
position = "{124, 515}";
}
);
paths = (
{
closed = 1;
nodes = (
"51 -225 LINE",
"51 515 LINE",
"196 515 LINE",
"196 -225 LINE"
);
}
);
};
layerId = master01;
paths = (
{
closed = 1;
nodes = (
"196 -225 LINE",
"196 515 LINE",
"51 515 LINE",
"51 -225 LINE"
);
}
);
width = 247;
}
);
leftKerningGroup = l;
rightKerningGroup = l;
unicode = 0237;
},
{
glyphname = oslash;
lastChange = "2021-02-11 22:46:17 +0000";
layers = (
{
background = {
components = (
{
name = o;
transform = "{1, 0, 0, 1, 1, 0}";
}
);
paths = (
{
closed = 1;
nodes = (
"204 -58 LINE",
"789 574 LINE",
"620 574 LINE",
"35 -58 LINE"
);
}
);
};
components = (
{
name = o;
transform = "{1, 0, 0, 1, 1, 0}";
}
);
guideLines = (
{
position = "{770, 257}";
}
);
layerId = master01;
paths = (
{
closed = 1;
nodes = (
"204 -58 LINE",
"789 574 LINE",
"620 574 LINE",
"35 -58 LINE"
);
}
);
width = 824;
}
);
leftKerningGroup = o;
leftMetricsKey = o;
rightKerningGroup = o;
rightMetricsKey = o;
unicode = 00F8;
},
{
glyphname = oe;
lastChange = "2021-02-11 22:46:17 +0000";
layers = (
{
anchors = (
{
name = bottom;
position = "{694, 0}";
},
{
name = top;
position = "{694, 515}";
}
);
background = {
anchors = (
{
name = bottom;
position = "{694, 0}";
},
{
name = top;
position = "{694, 515}";
}
);
paths = (
{
closed = 1;
nodes = (
"504 -5 LINE SMOOTH",
"625 -5 OFFCURVE",
"712 36 OFFCURVE",
"755 145 CURVE",
"671 145 LINE",
"714 36 OFFCURVE",
"801 -5 OFFCURVE",
"922 -5 CURVE SMOOTH",
"1327 -5 LINE",
"1327 110 LINE",
"922 110 LINE SMOOTH",
"835 110 OFFCURVE",
"788 156 OFFCURVE",
"788 257 CURVE SMOOTH",
"788 358 OFFCURVE",
"835 405 OFFCURVE",
"922 405 CURVE",
"1165 405 LINE SMOOTH",
"1192 405 OFFCURVE",
"1208 391 OFFCURVE",
"1208 363 CURVE SMOOTH",
"1208 335 OFFCURVE",
"1191 318 OFFCURVE",
"1165 318 CURVE SMOOTH",
"739 318 LINE",
"739 203 LINE",
"1172 203 LINE SMOOTH",
"1291 203 OFFCURVE",
"1353 257 OFFCURVE",
"1353 360 CURVE SMOOTH",
"1353 463 OFFCURVE",
"1289 520 OFFCURVE",
"1172 520 CURVE SMOOTH",
"922 520 LINE",
"805 520 OFFCURVE",
"719 481 OFFCURVE",
"674 376 CURVE",
"752 376 LINE",
"707 481 OFFCURVE",
"621 520 OFFCURVE",
"504 520 CURVE SMOOTH",
"319 520 LINE SMOOTH",
"140 520 OFFCURVE",
"35 430 OFFCURVE",
"35 257 CURVE SMOOTH",
"35 85 OFFCURVE",
"140 -5 OFFCURVE",
"319 -5 CURVE SMOOTH"
);
},
{
closed = 1;
nodes = (
"232 110 OFFCURVE",
"185 157 OFFCURVE",
"185 257 CURVE SMOOTH",
"185 358 OFFCURVE",
"232 405 OFFCURVE",
"319 405 CURVE SMOOTH",
"504 405 LINE SMOOTH",
"591 405 OFFCURVE",
"638 358 OFFCURVE",
"638 257 CURVE SMOOTH",
"638 157 OFFCURVE",
"591 110 OFFCURVE",
"504 110 CURVE SMOOTH",
"319 110 LINE SMOOTH"
);
}
);
};
layerId = master01;
paths = (
{
closed = 1;
nodes = (
"504 -5 LINE SMOOTH",
"625 -5 OFFCURVE",
"712 36 OFFCURVE",
"755 145 CURVE",
"671 145 LINE",
"714 36 OFFCURVE",
"801 -5 OFFCURVE",
"922 -5 CURVE SMOOTH",
"1327 -5 LINE",
"1327 110 LINE",
"922 110 LINE SMOOTH",
"835 110 OFFCURVE",
"788 156 OFFCURVE",
"788 257 CURVE SMOOTH",
"788 358 OFFCURVE",
"835 405 OFFCURVE",
"922 405 CURVE",
"1165 405 LINE SMOOTH",
"1192 405 OFFCURVE",
"1208 391 OFFCURVE",
"1208 363 CURVE SMOOTH",
"1208 335 OFFCURVE",
"1191 318 OFFCURVE",
"1165 318 CURVE SMOOTH",
"739 318 LINE",
"739 203 LINE",
"1172 203 LINE SMOOTH",
"1291 203 OFFCURVE",
"1353 257 OFFCURVE",
"1353 360 CURVE SMOOTH",
"1353 463 OFFCURVE",
"1289 520 OFFCURVE",
"1172 520 CURVE SMOOTH",
"922 520 LINE",
"805 520 OFFCURVE",
"719 481 OFFCURVE",
"674 376 CURVE",
"752 376 LINE",
"707 481 OFFCURVE",
"621 520 OFFCURVE",
"504 520 CURVE SMOOTH",
"319 520 LINE SMOOTH",
"140 520 OFFCURVE",
"35 430 OFFCURVE",
"35 257 CURVE SMOOTH",
"35 85 OFFCURVE",
"140 -5 OFFCURVE",
"319 -5 CURVE SMOOTH"
);
},
{
closed = 1;
nodes = (
"232 110 OFFCURVE",
"185 157 OFFCURVE",
"185 257 CURVE SMOOTH",
"185 358 OFFCURVE",
"232 405 OFFCURVE",
"319 405 CURVE SMOOTH",
"504 405 LINE SMOOTH",
"591 405 OFFCURVE",
"638 358 OFFCURVE",
"638 257 CURVE SMOOTH",
"638 157 OFFCURVE",
"591 110 OFFCURVE",
"504 110 CURVE SMOOTH",
"319 110 LINE SMOOTH"
);
}
);
width = 1388;
}
);
leftKerningGroup = o;
leftMetricsKey = o;
rightKerningGroup = o;
rightMetricsKey = e;
unicode = 0153;
},
{
glyphname = germandbls;
lastChange = "2021-02-11 22:46:17 +0000";
layers = (
{
background = {
paths = (
{
closed = 1;
nodes = (
"215 0 LINE",
"215 504 LINE SMOOTH",
"215 571 OFFCURVE",
"240 599 OFFCURVE",
"292 599 CURVE SMOOTH",
"559 599 LINE SMOOTH",
"621 599 OFFCURVE",
"646 571 OFFCURVE",
"646 511 CURVE SMOOTH",
"646 451 OFFCURVE",
"621 418 OFFCURVE",
"559 418 CURVE SMOOTH",
"354 418 LINE",
"354 303 LINE",
"580 303 LINE SMOOTH",
"641 303 OFFCURVE",
"666 271 OFFCURVE",
"666 212 CURVE SMOOTH",
"666 152 OFFCURVE",
"641 115 OFFCURVE",
"580 115 CURVE SMOOTH",
"300 115 LINE",
"300 0 LINE",
"597 0 LINE SMOOTH",
"735 0 OFFCURVE",
"816 79 OFFCURVE",
"816 201 CURVE SMOOTH",
"816 272 OFFCURVE",
"791 336 OFFCURVE",
"705 364 CURVE",
"705 355 LINE",
"771 381 OFFCURVE",
"796 449 OFFCURVE",
"796 519 CURVE SMOOTH",
"796 642 OFFCURVE",
"715 714 OFFCURVE",
"577 714 CURVE SMOOTH",
"288 714 LINE SMOOTH",
"150 714 OFFCURVE",
"70 642 OFFCURVE",
"70 519 CURVE SMOOTH",
"70 0 LINE"
);
}
);
};
layerId = master01;
paths = (
{
closed = 1;
nodes = (
"215 0 LINE",
"215 504 LINE SMOOTH",
"215 571 OFFCURVE",
"240 599 OFFCURVE",
"292 599 CURVE SMOOTH",
"559 599 LINE SMOOTH",
"621 599 OFFCURVE",
"646 571 OFFCURVE",
"646 511 CURVE SMOOTH",
"646 451 OFFCURVE",
"621 418 OFFCURVE",
"559 418 CURVE SMOOTH",
"354 418 LINE",
"354 303 LINE",
"580 303 LINE SMOOTH",
"641 303 OFFCURVE",
"666 271 OFFCURVE",
"666 212 CURVE SMOOTH",
"666 152 OFFCURVE",
"641 115 OFFCURVE",
"580 115 CURVE SMOOTH",
"300 115 LINE",
"300 0 LINE",
"597 0 LINE SMOOTH",
"735 0 OFFCURVE",
"816 79 OFFCURVE",
"816 201 CURVE SMOOTH",
"816 272 OFFCURVE",
"791 336 OFFCURVE",
"705 364 CURVE",
"705 355 LINE",
"771 381 OFFCURVE",
"796 449 OFFCURVE",
"796 519 CURVE SMOOTH",
"796 642 OFFCURVE",
"715 714 OFFCURVE",
"577 714 CURVE SMOOTH",
"288 714 LINE SMOOTH",
"150 714 OFFCURVE",
"70 642 OFFCURVE",
"70 519 CURVE SMOOTH",
"70 0 LINE"
);
}
);
width = 856;
}
);
leftKerningGroup = l;
leftMetricsKey = H;
rightKerningGroup = B;
rightMetricsKey = B;
unicode = 00DF;
},
{
glyphname = e.ss01;
lastChange = "2021-02-11 22:46:17 +0000";
layers = (
{
background = {
paths = (
{
closed = 1;
nodes = (
"734 -5 LINE",
"734 107 LINE",
"314 107 LINE SMOOTH",
"224 107 OFFCURVE",
"175 157 OFFCURVE",
"175 257 CURVE SMOOTH",
"175 359 OFFCURVE",
"224 408 OFFCURVE",
"314 408 CURVE",
"481 408 LINE SMOOTH",
"565 408 OFFCURVE",
"610 367 OFFCURVE",
"619 281 CURVE",
"653 314 LINE",
"136 314 LINE",
"136 204 LINE",
"756 204 LINE",
"759 224 OFFCURVE",
"760 244 OFFCURVE",
"760 260 CURVE SMOOTH",
"760 428 OFFCURVE",
"656 520 OFFCURVE",
"477 520 CURVE SMOOTH",
"319 520 LINE",
"140 520 OFFCURVE",
"35 430 OFFCURVE",
"35 257 CURVE SMOOTH",
"35 85 OFFCURVE",
"140 -5 OFFCURVE",
"319 -5 CURVE SMOOTH"
);
}
);
};
layerId = master01;
paths = (
{
closed = 1;
nodes = (
"734 -5 LINE",
"734 107 LINE",
"314 107 LINE SMOOTH",
"224 107 OFFCURVE",
"175 157 OFFCURVE",
"175 257 CURVE SMOOTH",
"175 359 OFFCURVE",
"224 408 OFFCURVE",
"314 408 CURVE",
"481 408 LINE SMOOTH",
"565 408 OFFCURVE",
"610 367 OFFCURVE",
"619 281 CURVE",
"653 314 LINE",
"136 314 LINE",
"136 204 LINE",
"756 204 LINE",
"759 224 OFFCURVE",
"760 244 OFFCURVE",
"760 260 CURVE SMOOTH",
"760 428 OFFCURVE",
"656 520 OFFCURVE",
"477 520 CURVE SMOOTH",
"319 520 LINE",
"140 520 OFFCURVE",
"35 430 OFFCURVE",
"35 257 CURVE SMOOTH",
"35 85 OFFCURVE",
"140 -5 OFFCURVE",
"319 -5 CURVE SMOOTH"
);
}
);
width = 795;
}
);
leftKerningGroup = o;
leftMetricsKey = e;
rightKerningGroup = o;
rightMetricsKey = e;
},
{
glyphname = ordfeminine;
lastChange = "2021-02-11 22:46:17 +0000";
layers = (
{
background = {
paths = (
{
closed = 1;
nodes = (
"611 292 LINE",
"611 586 LINE SMOOTH",
"611 667 OFFCURVE",
"573 715 OFFCURVE",
"475 715 CURVE SMOOTH",
"95 715 LINE",
"95 610 LINE",
"433 610 LINE SMOOTH",
"468 610 OFFCURVE",
"483 595 OFFCURVE",
"483 561 CURVE SMOOTH",
"483 514 LINE",
"530 561 LINE",
"177 561 LINE SMOOTH",
"89 561 OFFCURVE",
"40 510 OFFCURVE",
"40 424 CURVE SMOOTH",
"40 339 OFFCURVE",
"89 292 OFFCURVE",
"177 292 CURVE SMOOTH"
);
},
{
closed = 1;
nodes = (
"530 397 LINE",
"208 397 LINE SMOOTH",
"187 397 OFFCURVE",
"175 408 OFFCURVE",
"175 424 CURVE SMOOTH",
"175 445 OFFCURVE",
"188 456 OFFCURVE",
"208 456 CURVE SMOOTH",
"530 456 LINE",
"483 492 LINE",
"483 351 LINE"
);
}
);
};
layerId = master01;
paths = (
{
closed = 1;
nodes = (
"611 292 LINE",
"611 586 LINE SMOOTH",
"611 667 OFFCURVE",
"573 715 OFFCURVE",
"475 715 CURVE SMOOTH",
"95 715 LINE",
"95 610 LINE",
"433 610 LINE SMOOTH",
"468 610 OFFCURVE",
"483 595 OFFCURVE",
"483 561 CURVE SMOOTH",
"483 514 LINE",
"530 561 LINE",
"177 561 LINE SMOOTH",
"89 561 OFFCURVE",
"40 510 OFFCURVE",
"40 424 CURVE SMOOTH",
"40 339 OFFCURVE",
"89 292 OFFCURVE",
"177 292 CURVE SMOOTH"
);
},
{
closed = 1;
nodes = (
"530 397 LINE",
"208 397 LINE SMOOTH",
"187 397 OFFCURVE",
"175 408 OFFCURVE",
"175 424 CURVE SMOOTH",
"175 445 OFFCURVE",
"188 456 OFFCURVE",
"208 456 CURVE SMOOTH",
"530 456 LINE",
"483 492 LINE",
"483 351 LINE"
);
}
);
width = 651;
}
);
rightMetricsKey = "=|";
unicode = 00AA;
},
{
glyphname = ordmasculine;
lastChange = "2021-02-11 22:46:17 +0000";
layers = (
{
background = {
paths = (
{
closed = 1;
nodes = (
"418 288 LINE SMOOTH",
"562 288 OFFCURVE",
"647 362 OFFCURVE",
"647 504 CURVE SMOOTH",
"647 646 OFFCURVE",
"562 720 OFFCURVE",
"418 720 CURVE SMOOTH",
"269 720 LINE SMOOTH",
"125 720 OFFCURVE",
"40 646 OFFCURVE",
"40 504 CURVE SMOOTH",
"40 362 OFFCURVE",
"125 288 OFFCURVE",
"269 288 CURVE SMOOTH"
);
},
{
closed = 1;
nodes = (
"207 393 OFFCURVE",
"173 428 OFFCURVE",
"173 504 CURVE SMOOTH",
"173 580 OFFCURVE",
"207 615 OFFCURVE",
"269 615 CURVE SMOOTH",
"418 615 LINE SMOOTH",
"480 615 OFFCURVE",
"514 580 OFFCURVE",
"514 504 CURVE SMOOTH",
"514 428 OFFCURVE",
"480 393 OFFCURVE",
"418 393 CURVE SMOOTH",
"269 393 LINE SMOOTH"
);
}
);
};
layerId = master01;
paths = (
{
closed = 1;
nodes = (
"418 288 LINE SMOOTH",
"562 288 OFFCURVE",
"647 362 OFFCURVE",
"647 504 CURVE SMOOTH",
"647 646 OFFCURVE",
"562 720 OFFCURVE",
"418 720 CURVE SMOOTH",
"269 720 LINE SMOOTH",
"125 720 OFFCURVE",
"40 646 OFFCURVE",
"40 504 CURVE SMOOTH",
"40 362 OFFCURVE",
"125 288 OFFCURVE",
"269 288 CURVE SMOOTH"
);
},
{
closed = 1;
nodes = (
"207 393 OFFCURVE",
"173 428 OFFCURVE",
"173 504 CURVE SMOOTH",
"173 580 OFFCURVE",
"207 615 OFFCURVE",
"269 615 CURVE SMOOTH",
"418 615 LINE SMOOTH",
"480 615 OFFCURVE",
"514 580 OFFCURVE",
"514 504 CURVE SMOOTH",
"514 428 OFFCURVE",
"480 393 OFFCURVE",
"418 393 CURVE SMOOTH",
"269 393 LINE SMOOTH"
);
}
);
width = 687;
}
);
leftMetricsKey = ordfeminine;
rightMetricsKey = "=|";
unicode = 00BA;
},
{
glyphname = zero.ss01;
lastChange = "2021-02-11 22:46:17 +0000";
layers = (
{
background = {
paths = (
{
closed = 1;
nodes = (
"578 -5 LINE SMOOTH",
"836 -5 OFFCURVE",
"986 118 OFFCURVE",
"986 358 CURVE SMOOTH",
"986 597 OFFCURVE",
"836 720 OFFCURVE",
"578 720 CURVE SMOOTH",
"448 720 LINE SMOOTH",
"190 720 OFFCURVE",
"40 597 OFFCURVE",
"40 358 CURVE SMOOTH",
"40 118 OFFCURVE",
"190 -5 OFFCURVE",
"448 -5 CURVE SMOOTH"
);
},
{
closed = 1;
nodes = (
"291 125 OFFCURVE",
"203 195 OFFCURVE",
"203 358 CURVE SMOOTH",
"203 520 OFFCURVE",
"291 590 OFFCURVE",
"459 590 CURVE SMOOTH",
"567 590 LINE SMOOTH",
"735 590 OFFCURVE",
"823 520 OFFCURVE",
"823 358 CURVE SMOOTH",
"823 195 OFFCURVE",
"735 125 OFFCURVE",
"567 125 CURVE SMOOTH",
"459 125 LINE SMOOTH"
);
}
);
};
layerId = master01;
paths = (
{
closed = 1;
nodes = (
"578 -5 LINE SMOOTH",
"836 -5 OFFCURVE",
"986 118 OFFCURVE",
"986 358 CURVE SMOOTH",
"986 597 OFFCURVE",
"836 720 OFFCURVE",
"578 720 CURVE SMOOTH",
"448 720 LINE SMOOTH",
"190 720 OFFCURVE",
"40 597 OFFCURVE",
"40 358 CURVE SMOOTH",
"40 118 OFFCURVE",
"190 -5 OFFCURVE",
"448 -5 CURVE SMOOTH"
);
},
{
closed = 1;
nodes = (
"291 125 OFFCURVE",
"203 195 OFFCURVE",
"203 358 CURVE SMOOTH",
"203 520 OFFCURVE",
"291 590 OFFCURVE",
"459 590 CURVE SMOOTH",
"567 590 LINE SMOOTH",
"735 590 OFFCURVE",
"823 520 OFFCURVE",
"823 358 CURVE SMOOTH",
"823 195 OFFCURVE",
"735 125 OFFCURVE",
"567 125 CURVE SMOOTH",
"459 125 LINE SMOOTH"
);
}
);
width = 1026;
}
);
leftKerningGroup = zero;
leftMetricsKey = zero;
rightKerningGroup = zero;
rightMetricsKey = zero;
},
{
glyphname = onesuperior;
lastChange = "2021-02-12 01:05:11 +0000";
layers = (
{
background = {
paths = (
{
closed = 1;
nodes = (
"307 292 LINE",
"307 715 LINE",
"49 715 LINE",
"49 628 LINE",
"231 628 LINE",
"205 664 LINE",
"205 292 LINE"
);
},
{
closed = 1;
nodes = (
"467 292 LINE",
"467 378 LINE",
"45 378 LINE",
"45 292 LINE"
);
}
);
};
layerId = master01;
paths = (
{
closed = 1;
nodes = (
"307 302 LINE",
"307 715 LINE",
"49 715 LINE",
"49 628 LINE",
"231 628 LINE",
"205 664 LINE",
"205 302 LINE"
);
},
{
closed = 1;
nodes = (
"467 292 LINE",
"467 378 LINE",
"45 378 LINE",
"45 292 LINE"
);
}
);
width = 487;
}
);
leftKerningGroup = one.sups;
rightKerningGroup = one.sups;
unicode = 00B9;
},
{
glyphname = twosuperior;
lastChange = "2021-02-11 22:46:17 +0000";
layers = (
{
background = {
paths = (
{
closed = 1;
nodes = (
"491 292 LINE",
"491 378 LINE",
"142 378 LINE",
"142 411 LINE SMOOTH",
"142 442 OFFCURVE",
"159 460 OFFCURVE",
"193 460 CURVE SMOOTH",
"373 460 LINE SMOOTH",
"454 460 OFFCURVE",
"502 508 OFFCURVE",
"502 589 CURVE SMOOTH",
"502 667 OFFCURVE",
"454 714 OFFCURVE",
"373 714 CURVE SMOOTH",
"40 714 LINE",
"40 627 LINE",
"354 627 LINE SMOOTH",
"382 627 OFFCURVE",
"400 610 OFFCURVE",
"400 589 CURVE SMOOTH",
"400 563 OFFCURVE",
"382 546 OFFCURVE",
"354 546 CURVE SMOOTH",
"160 546 LINE SMOOTH",
"75 546 OFFCURVE",
"30 499 OFFCURVE",
"30 417 CURVE SMOOTH",
"30 292 LINE"
);
}
);
};
layerId = master01;
paths = (
{
closed = 1;
nodes = (
"491 292 LINE",
"491 378 LINE",
"142 378 LINE",
"142 411 LINE SMOOTH",
"142 442 OFFCURVE",
"159 460 OFFCURVE",
"193 460 CURVE SMOOTH",
"373 460 LINE SMOOTH",
"454 460 OFFCURVE",
"502 508 OFFCURVE",
"502 589 CURVE SMOOTH",
"502 667 OFFCURVE",
"454 714 OFFCURVE",
"373 714 CURVE SMOOTH",
"40 714 LINE",
"40 627 LINE",
"354 627 LINE SMOOTH",
"382 627 OFFCURVE",
"400 610 OFFCURVE",
"400 589 CURVE SMOOTH",
"400 563 OFFCURVE",
"382 546 OFFCURVE",
"354 546 CURVE SMOOTH",
"160 546 LINE SMOOTH",
"75 546 OFFCURVE",
"30 499 OFFCURVE",
"30 417 CURVE SMOOTH",
"30 292 LINE"
);
}
);
width = 532;
}
);
leftKerningGroup = two.sups;
rightKerningGroup = two.sups;
rightMetricsKey = "=|";
unicode = 00B2;
},
{
glyphname = threesuperior;
lastChange = "2021-02-12 01:05:21 +0000";
layers = (
{
background = {
paths = (
{
closed = 1;
nodes = (
"363 292 LINE SMOOTH",
"443 292 OFFCURVE",
"492 338 OFFCURVE",
"492 411 CURVE SMOOTH",
"492 459 OFFCURVE",
"473 493 OFFCURVE",
"438 507 CURVE",
"438 502 LINE",
"472 515 OFFCURVE",
"492 550 OFFCURVE",
"492 599 CURVE SMOOTH",
"492 671 OFFCURVE",
"444 714 OFFCURVE",
"363 714 CURVE SMOOTH",
"20 714 LINE",
"20 627 LINE",
"335 627 LINE SMOOTH",
"364 627 OFFCURVE",
"380 612 OFFCURVE",
"380 585 CURVE SMOOTH",
"380 559 OFFCURVE",
"365 547 OFFCURVE",
"335 547 CURVE",
"76 547 LINE",
"76 461 LINE",
"336 461 LINE SMOOTH",
"365 461 OFFCURVE",
"380 447 OFFCURVE",
"380 421 CURVE SMOOTH",
"380 395 OFFCURVE",
"364 379 OFFCURVE",
"336 379 CURVE SMOOTH",
"20 379 LINE",
"20 292 LINE"
);
}
);
};
layerId = master01;
paths = (
{
closed = 1;
nodes = (
"363 292 LINE SMOOTH",
"443 292 OFFCURVE",
"492 338 OFFCURVE",
"492 411 CURVE SMOOTH",
"492 459 OFFCURVE",
"473 493 OFFCURVE",
"438 507 CURVE",
"438 502 LINE",
"472 515 OFFCURVE",
"492 550 OFFCURVE",
"492 599 CURVE SMOOTH",
"492 671 OFFCURVE",
"444 714 OFFCURVE",
"363 714 CURVE SMOOTH",
"20 714 LINE",
"20 627 LINE",
"335 627 LINE SMOOTH",
"364 627 OFFCURVE",
"380 612 OFFCURVE",
"380 585 CURVE SMOOTH",
"380 559 OFFCURVE",
"365 547 OFFCURVE",
"335 547 CURVE SMOOTH",
"76 547 LINE",
"76 461 LINE",
"336 461 LINE SMOOTH",
"365 461 OFFCURVE",
"380 447 OFFCURVE",
"380 421 CURVE SMOOTH",
"380 395 OFFCURVE",
"364 379 OFFCURVE",
"336 379 CURVE SMOOTH",
"20 379 LINE",
"20 292 LINE"
);
}
);
width = 522;
}
);
leftKerningGroup = three.sups;
rightKerningGroup = three.sups;
unicode = 00B3;
},
{
glyphname = foursuperior;
lastChange = "2021-02-11 22:46:17 +0000";
layers = (
{
background = {
paths = (
{
closed = 1;
nodes = (
"542 369 LINE",
"542 456 LINE",
"99 456 LINE",
"117 427 LINE",
"359 714 LINE",
"233 714 LINE",
"10 447 LINE",
"10 369 LINE"
);
},
{
closed = 1;
nodes = (
"448 292 LINE",
"448 543 LINE",
"346 543 LINE",
"346 292 LINE"
);
}
);
};
layerId = master01;
paths = (
{
closed = 1;
nodes = (
"542 369 LINE",
"542 456 LINE",
"99 456 LINE",
"117 427 LINE",
"359 714 LINE",
"233 714 LINE",
"10 447 LINE",
"10 369 LINE"
);
},
{
closed = 1;
nodes = (
"448 292 LINE",
"448 543 LINE",
"346 543 LINE",
"346 292 LINE"
);
}
);
width = 557;
}
);
leftKerningGroup = four.sups;
rightKerningGroup = four.sups;
unicode = 2074;
},
{
color = 9;
glyphname = fraction;
lastChange = "2021-02-11 22:46:17 +0000";
layers = (
{
background = {
paths = (
{
closed = 1;
nodes = (
"705 525 LINE",
"907 715 LINE",
"756 715 LINE",
"554 525 LINE"
);
},
{
closed = 1;
nodes = (
"151 0 LINE",
"353 190 LINE",
"202 190 LINE",
"0 0 LINE"
);
}
);
};
layerId = master01;
paths = (
{
closed = 1;
nodes = (
"705 525 LINE",
"907 715 LINE",
"756 715 LINE",
"554 525 LINE"
);
},
{
closed = 1;
nodes = (
"151 0 LINE",
"353 190 LINE",
"202 190 LINE",
"0 0 LINE"
);
}
);
width = 907;
}
);
unicode = 2044;
},
{
glyphname = guilsinglleft;
lastChange = "2021-02-11 22:46:17 +0000";
layers = (
{
background = {
paths = (
{
closed = 1;
nodes = (
"317 157 LINE",
"95 343 LINE",
"95 240 LINE",
"317 425 LINE",
"317 582 LINE",
"40 349 LINE",
"40 234 LINE",
"317 0 LINE"
);
}
);
};
layerId = master01;
paths = (
{
closed = 1;
nodes = (
"317 157 LINE",
"95 343 LINE",
"95 240 LINE",
"317 425 LINE",
"317 582 LINE",
"40 349 LINE",
"40 234 LINE",
"317 0 LINE"
);
}
);
width = 357;
}
);
leftKerningGroup = guilsinglleft;
rightKerningGroup = guilsinglleft;
rightMetricsKey = "=|";
unicode = 2039;
},
{
glyphname = currency;
lastChange = "2021-02-12 01:06:10 +0000";
layers = (
{
background = {
paths = (
{
closed = 1;
nodes = (
"489 129 OFFCURVE",
"591 231 OFFCURVE",
"591 357 CURVE SMOOTH",
"591 482 OFFCURVE",
"489 584 OFFCURVE",
"364 584 CURVE SMOOTH",
"238 584 OFFCURVE",
"136 482 OFFCURVE",
"136 357 CURVE SMOOTH",
"136 231 OFFCURVE",
"238 129 OFFCURVE",
"364 129 CURVE SMOOTH"
);
},
{
closed = 1;
nodes = (
"328 241 LINE",
"247 322 LINE",
"30 106 LINE",
"111 25 LINE"
);
},
{
closed = 1;
nodes = (
"328 472 LINE",
"111 688 LINE",
"30 607 LINE",
"247 391 LINE"
);
},
{
closed = 1;
nodes = (
"310 260 OFFCURVE",
"267 303 OFFCURVE",
"267 357 CURVE SMOOTH",
"267 410 OFFCURVE",
"310 453 OFFCURVE",
"364 453 CURVE SMOOTH",
"417 453 OFFCURVE",
"460 410 OFFCURVE",
"460 357 CURVE SMOOTH",
"460 303 OFFCURVE",
"417 260 OFFCURVE",
"364 260 CURVE SMOOTH"
);
},
{
closed = 1;
nodes = (
"697 106 LINE",
"480 322 LINE",
"399 241 LINE",
"616 25 LINE"
);
},
{
closed = 1;
nodes = (
"697 607 LINE",
"616 688 LINE",
"399 472 LINE",
"480 391 LINE"
);
}
);
};
guideLines = (
{
angle = -45;
position = "{136, 584}";
}
);
layerId = master01;
paths = (
{
closed = 1;
nodes = (
"489 129 OFFCURVE",
"591 231 OFFCURVE",
"591 357 CURVE SMOOTH",
"591 482 OFFCURVE",
"489 584 OFFCURVE",
"364 584 CURVE SMOOTH",
"238 584 OFFCURVE",
"136 482 OFFCURVE",
"136 357 CURVE SMOOTH",
"136 231 OFFCURVE",
"238 129 OFFCURVE",
"364 129 CURVE SMOOTH"
);
},
{
closed = 1;
nodes = (
"310 260 OFFCURVE",
"267 303 OFFCURVE",
"267 357 CURVE SMOOTH",
"267 410 OFFCURVE",
"310 453 OFFCURVE",
"364 453 CURVE SMOOTH",
"417 453 OFFCURVE",
"460 410 OFFCURVE",
"460 357 CURVE SMOOTH",
"460 303 OFFCURVE",
"417 260 OFFCURVE",
"364 260 CURVE SMOOTH"
);
},
{
closed = 1;
nodes = (
"328 241 LINE",
"247 322 LINE",
"30 106 LINE",
"111 25 LINE"
);
},
{
closed = 1;
nodes = (
"328 472 LINE",
"111 688 LINE",
"30 607 LINE",
"247 391 LINE"
);
},
{
closed = 1;
nodes = (
"697 106 LINE",
"480 322 LINE",
"399 241 LINE",
"616 25 LINE"
);
},
{
closed = 1;
nodes = (
"697 607 LINE",
"616 688 LINE",
"399 472 LINE",
"480 391 LINE"
);
}
);
width = 727;
}
);
leftKerningGroup = o;
rightKerningGroup = o;
rightMetricsKey = "=|";
unicode = 00A4;
},
{
glyphname = euro;
lastChange = "2021-02-11 22:46:17 +0000";
layers = (
{
anchors = (
{
name = bottom;
position = "{501, 0}";
},
{
name = top;
position = "{501, 715}";
}
);
background = {
anchors = (
{
name = bottom;
position = "{501, 0}";
},
{
name = top;
position = "{501, 715}";
}
);
paths = (
{
closed = 1;
nodes = (
"790 -5 LINE",
"790 125 LINE",
"531 125 LINE SMOOTH",
"357 125 OFFCURVE",
"275 195 OFFCURVE",
"275 358 CURVE SMOOTH",
"275 520 OFFCURVE",
"357 590 OFFCURVE",
"531 590 CURVE SMOOTH",
"780 590 LINE",
"780 718 LINE",
"520 720 LINE SMOOTH",
"256 722 OFFCURVE",
"112 597 OFFCURVE",
"112 358 CURVE SMOOTH",
"112 118 OFFCURVE",
"256 -5 OFFCURVE",
"520 -5 CURVE SMOOTH"
);
},
{
closed = 1;
nodes = (
"640 196 LINE",
"640 306 LINE",
"0 306 LINE",
"0 196 LINE"
);
},
{
closed = 1;
nodes = (
"640 376 LINE",
"640 486 LINE",
"0 486 LINE",
"0 376 LINE"
);
}
);
};
layerId = master01;
paths = (
{
closed = 1;
nodes = (
"790 -5 LINE",
"790 125 LINE",
"531 125 LINE SMOOTH",
"357 125 OFFCURVE",
"275 195 OFFCURVE",
"275 358 CURVE SMOOTH",
"275 520 OFFCURVE",
"357 590 OFFCURVE",
"531 590 CURVE SMOOTH",
"780 590 LINE",
"780 718 LINE",
"520 720 LINE SMOOTH",
"256 722 OFFCURVE",
"112 597 OFFCURVE",
"112 358 CURVE SMOOTH",
"112 118 OFFCURVE",
"256 -5 OFFCURVE",
"520 -5 CURVE SMOOTH"
);
},
{
closed = 1;
nodes = (
"640 196 LINE",
"640 306 LINE",
"0 306 LINE",
"0 196 LINE"
);
},
{
closed = 1;
nodes = (
"640 376 LINE",
"640 486 LINE",
"0 486 LINE",
"0 376 LINE"
);
}
);
width = 820;
}
);
leftKerningGroup = O;
rightKerningGroup = C;
rightMetricsKey = C;
unicode = 20AC;
},
{
glyphname = sterling;
lastChange = "2021-02-11 22:46:17 +0000";
layers = (
{
background = {
paths = (
{
closed = 1;
nodes = (
"726 -5 LINE",
"726 125 LINE",
"259 125 LINE",
"259 97 LINE",
"352 163 LINE SMOOTH",
"430 218 OFFCURVE",
"455 257 OFFCURVE",
"455 319 CURVE SMOOTH",
"455 378 OFFCURVE",
"432 413 OFFCURVE",
"296 474 CURVE SMOOTH",
"256 492 LINE SMOOTH",
"203 516 OFFCURVE",
"190 531 OFFCURVE",
"190 553 CURVE SMOOTH",
"190 583 OFFCURVE",
"210 591 OFFCURVE",
"271 591 CURVE SMOOTH",
"663 591 LINE",
"663 720 LINE",
"234 720 LINE SMOOTH",
"106 720 OFFCURVE",
"30 658 OFFCURVE",
"30 551 CURVE SMOOTH",
"30 469 OFFCURVE",
"77 425 OFFCURVE",
"193 373 CURVE SMOOTH",
"224 359 LINE SMOOTH",
"284 332 OFFCURVE",
"294 324 OFFCURVE",
"294 304 CURVE SMOOTH",
"294 282 OFFCURVE",
"285 272 OFFCURVE",
"224 233 CURVE SMOOTH",
"35 111 LINE",
"34 -5 LINE"
);
},
{
closed = 1;
nodes = (
"587 276 LINE",
"587 386 LINE",
"380 386 LINE",
"380 276 LINE"
);
}
);
};
layerId = master01;
paths = (
{
closed = 1;
nodes = (
"726 -5 LINE",
"726 125 LINE",
"259 125 LINE",
"259 97 LINE",
"352 163 LINE SMOOTH",
"430 218 OFFCURVE",
"455 257 OFFCURVE",
"455 319 CURVE SMOOTH",
"455 378 OFFCURVE",
"432 413 OFFCURVE",
"296 474 CURVE SMOOTH",
"256 492 LINE SMOOTH",
"203 516 OFFCURVE",
"190 531 OFFCURVE",
"190 553 CURVE SMOOTH",
"190 583 OFFCURVE",
"210 591 OFFCURVE",
"271 591 CURVE SMOOTH",
"663 591 LINE",
"663 720 LINE",
"234 720 LINE SMOOTH",
"106 720 OFFCURVE",
"30 658 OFFCURVE",
"30 551 CURVE SMOOTH",
"30 469 OFFCURVE",
"77 425 OFFCURVE",
"193 373 CURVE SMOOTH",
"224 359 LINE SMOOTH",
"284 332 OFFCURVE",
"294 324 OFFCURVE",
"294 304 CURVE SMOOTH",
"294 282 OFFCURVE",
"285 272 OFFCURVE",
"224 233 CURVE SMOOTH",
"35 111 LINE",
"34 -5 LINE"
);
},
{
closed = 1;
nodes = (
"587 276 LINE",
"587 386 LINE",
"380 386 LINE",
"380 276 LINE"
);
}
);
width = 756;
}
);
leftKerningGroup = sterling;
leftMetricsKey = S;
rightKerningGroup = sterling;
rightMetricsKey = S;
unicode = 00A3;
},
{
glyphname = divisionslash;
lastChange = "2021-02-11 22:46:17 +0000";
layers = (
{
background = {
paths = (
{
closed = 1;
nodes = (
"134 0 LINE",
"493 715 LINE",
"364 715 LINE",
"5 0 LINE"
);
}
);
};
layerId = master01;
paths = (
{
closed = 1;
nodes = (
"134 0 LINE",
"493 715 LINE",
"364 715 LINE",
"5 0 LINE"
);
}
);
width = 498;
}
);
leftKerningGroup = slash;
leftMetricsKey = slash;
rightKerningGroup = slash;
rightMetricsKey = slash;
unicode = 2215;
},
{
glyphname = minus;
lastChange = "2021-02-11 22:46:17 +0000";
layers = (
{
background = {
paths = (
{
closed = 1;
nodes = (
"622 234 LINE",
"622 349 LINE",
"40 349 LINE",
"40 234 LINE"
);
}
);
};
layerId = master01;
paths = (
{
closed = 1;
nodes = (
"622 234 LINE",
"622 349 LINE",
"40 349 LINE",
"40 234 LINE"
);
}
);
width = 662;
}
);
leftKerningGroup = hyphen;
leftMetricsKey = plus;
rightKerningGroup = hyphen;
rightMetricsKey = plus;
unicode = 2212;
},
{
glyphname = logicalnot;
lastChange = "2021-02-11 22:46:17 +0000";
layers = (
{
background = {
components = (
{
name = minus;
}
);
paths = (
{
closed = 1;
nodes = (
"622 0 LINE",
"622 282 LINE",
"497 282 LINE",
"497 0 LINE"
);
}
);
};
components = (
{
name = minus;
}
);
layerId = master01;
paths = (
{
closed = 1;
nodes = (
"622 0 LINE",
"622 282 LINE",
"497 282 LINE",
"497 0 LINE"
);
}
);
width = 692;
}
);
leftKerningGroup = hyphen;
leftMetricsKey = plus;
rightKerningGroup = hyphen;
rightMetricsKey = H;
unicode = 00AC;
},
{
glyphname = micro;
lastChange = "2021-02-11 22:46:17 +0000";
layers = (
{
background = {
components = (
{
name = u;
transform = "{1, 0, 0, 1, 5, 0}";
}
);
paths = (
{
closed = 1;
nodes = (
"200 -225 LINE",
"200 515 LINE",
"55 515 LINE",
"55 -225 LINE"
);
}
);
};
components = (
{
name = u;
transform = "{1, 0, 0, 1, 5, 0}";
}
);
layerId = master01;
paths = (
{
closed = 1;
nodes = (
"200 -225 LINE",
"200 515 LINE",
"55 515 LINE",
"55 -225 LINE"
);
}
);
width = 723;
}
);
leftKerningGroup = n;
leftMetricsKey = n;
rightKerningGroup = u;
rightMetricsKey = u;
unicode = 00B5;
},
{
glyphname = paragraph;
lastChange = "2021-02-11 22:46:17 +0000";
layers = (
{
background = {
paths = (
{
closed = 1;
nodes = (
"445 263 LINE",
"445 715 LINE",
"264 715 LINE",
"116 715 OFFCURVE",
"30 641 OFFCURVE",
"30 489 CURVE SMOOTH",
"30 337 OFFCURVE",
"116 263 OFFCURVE",
"264 263 CURVE SMOOTH"
);
},
{
closed = 1;
nodes = (
"537 -225 LINE",
"537 715 LINE",
"392 715 LINE",
"392 -225 LINE"
);
},
{
closed = 1;
nodes = (
"767 -225 LINE",
"767 715 LINE",
"622 715 LINE",
"622 -225 LINE"
);
}
);
};
layerId = master01;
paths = (
{
closed = 1;
nodes = (
"445 263 LINE",
"445 715 LINE",
"264 715 LINE",
"116 715 OFFCURVE",
"30 641 OFFCURVE",
"30 489 CURVE SMOOTH",
"30 337 OFFCURVE",
"116 263 OFFCURVE",
"264 263 CURVE SMOOTH"
);
},
{
closed = 1;
nodes = (
"537 -225 LINE",
"537 715 LINE",
"392 715 LINE",
"392 -225 LINE"
);
},
{
closed = 1;
nodes = (
"767 -225 LINE",
"767 715 LINE",
"622 715 LINE",
"622 -225 LINE"
);
}
);
width = 837;
}
);
leftKerningGroup = paragraph;
leftMetricsKey = "=|P";
rightKerningGroup = H;
rightMetricsKey = H;
unicode = 00B6;
},
{
glyphname = section;
lastChange = "2021-02-11 22:46:17 +0000";
layers = (
{
background = {
paths = (
{
closed = 1;
nodes = (
"639 -225 LINE SMOOTH",
"787 -225 OFFCURVE",
"873 -151 OFFCURVE",
"873 -19 CURVE SMOOTH",
"873 59 OFFCURVE",
"844 116 OFFCURVE",
"772 139 CURVE",
"772 122 LINE",
"833 145 OFFCURVE",
"853 203 OFFCURVE",
"853 263 CURVE SMOOTH",
"853 386 OFFCURVE",
"767 447 OFFCURVE",
"629 447 CURVE SMOOTH",
"281 447 LINE SMOOTH",
"223 447 OFFCURVE",
"190 472 OFFCURVE",
"190 519 CURVE SMOOTH",
"190 569 OFFCURVE",
"223 591 OFFCURVE",
"281 591 CURVE SMOOTH",
"846 591 LINE",
"846 720 LINE",
"264 720 LINE SMOOTH",
"116 720 OFFCURVE",
"30 651 OFFCURVE",
"30 519 CURVE SMOOTH",
"30 446 OFFCURVE",
"58 389 OFFCURVE",
"131 366 CURVE",
"131 383 LINE",
"70 360 OFFCURVE",
"50 302 OFFCURVE",
"50 242 CURVE SMOOTH",
"50 119 OFFCURVE",
"136 58 OFFCURVE",
"274 58 CURVE SMOOTH",
"622 58 LINE SMOOTH",
"680 58 OFFCURVE",
"713 35 OFFCURVE",
"713 -19 CURVE SMOOTH",
"713 -70 OFFCURVE",
"680 -96 OFFCURVE",
"622 -96 CURVE SMOOTH",
"47 -96 LINE",
"47 -225 LINE"
);
},
{
closed = 1;
nodes = (
"238 187 OFFCURVE",
"210 210 OFFCURVE",
"210 253 CURVE SMOOTH",
"210 296 OFFCURVE",
"238 319 OFFCURVE",
"286 319 CURVE SMOOTH",
"617 319 LINE SMOOTH",
"665 319 OFFCURVE",
"693 296 OFFCURVE",
"693 253 CURVE SMOOTH",
"693 210 OFFCURVE",
"665 187 OFFCURVE",
"617 187 CURVE SMOOTH",
"286 187 LINE SMOOTH"
);
}
);
};
layerId = master01;
paths = (
{
closed = 1;
nodes = (
"639 -225 LINE SMOOTH",
"787 -225 OFFCURVE",
"873 -151 OFFCURVE",
"873 -19 CURVE SMOOTH",
"873 59 OFFCURVE",
"844 116 OFFCURVE",
"772 139 CURVE",
"772 122 LINE",
"833 145 OFFCURVE",
"853 203 OFFCURVE",
"853 263 CURVE SMOOTH",
"853 386 OFFCURVE",
"767 447 OFFCURVE",
"629 447 CURVE SMOOTH",
"281 447 LINE SMOOTH",
"223 447 OFFCURVE",
"190 472 OFFCURVE",
"190 519 CURVE SMOOTH",
"190 569 OFFCURVE",
"223 591 OFFCURVE",
"281 591 CURVE SMOOTH",
"846 591 LINE",
"846 720 LINE",
"264 720 LINE SMOOTH",
"116 720 OFFCURVE",
"30 651 OFFCURVE",
"30 519 CURVE SMOOTH",
"30 446 OFFCURVE",
"58 389 OFFCURVE",
"131 366 CURVE",
"131 383 LINE",
"70 360 OFFCURVE",
"50 302 OFFCURVE",
"50 242 CURVE SMOOTH",
"50 119 OFFCURVE",
"136 58 OFFCURVE",
"274 58 CURVE SMOOTH",
"622 58 LINE SMOOTH",
"680 58 OFFCURVE",
"713 35 OFFCURVE",
"713 -19 CURVE SMOOTH",
"713 -70 OFFCURVE",
"680 -96 OFFCURVE",
"622 -96 CURVE SMOOTH",
"47 -96 LINE",
"47 -225 LINE"
);
},
{
closed = 1;
nodes = (
"238 187 OFFCURVE",
"210 210 OFFCURVE",
"210 253 CURVE SMOOTH",
"210 296 OFFCURVE",
"238 319 OFFCURVE",
"286 319 CURVE SMOOTH",
"617 319 LINE SMOOTH",
"665 319 OFFCURVE",
"693 296 OFFCURVE",
"693 253 CURVE SMOOTH",
"693 210 OFFCURVE",
"665 187 OFFCURVE",
"617 187 CURVE SMOOTH",
"286 187 LINE SMOOTH"
);
}
);
width = 903;
}
);
leftKerningGroup = S;
leftMetricsKey = S;
rightKerningGroup = S;
rightMetricsKey = S;
unicode = 00A7;
},
{
glyphname = degree;
lastChange = "2021-02-11 22:46:17 +0000";
layers = (
{
background = {
paths = (
{
closed = 1;
nodes = (
"332 344 OFFCURVE",
"416 418 OFFCURVE",
"416 532 CURVE SMOOTH",
"416 646 OFFCURVE",
"332 720 OFFCURVE",
"228 720 CURVE SMOOTH",
"124 720 OFFCURVE",
"40 646 OFFCURVE",
"40 532 CURVE SMOOTH",
"40 418 OFFCURVE",
"124 344 OFFCURVE",
"228 344 CURVE SMOOTH"
);
},
{
closed = 1;
nodes = (
"184 452 OFFCURVE",
"148 484 OFFCURVE",
"148 532 CURVE SMOOTH",
"148 580 OFFCURVE",
"184 612 OFFCURVE",
"228 612 CURVE SMOOTH",
"272 612 OFFCURVE",
"308 580 OFFCURVE",
"308 532 CURVE SMOOTH",
"308 484 OFFCURVE",
"272 452 OFFCURVE",
"228 452 CURVE SMOOTH"
);
}
);
};
layerId = master01;
paths = (
{
closed = 1;
nodes = (
"332 344 OFFCURVE",
"416 418 OFFCURVE",
"416 532 CURVE SMOOTH",
"416 646 OFFCURVE",
"332 720 OFFCURVE",
"228 720 CURVE SMOOTH",
"124 720 OFFCURVE",
"40 646 OFFCURVE",
"40 532 CURVE SMOOTH",
"40 418 OFFCURVE",
"124 344 OFFCURVE",
"228 344 CURVE SMOOTH"
);
},
{
closed = 1;
nodes = (
"184 452 OFFCURVE",
"148 484 OFFCURVE",
"148 532 CURVE SMOOTH",
"148 580 OFFCURVE",
"184 612 OFFCURVE",
"228 612 CURVE SMOOTH",
"272 612 OFFCURVE",
"308 580 OFFCURVE",
"308 532 CURVE SMOOTH",
"308 484 OFFCURVE",
"272 452 OFFCURVE",
"228 452 CURVE SMOOTH"
);
}
);
width = 456;
}
);
leftKerningGroup = quoteleft;
rightKerningGroup = quoteleft;
rightMetricsKey = "=|";
unicode = 00B0;
},
{
glyphname = brokenbar;
lastChange = "2021-02-11 22:46:17 +0000";
layers = (
{
background = {
paths = (
{
closed = 1;
nodes = (
"190 318 LINE",
"190 743 LINE",
"70 743 LINE",
"70 318 LINE"
);
},
{
closed = 1;
nodes = (
"190 -193 LINE",
"190 232 LINE",
"70 232 LINE",
"70 -193 LINE"
);
}
);
};
layerId = master01;
paths = (
{
closed = 1;
nodes = (
"190 318 LINE",
"190 743 LINE",
"70 743 LINE",
"70 318 LINE"
);
},
{
closed = 1;
nodes = (
"190 -193 LINE",
"190 232 LINE",
"70 232 LINE",
"70 -193 LINE"
);
}
);
width = 260;
}
);
leftKerningGroup = l;
leftMetricsKey = bar;
rightKerningGroup = l;
rightMetricsKey = bar;
unicode = 00A6;
},
{
color = 9;
glyphname = dotaccentcomb;
lastChange = "2021-02-11 22:46:20 +0000";
layers = (
{
anchors = (
{
name = _top;
position = "{134, 515}";
},
{
name = top;
position = "{134, 713}";
}
);
background = {
anchors = (
{
name = _top;
position = "{134, 515}";
},
{
name = top;
position = "{134, 713}";
}
);
paths = (
{
closed = 1;
nodes = (
"207 713 LINE",
"60 713 LINE",
"60 600 LINE",
"207 600 LINE"
);
}
);
};
layerId = master01;
paths = (
{
closed = 1;
nodes = (
"207 600 LINE",
"207 713 LINE",
"60 713 LINE",
"60 600 LINE"
);
}
);
width = 267;
}
);
unicode = 0307;
},
{
color = 9;
glyphname = gravecomb;
lastChange = "2021-02-11 22:46:20 +0000";
layers = (
{
anchors = (
{
name = _top;
position = "{345, 515}";
},
{
name = top;
position = "{239, 733}";
}
);
background = {
anchors = (
{
name = _top;
position = "{345, 515}";
},
{
name = top;
position = "{239, 733}";
}
);
paths = (
{
closed = 1;
nodes = (
"237 730 LINE",
"60 730 LINE",
"272 580 LINE",
"417 580 LINE"
);
}
);
};
layerId = master01;
paths = (
{
closed = 1;
nodes = (
"417 580 LINE",
"237 730 LINE",
"60 730 LINE",
"272 580 LINE"
);
}
);
width = 477;
}
);
leftMetricsKey = dieresiscomb;
rightMetricsKey = dieresiscomb;
unicode = 0300;
},
{
color = 9;
glyphname = circumflexcomb;
lastChange = "2021-02-11 22:46:20 +0000";
layers = (
{
anchors = (
{
name = _top;
position = "{328, 515}";
},
{
name = top;
position = "{328, 730}";
}
);
background = {
anchors = (
{
name = _top;
position = "{328, 515}";
},
{
name = top;
position = "{328, 730}";
}
);
paths = (
{
closed = 1;
nodes = (
"415 730 LINE",
"238 730 LINE",
"450 580 LINE",
"595 580 LINE"
);
},
{
closed = 1;
nodes = (
"205 580 LINE",
"417 730 LINE",
"240 730 LINE",
"60 580 LINE"
);
}
);
};
layerId = master01;
paths = (
{
closed = 1;
nodes = (
"595 580 LINE",
"415 730 LINE",
"238 730 LINE",
"450 580 LINE"
);
},
{
closed = 1;
nodes = (
"205 580 LINE",
"417 730 LINE",
"240 730 LINE",
"60 580 LINE"
);
}
);
width = 655;
}
);
leftMetricsKey = dotaccentcomb;
rightMetricsKey = dotaccentcomb;
unicode = 0302;
},
{
color = 9;
glyphname = ringcomb;
lastChange = "2021-02-11 22:46:20 +0000";
layers = (
{
anchors = (
{
name = _top;
position = "{231, 515}";
},
{
name = top;
position = "{231, 751}";
}
);
background = {
anchors = (
{
name = _top;
position = "{231, 515}";
},
{
name = top;
position = "{231, 751}";
}
);
paths = (
{
closed = 1;
nodes = (
"367 560 OFFCURVE",
"402 597 OFFCURVE",
"402 656 CURVE SMOOTH",
"402 713 OFFCURVE",
"367 750 OFFCURVE",
"291 750 CURVE SMOOTH",
"171 750 LINE SMOOTH",
"98 750 OFFCURVE",
"60 713 OFFCURVE",
"60 656 CURVE SMOOTH",
"60 597 OFFCURVE",
"98 560 OFFCURVE",
"171 560 CURVE SMOOTH",
"291 560 LINE SMOOTH"
);
},
{
closed = 1;
nodes = (
"179 624 OFFCURVE",
"168 637 OFFCURVE",
"168 656 CURVE SMOOTH",
"168 673 OFFCURVE",
"179 686 OFFCURVE",
"208 686 CURVE SMOOTH",
"254 686 LINE SMOOTH",
"284 686 OFFCURVE",
"294 673 OFFCURVE",
"294 656 CURVE SMOOTH",
"294 637 OFFCURVE",
"284 624 OFFCURVE",
"254 624 CURVE SMOOTH",
"208 624 LINE SMOOTH"
);
}
);
};
layerId = master01;
paths = (
{
closed = 1;
nodes = (
"291 560 LINE SMOOTH",
"367 560 OFFCURVE",
"402 597 OFFCURVE",
"402 656 CURVE SMOOTH",
"402 713 OFFCURVE",
"367 750 OFFCURVE",
"291 750 CURVE SMOOTH",
"171 750 LINE SMOOTH",
"98 750 OFFCURVE",
"60 713 OFFCURVE",
"60 656 CURVE SMOOTH",
"60 597 OFFCURVE",
"98 560 OFFCURVE",
"171 560 CURVE SMOOTH"
);
},
{
closed = 1;
nodes = (
"179 624 OFFCURVE",
"168 637 OFFCURVE",
"168 656 CURVE SMOOTH",
"168 673 OFFCURVE",
"179 686 OFFCURVE",
"208 686 CURVE SMOOTH",
"254 686 LINE SMOOTH",
"284 686 OFFCURVE",
"294 673 OFFCURVE",
"294 656 CURVE SMOOTH",
"294 637 OFFCURVE",
"284 624 OFFCURVE",
"254 624 CURVE SMOOTH",
"208 624 LINE SMOOTH"
);
}
);
width = 462;
}
);
leftMetricsKey = dotaccentcomb;
rightMetricsKey = dotaccentcomb;
unicode = 030A;
},
{
color = 9;
glyphname = tildecomb;
lastChange = "2021-02-11 22:46:20 +0000";
layers = (
{
anchors = (
{
name = _top;
position = "{323, 515}";
},
{
name = top;
position = "{323, 735}";
}
);
background = {
anchors = (
{
name = _top;
position = "{323, 515}";
},
{
name = top;
position = "{323, 735}";
}
);
paths = (
{
closed = 1;
nodes = (
"314 596 LINE SMOOTH",
"355 573 OFFCURVE",
"384 560 OFFCURVE",
"422 560 CURVE SMOOTH",
"487 560 OFFCURVE",
"544 586 OFFCURVE",
"585 710 CURVE",
"479 710 LINE",
"462 668 OFFCURVE",
"439 657 OFFCURVE",
"418 657 CURVE SMOOTH",
"410 657 OFFCURVE",
"395 659 OFFCURVE",
"367 674 CURVE SMOOTH",
"331 694 LINE SMOOTH",
"291 717 OFFCURVE",
"261 730 OFFCURVE",
"223 730 CURVE SMOOTH",
"158 730 OFFCURVE",
"101 704 OFFCURVE",
"60 580 CURVE",
"166 580 LINE",
"183 622 OFFCURVE",
"206 633 OFFCURVE",
"227 633 CURVE SMOOTH",
"235 633 OFFCURVE",
"250 631 OFFCURVE",
"278 616 CURVE SMOOTH"
);
}
);
};
layerId = master01;
paths = (
{
closed = 1;
nodes = (
"487 560 OFFCURVE",
"544 586 OFFCURVE",
"585 710 CURVE",
"479 710 LINE",
"462 668 OFFCURVE",
"439 657 OFFCURVE",
"418 657 CURVE SMOOTH",
"410 657 OFFCURVE",
"395 659 OFFCURVE",
"367 674 CURVE SMOOTH",
"331 694 LINE SMOOTH",
"291 717 OFFCURVE",
"261 730 OFFCURVE",
"223 730 CURVE SMOOTH",
"158 730 OFFCURVE",
"101 704 OFFCURVE",
"60 580 CURVE",
"166 580 LINE",
"183 622 OFFCURVE",
"206 633 OFFCURVE",
"227 633 CURVE SMOOTH",
"235 633 OFFCURVE",
"250 631 OFFCURVE",
"278 616 CURVE SMOOTH",
"314 596 LINE SMOOTH",
"355 573 OFFCURVE",
"384 560 OFFCURVE",
"422 560 CURVE SMOOTH"
);
}
);
width = 645;
}
);
leftMetricsKey = dotaccentcomb;
rightMetricsKey = dotaccentcomb;
unicode = 0303;
},
{
color = 9;
glyphname = cedillacomb;
lastChange = "2021-02-12 01:07:32 +0000";
layers = (
{
anchors = (
{
name = _bottom;
position = "{177, 0}";
},
{
name = bottom;
position = "{177, -225}";
}
);
background = {
anchors = (
{
name = _bottom;
position = "{177, 0}";
},
{
name = bottom;
position = "{177, -225}";
}
);
paths = (
{
closed = 1;
nodes = (
"263 -225 OFFCURVE",
"294 -196 OFFCURVE",
"294 -139 CURVE SMOOTH",
"294 -78 OFFCURVE",
"263 -52 OFFCURVE",
"211 -52 CURVE SMOOTH",
"83 -52 LINE",
"83 -114 LINE",
"187 -114 LINE SMOOTH",
"202 -114 OFFCURVE",
"210 -122 OFFCURVE",
"210 -136 CURVE SMOOTH",
"210 -149 OFFCURVE",
"202 -157 OFFCURVE",
"187 -157 CURVE SMOOTH",
"60 -157 LINE",
"60 -225 LINE",
"211 -225 LINE SMOOTH"
);
},
{
closed = 1;
nodes = (
"83 -52 LINE",
"149 -68 LINE",
"208 0 LINE",
"144 18 LINE"
);
}
);
};
layerId = master01;
paths = (
{
closed = 1;
nodes = (
"211 -225 LINE SMOOTH",
"263 -225 OFFCURVE",
"294 -196 OFFCURVE",
"294 -139 CURVE SMOOTH",
"294 -78 OFFCURVE",
"263 -52 OFFCURVE",
"211 -52 CURVE SMOOTH",
"83 -52 LINE",
"83 -114 LINE",
"187 -114 LINE SMOOTH",
"202 -114 OFFCURVE",
"210 -122 OFFCURVE",
"210 -136 CURVE SMOOTH",
"210 -149 OFFCURVE",
"202 -157 OFFCURVE",
"187 -157 CURVE SMOOTH",
"60 -157 LINE",
"60 -225 LINE"
);
},
{
closed = 1;
nodes = (
"208 0 LINE",
"144 18 LINE",
"83 -52 LINE",
"149 -68 LINE"
);
}
);
width = 354;
}
);
leftMetricsKey = dotaccentcomb;
rightMetricsKey = dotaccentcomb;
unicode = 0327;
},
{
color = 9;
glyphname = macron;
lastChange = "2021-02-12 01:07:51 +0000";
layers = (
{
background = {
paths = (
{
closed = 1;
nodes = (
"503 580 LINE",
"503 685 LINE",
"40 685 LINE",
"40 580 LINE"
);
}
);
};
layerId = master01;
paths = (
{
closed = 1;
nodes = (
"503 580 LINE",
"503 685 LINE",
"40 685 LINE",
"40 580 LINE"
);
}
);
width = 543;
}
);
unicode = 00AF;
},
{
color = 9;
glyphname = dotaccentcomb.case;
lastChange = "2021-02-11 22:46:20 +0000";
layers = (
{
anchors = (
{
name = _top;
position = "{159, 715}";
},
{
name = top;
position = "{159, 881}";
}
);
background = {
anchors = (
{
name = _top;
position = "{159, 715}";
},
{
name = top;
position = "{159, 881}";
}
);
paths = (
{
closed = 1;
nodes = (
"257 881 LINE",
"60 881 LINE",
"60 768 LINE",
"257 768 LINE"
);
}
);
};
layerId = master01;
paths = (
{
closed = 1;
nodes = (
"257 768 LINE",
"257 881 LINE",
"60 881 LINE",
"60 768 LINE"
);
}
);
width = 317;
}
);
rightMetricsKey = "=|";
},
{
color = 9;
glyphname = gravecomb.case;
lastChange = "2021-02-11 22:46:20 +0000";
layers = (
{
anchors = (
{
name = _top;
position = "{392, 715}";
},
{
name = top;
position = "{259, 900}";
}
);
background = {
anchors = (
{
name = _top;
position = "{392, 715}";
},
{
name = top;
position = "{259, 900}";
}
);
paths = (
{
closed = 1;
nodes = (
"257 900 LINE",
"60 900 LINE",
"312 750 LINE",
"472 750 LINE"
);
}
);
};
layerId = master01;
paths = (
{
closed = 1;
nodes = (
"472 750 LINE",
"257 900 LINE",
"60 900 LINE",
"312 750 LINE"
);
}
);
width = 532;
}
);
leftMetricsKey = dotaccentcomb;
rightMetricsKey = dotaccentcomb;
},
{
color = 9;
glyphname = circumflexcomb.case;
lastChange = "2021-02-12 00:30:47 +0000";
layers = (
{
anchors = (
{
name = _top;
position = "{368, 715}";
},
{
name = top;
position = "{368, 900}";
}
);
background = {
anchors = (
{
name = _top;
position = "{368, 715}";
},
{
name = top;
position = "{368, 900}";
}
);
paths = (
{
closed = 1;
nodes = (
"465 900 LINE",
"268 900 LINE",
"520 750 LINE",
"675 750 LINE"
);
},
{
closed = 1;
nodes = (
"225 750 LINE",
"467 900 LINE",
"270 900 LINE",
"60 750 LINE"
);
}
);
};
layerId = master01;
paths = (
{
closed = 1;
nodes = (
"675 750 LINE",
"465 900 LINE",
"272 900 LINE",
"520 750 LINE"
);
},
{
closed = 1;
nodes = (
"225 750 LINE",
"463 900 LINE",
"270 900 LINE",
"60 750 LINE"
);
}
);
width = 735;
}
);
leftMetricsKey = dotaccentcomb;
rightMetricsKey = dotaccentcomb;
},
{
color = 9;
glyphname = ringcomb.case;
lastChange = "2021-02-11 22:46:20 +0000";
layers = (
{
anchors = (
{
name = _top;
position = "{261, 715}";
},
{
name = top;
position = "{261, 960}";
}
);
background = {
anchors = (
{
name = _top;
position = "{261, 715}";
},
{
name = top;
position = "{261, 960}";
}
);
paths = (
{
closed = 1;
nodes = (
"427 750 OFFCURVE",
"462 791 OFFCURVE",
"462 856 CURVE SMOOTH",
"462 919 OFFCURVE",
"427 960 OFFCURVE",
"351 960 CURVE SMOOTH",
"171 960 LINE SMOOTH",
"98 960 OFFCURVE",
"60 919 OFFCURVE",
"60 856 CURVE SMOOTH",
"60 791 OFFCURVE",
"98 750 OFFCURVE",
"171 750 CURVE SMOOTH",
"351 750 LINE SMOOTH"
);
},
{
closed = 1;
nodes = (
"179 824 OFFCURVE",
"168 837 OFFCURVE",
"168 856 CURVE SMOOTH",
"168 873 OFFCURVE",
"179 886 OFFCURVE",
"208 886 CURVE SMOOTH",
"314 886 LINE SMOOTH",
"344 886 OFFCURVE",
"354 873 OFFCURVE",
"354 856 CURVE SMOOTH",
"354 837 OFFCURVE",
"344 824 OFFCURVE",
"314 824 CURVE SMOOTH",
"208 824 LINE SMOOTH"
);
}
);
};
layerId = master01;
paths = (
{
closed = 1;
nodes = (
"351 750 LINE SMOOTH",
"427 750 OFFCURVE",
"462 791 OFFCURVE",
"462 856 CURVE SMOOTH",
"462 919 OFFCURVE",
"427 960 OFFCURVE",
"351 960 CURVE SMOOTH",
"171 960 LINE SMOOTH",
"98 960 OFFCURVE",
"60 919 OFFCURVE",
"60 856 CURVE SMOOTH",
"60 791 OFFCURVE",
"98 750 OFFCURVE",
"171 750 CURVE SMOOTH"
);
},
{
closed = 1;
nodes = (
"179 824 OFFCURVE",
"168 837 OFFCURVE",
"168 856 CURVE SMOOTH",
"168 873 OFFCURVE",
"179 886 OFFCURVE",
"208 886 CURVE SMOOTH",
"314 886 LINE SMOOTH",
"344 886 OFFCURVE",
"354 873 OFFCURVE",
"354 856 CURVE SMOOTH",
"354 837 OFFCURVE",
"344 824 OFFCURVE",
"314 824 CURVE SMOOTH",
"208 824 LINE SMOOTH"
);
}
);
width = 522;
}
);
leftMetricsKey = dotaccentcomb;
rightMetricsKey = dotaccentcomb;
},
{
color = 9;
glyphname = tildecomb.case;
lastChange = "2021-02-11 22:46:20 +0000";
layers = (
{
anchors = (
{
name = _top;
position = "{333, 715}";
},
{
name = top;
position = "{333, 915}";
}
);
background = {
anchors = (
{
name = _top;
position = "{333, 715}";
},
{
name = top;
position = "{333, 915}";
}
);
paths = (
{
closed = 1;
nodes = (
"356 775 LINE SMOOTH",
"399 759 OFFCURVE",
"423 755 OFFCURVE",
"450 755 CURVE SMOOTH",
"538 755 OFFCURVE",
"579 797 OFFCURVE",
"605 900 CURVE",
"502 900 LINE",
"491 869 OFFCURVE",
"473 855 OFFCURVE",
"439 855 CURVE SMOOTH",
"423 855 OFFCURVE",
"408 858 OFFCURVE",
"382 868 CURVE SMOOTH",
"309 895 LINE SMOOTH",
"266 911 OFFCURVE",
"242 915 OFFCURVE",
"215 915 CURVE SMOOTH",
"127 915 OFFCURVE",
"86 873 OFFCURVE",
"60 770 CURVE",
"163 770 LINE",
"174 801 OFFCURVE",
"192 815 OFFCURVE",
"226 815 CURVE SMOOTH",
"242 815 OFFCURVE",
"257 812 OFFCURVE",
"283 802 CURVE SMOOTH"
);
}
);
};
layerId = master01;
paths = (
{
closed = 1;
nodes = (
"538 755 OFFCURVE",
"579 797 OFFCURVE",
"605 900 CURVE",
"502 900 LINE",
"491 869 OFFCURVE",
"473 855 OFFCURVE",
"439 855 CURVE SMOOTH",
"423 855 OFFCURVE",
"408 858 OFFCURVE",
"382 868 CURVE SMOOTH",
"309 895 LINE SMOOTH",
"266 911 OFFCURVE",
"242 915 OFFCURVE",
"215 915 CURVE SMOOTH",
"127 915 OFFCURVE",
"86 873 OFFCURVE",
"60 770 CURVE",
"163 770 LINE",
"174 801 OFFCURVE",
"192 815 OFFCURVE",
"226 815 CURVE SMOOTH",
"242 815 OFFCURVE",
"257 812 OFFCURVE",
"283 802 CURVE SMOOTH",
"356 775 LINE SMOOTH",
"399 759 OFFCURVE",
"423 755 OFFCURVE",
"450 755 CURVE SMOOTH"
);
}
);
width = 665;
}
);
leftMetricsKey = dotaccentcomb;
rightMetricsKey = dotaccentcomb;
},
{
color = 9;
glyphname = bellycomb;
lastChange = "2021-02-11 22:46:17 +0000";
layers = (
{
background = {
paths = (
{
closed = 1;
nodes = (
"425 0 LINE SMOOTH",
"604 0 OFFCURVE",
"709 90 OFFCURVE",
"709 257 CURVE SMOOTH",
"709 425 OFFCURVE",
"604 515 OFFCURVE",
"425 515 CURVE SMOOTH",
"90 515 LINE",
"90 400 LINE",
"425 400 LINE SMOOTH",
"512 400 OFFCURVE",
"559 353 OFFCURVE",
"559 257 CURVE SMOOTH",
"559 162 OFFCURVE",
"512 115 OFFCURVE",
"425 115 CURVE SMOOTH",
"80 115 LINE",
"80 0 LINE"
);
}
